/* XPM */
static char *f50b973a367b4d3eb34ec68c16ba22215dOaFH9XPDfzS8Is[] = {
/* columns rows colors chars-per-pixel */
"80 58 256 2 ",
"   c None",
".  c #050401",
"X  c #0A0401",
"o  c #0B0904",
"O  c #0D0C0B",
"+  c #070903",
"@  c #120E0B",
"#  c #150902",
"$  c #141104",
"%  c #13120C",
"&  c #1B140C",
"*  c #1B1607",
"=  c #141312",
"-  c #191514",
";  c #1B1A14",
":  c #1C1B1A",
">  c #181617",
",  c #0E130D",
"<  c #240E01",
"1  c #251806",
"2  c #371902",
"3  c #231C13",
"4  c #221E1C",
"5  c #291B13",
"6  c #331D13",
"7  c #1E2219",
"8  c #1D2704",
"9  c #2B2407",
"0  c #352607",
"q  c #293602",
"w  c #383804",
"e  c #24221C",
"r  c #2C231A",
"t  c #2A2616",
"y  c #342B1B",
"u  c #372817",
"i  c #3B321A",
"p  c #383719",
"a  c #2C2A25",
"s  c #292625",
"d  c #332D2B",
"f  c #372E23",
"g  c #33322C",
"h  c #393426",
"j  c #363531",
"k  c #3B3936",
"l  c #302F30",
"z  c #201E22",
"x  c #441A01",
"c  c #551604",
"v  c #731604",
"b  c #472806",
"n  c #572805",
"m  c #473705",
"M  c #573805",
"N  c #452B18",
"B  c #483518",
"V  c #55351B",
"C  c #552A15",
"Z  c #6D320F",
"A  c #443825",
"S  c #563C26",
"D  c #493930",
"F  c #643923",
"G  c #374707",
"H  c #3B5604",
"J  c #334511",
"K  c #3E4133",
"L  c #454A06",
"P  c #465706",
"I  c #475816",
"U  c #534F14",
"Y  c #684606",
"T  c #6E5015",
"R  c #4B6515",
"E  c #596817",
"W  c #546E12",
"Q  c #666C15",
"!  c #594527",
"~  c #44433D",
"^  c #594637",
"/  c #4F5229",
"(  c #664629",
")  c #754A29",
"_  c #674A35",
"`  c #744D38",
"'  c #775639",
"]  c #6E572E",
"[  c #5A7724",
"{  c #56682C",
"}  c #646A28",
"|  c #6B772A",
" . c #706E33",
".. c #484847",
"X. c #595857",
"o. c #534F4C",
"O. c #6B5546",
"+. c #785A47",
"@. c #615D59",
"#. c #785F52",
"$. c #7B644A",
"%. c #7C6457",
"&. c #6B704D",
"*. c #6B6B6B",
"=. c #666465",
"-. c #747373",
";. c #7A7878",
":. c #736D6C",
">. c #605F60",
",. c #403A41",
"<. c #942C16",
"1. c #912612",
"2. c #8B500F",
"3. c #916711",
"4. c #AB7414",
"5. c #845939",
"6. c #8D592B",
"7. c #A6532B",
"8. c #916E31",
"9. c #AA7532",
"0. c #A65B00",
"q. c #CA7D1D",
"w. c #855C48",
"e. c #856745",
"r. c #887748",
"t. c #876A57",
"y. c #95745B",
"u. c #8E7452",
"i. c #B2754E",
"p. c #8C7363",
"a. c #977A67",
"s. c #88766E",
"d. c #A37E60",
"f. c #708434",
"g. c #798B4E",
"h. c #7F9B5C",
"j. c #B48518",
"k. c #918238",
"l. c #B98A29",
"z. c #B28B38",
"x. c #D28E1A",
"c. c #FB9905",
"v. c #E98B10",
"b. c #FDA606",
"n. c #FDAD18",
"m. c #C58826",
"M. c #C8952B",
"N. c #D79826",
"B. c #C89637",
"V. c #D39035",
"C. c #D3A738",
"Z. c #E9B638",
"A. c #EFAA2F",
"S. c #E69F33",
"D. c #8D8E54",
"F. c #A78647",
"G. c #B29153",
"H. c #9A846C",
"J. c #9A8674",
"K. c #8D926D",
"L. c #A2836D",
"P. c #B69968",
"I. c #A58977",
"U. c #A9947A",
"Y. c #AE9470",
"T. c #97A66C",
"R. c #B0AC73",
"E. c #A5A45F",
"W. c #C99946",
"Q. c #CF9552",
"!. c #D6A84A",
"~. c #D5AA58",
"^. c #DBB859",
"/. c #D1AE47",
"(. c #E8B749",
"). c #E4B857",
"_. c #ECB04D",
"`. c #C9956E",
"'. c #C7AA67",
"]. c #DAB868",
"[. c #D2B271",
"{. c #E5BC66",
"}. c #E7B472",
"|. c #E5916A",
" X c #EAC359",
".X c #F8C859",
"XX c #F9CA50",
"oX c #E8C466",
"OX c #F9CB66",
"+X c #FAD367",
"@X c #E8C678",
"#X c #FBD778",
"$X c #F1CE75",
"%X c #FDE17B",
"&X c #DFC37F",
"*X c #D4C259",
"=X c #7E8580",
"-X c #888787",
";X c #959492",
":X c #B49986",
">X c #AA9889",
",X c #B9A489",
"<X c #B2AD8C",
"1X c #A19EA2",
"2X c #A8A6A7",
"3X c #BAB8B9",
"4X c #B3B0AD",
"5X c #9AA297",
"6X c #D7B687",
"7X c #CCB291",
"8X c #E5B98E",
"9X c #C5BDB7",
"0X c #C8B5A6",
"qX c #C99783",
"wX c #BDC5B7",
"eX c #B8C68D",
"rX c #DBC389",
"tX c #D1CC96",
"yX c #E8CA86",
"uX c #FCD987",
"iX c #E9D398",
"pX c #FAD994",
"aX c #E9CA97",
"sX c #FFE587",
"dX c #FEE699",
"fX c #D9C8AA",
"gX c #C6C6B9",
"hX c #D6C9B6",
"jX c #D3D0AC",
"kX c #E6D4B8",
"lX c #EED6AE",
"zX c #FAE6B9",
"xX c #F2EDB0",
"cX c #DCE5B1",
"vX c #DBD7C9",
"bX c #DCDAD6",
"nX c #CCC9C2",
"mX c #E7DBC7",
"MX c #EADCD0",
"NX c #E9E3CC",
"BX c #F6E6C8",
"VX c #E9E6DA",
"CX c #F3ECDC",
"ZX c #F6E9D6",
"AX c #FAF6DB",
"SX c #F5F8C6",
"DX c #EAEAE4",
"FX c #F5ECE6",
"GX c #EEF2E7",
"HX c #FBF4E3",
"JX c #F4F4EC",
"KX c #FAF7E8",
"LX c #FAF8F3",
"PX c #ECEEF0",
"IX c #DDE2D6",
"UX c #BEBBC3",
/* pixels */
"                                                                                                                                                                ",
"                                                                  k j d d l j j g d g k D ^ o.                                                                  ",
"                                                          d s ; - > > = > : z : ; - - ; ; e r h ~ ~                                                             ",
"                                                  d : @ @ - ; = ; > > : : s z > - ; : : : 7 8 / t t f k                                                         ",
"                                          ..d - = ; : - % ; - : > ; : : s s : : : : z : 7 8 q / &.K p f j k                                                     ",
"                                    X.~ ; ; = ; = ; ; = ; = : X.; 4 -X;X-X2X4 4Xs 4 z ~ 7 J I I  .I J / K k ..o.                                                ",
"                              *.=.~ > = > ; ; > > > > 7 > : -XbX9XgXVXKXVXDXnXFXvX-Xk 3Xh { H H | D.<X<X5X~ o.o.>.*.=.                                          ",
"                            =...: = = = ; = = ; & * t f @.-XbXLXKXKXCXFXKXLXKXCXVXFXDXVXvXg.G | tXcXxXxXR.y o.X.=.=.*.:.;.                                      ",
"                          X.s : > - & $ & - ; * 9 D.rXtXHXKXHXHXKXHXKXKXKXHXCXCXAXHXFXmXNXNXD.<XxXxXlXtXr.r.^ @.%.%.%.p.J.J.;X;X                                ",
"                      *.,.: > ; = @ 1 &.&.* A U.rX@X].iXAXHXHXAXHXKXKXKXKXHXCXAXCXNXCXCXZXCXhXfXlX6X6XG.6.F.u.K.U.I.+.^ ^ K.;X;X1X                              ",
"                      s > = = = % * ] fXlXP.iXdX{.!.}.iXBXCXHXHXHXHXKXHXVXmXCXCXNXhXCXCXZXZXkXlX`.Q.|.|.Q.9.8.7X<XK.K.T.{ &.h.5X5X2X1X                          ",
"                    ; : > = , % * < b 8.iXdXuXoXC.).}.6XBXZXAXHXKXAXAXAXNXNXAXAXAXHXCXZXmXmXkX7X8X|.7.<.2.9.Y D.T.T.R.T.[ { &.&.J.2X4X2X                        ",
"                  = ; ; % , , $ B y.M 2 W.OX X(.OX^.[.[.BXAXAXAXZXBXBXmXmXBXZXNXCXAXHXZXNXmXfX7X`.i.v v F.k.I |  . .g.T.[ { T. .t.7X4X4X4X                      ",
"                ; 3 1 < * $ * < M }.'.8. XC.Z.XX+X{.[.rXlXBXBXkXkXkXBXkXBXBXkXkXAXZXZXmXBXmXfXfXqXw.Z n E.g.R T.eXcXcXeXf.I  .8.5.5.w.0X4XwX                    ",
"              3 3 ' 8X'.G.8.] Y Y !..X.XXXx.S.+X#XoXW.@XzXzXzXfXBXkXBXkXBXBXBXBXlXaXfXfXfXfXfXkXkXH.a.H.R.T.T.SXAXAXSXtXT.U M `.i.Z Z I.9X3X9X                  ",
"            d 3 1 P.z.l.!.W.~.)._.Z.(.XXN.A.Z.+X+X XOX#XpXlXlXzXlXfX7XBXzXBXlXaX6XP.7X7XfX7X7X7X,XfX>X&.T.h.g.cXSXSXSXSXjX/ B 5.2.Z <.qX9XgXwXwX                ",
"          ..= 1 x 8.B.V.V.4.4.q.x.V.+X#XN.x.S.OX.XZ.(.+X#XdXiXlX6XlXzXzXzXlXuX9.F.P.6XlXaX8X`.Q.i.P.r.{ [ G q K.cXSXSXxXcXg.w m d.`.5.F +.K.4XwXwX              ",
"        *.= O # b 6.9.!.OXOX_.q.0.m.uX#XA.A._.+XXXN.N.Z.+XsXuXsXuXpX8XaXrXpX{.W.Q.G.P.P.F.6.7.i.7.6.]  .I I J J { T.eXR.T.{ q q ! ( F C i p g.wXgX              ",
"      -.k + O @ 1 < b T 8.z.M.M.C.OXdXuXN.N.S.+X.XS.N.N.Z.XXXXZ.(.).{.[.[.pX~.z.G.P.[.D.8.3.7.9.i.2.n Y U G G G H [ [ I 8 q q 8 0 B C V V p / K.wX9X            ",
"      *.= = O @ & 1 < < < x (.(.+XsXdXOXq.q.m.#X+XN.N.XXZ.Z.Z.Z.x.Z.W.z.@XyX9.2.T 8.f.| Q k.9.9.7.7.Z ) w J I D.f.W W [ G {  .T.<X' C C V 0 1 p 2X3X9X          ",
"    ;.,.= = = = & & 1 1 r.].#XOX%XsXuX!.m.m..X#X+Xm.M._.Z.Z.x.N.N..X!.@XpXG.i.T E E W W W Q T 8.2.9.i.d.$.K./ G [ H [ H I q &.tXiXL.b x C w._ # ;XnXgX          ",
"    *.= = = = = % & * 1 rXuX+X XsXsXuX).#X_.!.+X#XB.V.0.m..XXX(.4.C.!.uX@X8.2 b L R [ W W P Q 8.6.i.P.R.D.D.D.q f.g.R H q / &.tXlXP.Z Z v Z ` # o.4XwX          ",
"  ;.X.+ = = = % % * *  .dX#X X.XsXsX].$X%XC./.%X#XB.W.n 3.OX.X+X X/.oXuXW.8.b m } R P | E E f.| U E }  .} E T. .[ h.H G w D./ U.fXP.`.|.1.1.v x 5 =X3XgX        ",
"  ;...= % % % % % * / yX#X(.N.+X#X#X8.pXsX/.%X#X#XB.W.c 4.C.M.!.^.$XsX].z.z.8.U U R P P H R H P L w G R E | } w P [ H P L { / U R.D.8.7.1.1.1.c < >.2XnX        ",
"  ;.s @ % $ $ $ & < rX#XM.x.(.#XuX~.9.dX#X X^.#XOXM.l.l..X.X2.2.3.uX$XF.9.r.8.] U P H H W H R { r.] U w L P Q Q P P P P E R E E | m n v 1.<.<.c 6 >.2X3X        ",
"  ;.= O $ $ $ $ * H.uX).j.M.uXsX#X4.~.xX#X#XC.#XOXl.(..XXX.X2.9.Q.pXG.2 b b b 0 } [ [ W [ G I J ' _ ! 0 w L U Q q | f.L E P P W | q T 6.2.Z Z n f =.1X3XUX      ",
"-.*.O @ $ $ $ $ * aX#XM.4.{.dXdX).l.uXpX#X$X/.+X(.M..X+XC.(.4.Q.pXyX8.U y.:X,X<XeXg.R R R G w 0 V C N 0 B B U ] T m U L q 9 w I } }  . . .8. .0 3 *.1X4X3X      ",
";.=.@ @ $ $ $ $ m dXOXj.B.uXdXuXl.M.uX@X$XoX{.#XC.(.+XC.C.M.!.~.dX[.] 7XmXmXvXmXAX<X&.I  .} / B C n n ] e.! B _ ! ! B 1 $ w } D.D.D.q L } D.g.T.y -.1X4X3X3X    ",
";.=.O @ o & & 9  .oX.XN..X XsX{.0.{.uX~.uX$X@XpXB. X).j./.C.{.].dXE.Y.mXMXbXbXVXVXVXgXK.jXjXjX6X~.V.m.M.~.'.,XJ.s.J.J._ 0 0 k.R.R.R.0 0 U ] &.p r ;.2X4X3X3X    ",
";.*.@ @ o $ & i  .z.l.M.l.#XOXm.m.OX_.W.#X@XyXpXW.).4.j./.OX^.].dXD.fXZXvXbXDXJXJXLXGXGXKXSXxX@X_.A.n.A.S.!.[.8XhX9X0X>XH.( E E.tX<XB ( ( B * . - s.2X4X4X3X    ",
";.*.= @ @ $ e h B T Y M k.sX(.4._._.j.).$X'.pXuXW.B.3.z.^.#Xz.yXiXR.ZXFXvXVXJXKXFXFXGXKXAXzX@X.Xn.n.b.b.n.A.S.).zXvXvXnX<XY.8.} } } V ( $.! . . . ;.1X4X2X4X=.  ",
";.:.; @ % & t h 9 < 2 M iXuXM.x.S.m.l.#X$XG.dXuXW.l.9.T $X@X3.pXiX,XHXbXHXVXVXKXJXJXJXKXSXyX$XXXn.b.b.b.b.b.c.x.[.hXbXVXvXfXzX6X .m ( ` ' $.. + O *.1X1X2X2X@.  ",
";.-.k % $ ; t y 9 1 9 [.uX!.x.S.M.0.^.$X].3.W.B.W.3.M 8.dX].b iXrXu.NXFXJXGXJXLXLXJXJXKXzX@X#X+Xn.b.b.b.c.c.c.v.Q.8XNXVXDXmXBXqX' 5.) ' y.S # s j ..-X1X2X1Xo.  ",
"  =.X.% % ; t t 9 1 G.uXoX.X_.S.M.Y  X$Xz.x 3.l.G.M b P.pXF.b 7XrXe.ZXJXJXJXJXJXJXJXDXAXzX{.#X.Xn.b.b.b.c.c.c.v.V.8XZXVXDXFXZX7X5.5.) ' V # * @.-.-.;.;X;X;Xk   ",
"  :.=.% ; ; t t 9 8.pXoXl.oX$XoXB.l.#X^.9.x 4.W.F.x Y yXyXY b Y.6X8.NXGXDXGXLXLXVXIXDXKXSX}..XXXn.c.c.c.c.c.c.q.Q.kXFXDXbXKXAXqX5.' 5.w.N X * X.s.-X-X-X-X-X:   ",
"  -.=.a ; e t 5 0 L.[.z.Y W.@X$X^.^.OX/.9.M 3.G.9.n 9.yXG.0 b e.5.( kXCXGXJXJXJXbXPXPXFXKXlX!.N.v.v.c.c.v.v.v.q.6XZXFXDXFXHXkX' e.d.e._ # o g @.;.;.-X-X-X-.O   ",
"  -.@.X.3 t & 9 0 N V x T T G.&X@XoX Xl.W.3.8.G.8.M ~.~.T 0 _ t.F V >XHXCXHXCXFXJXFXJXLXLXAXaXQ.V.v.v.v.v.x.V.}.mXVXFXKXHXNXY.( e.y.O.N X e o.*.;.;.;.;.-.o.    ",
"    @.=.a ; 3 3 0 B 2 2 n 2 0 P.yXoX^.3.].F.T 8.Y T 9.3.2 B +.a.` ` +.hXNXZXCXCXFXJXKXLXLXLXAXlX}.~.V.V.Q.}.aXzXVXVXVXHXmX7X( ) ' ( N # o l X.*.;.;.-.-.*.s     ",
"    :.X.@.3 3 t i i 9 2 < < < b '.@X~.Y &XG.Y ) ) ) x 2 b ` p.a.t.+.p.p.0XkXvXVXGXJXLXLXJXJXAXAXAXBXmXkXmXmXZXCXVXVXHXkXL.F F 5.` N 1 . , k X.=.-.*.*.*.X.+     ",
"      X.@.f 3 t u 0 u t 5 5 1 2 ] rX].z.rXG.) ) 5.' F ( w.y.a.I.' _ +.#.%.0X4XVXGXKXLXLXLXLXKXKXGXPXPXbXJXJXDXbXVXCXkXt.V ' ' ) V u o . s ..o.X.=.=.=.=.j       ",
"        D =.r r 1 9 t t t t 5 1 u r.].^.].P.( w._ ' ` w.y.a.y.L._ a.H.U.p.t.0XZXLXLXLXPXJXLXJXDXJXJXJXLXGXvX4X4XmXkXJ.N ` ' ( ( A $ . O j ..o.X.o.X.X...O       ",
"          o.X.r t t t y t r r t r # F.].'.G.b +.( _ ` y.L.t.y.t.t.U.:X:XH.$.t.hXCXLXLXLXFXFXFXJXLXJXGXDXNXvXgXmXfXa.! V S S V u X . o : k ....o.o.o.o.a +       ",
"            @.~ y y y y t y y i r 1 m P.[.F.0 S _ S ( I.U.p.:Xt.a.:XI.L.I.U.p.%.0XHXLXCXhXhXMXCXGXVXIXvXhXmXhX<X$.! ' _ ^ N 1 # . o % g ~ ....~ o.o.k =         ",
"              =.h y y y y y i i 5 1 1 ] P.'.U b _ _ _ t.L.I.:X+.a.U.p.I.J.J.>Xa.$.H.>X,X0X0XhXhXhXhXgXfXfX<Xt.S B ! ^ N A # X X o = s k K ~ ~ ~ ..~ e o         ",
"                  D h h i i i u 0 9 9 9 k.'.G.m S ^ %.%.a.t.a.O.p.a.a.U.I.a.,X:X,XI._ B S _ I.,X:X,X,Xp.' _ _ B B 0 0 y # X X @ : a j k k K ~ ~ ..s +           ",
"                    D h A A p u u 0 9 9 w G.'.r.2 _ %.#.%._ a.t.t.p.U.p.H.H.I.:X7X:XI.a.H.+.e.$.' ` ` ( _ V N N 1 * # X . O > 4 j j k k k k k k l %             ",
"                      ^ ~ A p i i i u u 0 ! R.'.2 N ^ J.p.O.O.:Xp.t.I.p.a.I.H.I.L.:XU.:XL.a.I.a.a.y.$.! D u f r . . o @ ; 4 a d k k k j j j k g =               ",
"                          ~ A i B B i i y i 0 ] 0 # ^ %.I.p.p.I.I.>XI.U.:X:X:Xa.t.L.I.p.+.` _ N b B B u 5 X o + + O = : s d d j k j j j g g j >                 ",
"                            D h A B i i y t 9 t r & r ^ O.%.a.I.I.a.:X:XJ.t.#.S S _ S N N N u 6 6 f 5 X X . . o s ; : e a d g j j j g j j g @                   ",
"                                A A i i i f y r e ; & 5 u ^ O.O.a.t.#.^ u 1 5 6 6 u u A A u 6 u 3 o X X X . % e e e e a a g g g g g j j a o                     ",
"                                    h h h h y r t e ; # 3 r 5 5 3 1 1 1 5 5 5 5 1 5 r y r 5 * X X X X X o @ - e e e s d g g g g j d g 4                         ",
"                                        h h h y y t ; $ o o # - # @ # @ # 3 3 & ; & e ; X . o X X o o @ - 4 e s a d a g g g g g j                               ",
"                                            h h h f & & & % O o o X . . o o o X o o o o o o @ $ % - - ; 3 e a d d d g g g g g                                   ",
"                                                h f t ; e ; = = = = % @ % % % % % = = = = = - ; = ; ; 4 s a d g j g g g                                         ",
"                                                      d g a 4 4 ; ; ; ; ; ; ; ; ; ; : : : : : : ; : e s a d g k                                                 ",
"                                                          k k d d s 4 : : : : : : : 4 4 4 4 4 7 e a                                                             ",
"                                                                                                                                                                ",
"                                                                                                                                                                "
};
