/* XPM */
static char *door_s[] = {
/* columns rows colors chars-per-pixel */
"40 40 164 2 ",
"   c None",
".  c #23281B",
"X  c #2D2926",
"o  c #393534",
"O  c #4C3B2E",
"+  c #433E3A",
"@  c #45413C",
"#  c #4D433C",
"$  c #52473E",
"%  c #5A4B3E",
"&  c #664D2D",
"*  c #63503C",
"=  c #71573A",
"-  c #735939",
";  c #795F3E",
":  c #544B44",
">  c #594D43",
",  c #554D49",
"<  c #5E5147",
"1  c #5D5249",
"2  c #635446",
"3  c #6B5845",
"4  c #64564A",
"5  c #66584C",
"6  c #6A5D51",
"7  c #635D5A",
"8  c #7F6444",
"9  c #6F6054",
"0  c #6B625C",
"q  c #726255",
"w  c #756659",
"e  c #786759",
"r  c #76685B",
"t  c #7A6A5D",
"y  c #6D6661",
"u  c #6E6867",
"i  c #746B64",
"p  c #7B6D62",
"a  c #756D68",
"s  c #7F7166",
"d  c #77706D",
"f  c #7A716B",
"g  c #7A7472",
"h  c #7A7778",
"j  c #7D7A7B",
"k  c #82653F",
"l  c #876945",
"z  c #886A44",
"x  c #836B4E",
"c  c #8B6E4B",
"v  c #8E704D",
"b  c #816E5D",
"n  c #85715D",
"m  c #8A745B",
"M  c #91785F",
"N  c #987C5D",
"B  c #816F60",
"V  c #837365",
"C  c #887667",
"Z  c #8D7965",
"A  c #83766B",
"S  c #86796F",
"D  c #8A7A6E",
"F  c #917B65",
"G  c #837871",
"H  c #8B7D72",
"J  c #827E7D",
"K  c #907F70",
"L  c #96826E",
"P  c #9F876B",
"I  c #87817C",
"U  c #8B827C",
"Y  c #948375",
"T  c #9D8974",
"R  c #93857B",
"E  c #98877A",
"W  c #96887C",
"Q  c #9B8A7D",
"!  c #A1876C",
"~  c #A78C6E",
"^  c #A58C72",
"/  c #A98E70",
"(  c #A18D7A",
")  c #AD9376",
"_  c #848386",
"`  c #8A8583",
"'  c #8F8A87",
"]  c #848589",
"[  c #8C898B",
"{  c #948B84",
"}  c #9C8D81",
"|  c #928E8C",
" . c #9E9086",
".. c #95918E",
"X. c #9C938C",
"o. c #8F8F91",
"O. c #8F9195",
"+. c #949294",
"@. c #999594",
"#. c #9E9895",
"$. c #9C9A9B",
"%. c #A39285",
"&. c #A99382",
"*. c #AD9884",
"=. c #A3958B",
"-. c #A89689",
";. c #A6988D",
":. c #A9998D",
">. c #B49B80",
",. c #A49B94",
"<. c #AA9D93",
"1. c #A29D99",
"2. c #B09F93",
"3. c #ADA096",
"4. c #A5A19C",
"5. c #ABA29A",
"6. c #B0A196",
"7. c #B2A59B",
"8. c #B8A79B",
"9. c #B6A99E",
"0. c #B8A99D",
"q. c #A5A2A0",
"w. c #AAA6A3",
"e. c #ADA8A3",
"r. c #ACAAA8",
"t. c #B5ABA4",
"y. c #B9ADA4",
"u. c #B3AEA9",
"i. c #BCB0A6",
"p. c #B5B1AD",
"a. c #BEB4AC",
"s. c #BDB6AF",
"d. c #BDB4AC",
"f. c #BCB2AB",
"g. c #B9B5B2",
"h. c #B9B6B3",
"j. c #BAB6B2",
"k. c #BDB6B0",
"l. c #BDB8B2",
"z. c #BEBAB6",
"x. c #BCB8B4",
"c. c #C1B5AB",
"v. c #C3B8AF",
"b. c #C2B9B0",
"n. c #C2B9B2",
"m. c #C5BCB3",
"M. c #C0BAB4",
"N. c #C2BBB4",
"B. c #C1BCB6",
"V. c #C7BDB5",
"C. c #C7BEB6",
"Z. c #C3BBB4",
"A. c #C9BDB4",
"S. c #C4BFB9",
"D. c #C9C0B8",
"F. c #C8C1BA",
"G. c #CAC2BB",
"H. c #CBC3BC",
"J. c #C9C3BE",
"K. c #CEC6BF",
"L. c #CAC6C1",
"P. c #CEC8C3",
"I. c #D1CAC3",
"U. c #D0C8C1",
/* pixels */
"                                                                                ",
"                                                                                ",
"                        & = - k ; 8 c c l v c x x 8 z l                         ",
"                        m ! ) / ~ ) ) ) ^ ) ) ~ ^ P M N                         ",
"                        n Z L L T &.*.&.( Q ( L D Y Z b                         ",
"                        e G f ` J I ` f h J g 0 u j 7 >                         ",
"                        V R g | I 5.#.G h j a y f j 0 :                         ",
"                        V U f ..+.s.e.` ] _ J I _ ] a 7                         ",
"                        t H G +.q.l.u.$.] _ [ ' [ +.a y                         ",
"                        C W H #.w.t.5.O.+.[ #...$.+.a y                         ",
"                        D R R ..u.m.f.+.r.o.s.w.e.+.a y                         ",
"                        R R R +.g.U.M.4.w.@.F.u.g.$.d a                         ",
"                        Q } W | p.U.n.p.o.q.u.4.g.+.f 0                         ",
"                        A } R 1.5.K.m.J.@.r.1.1.z.+.f 0                         ",
"                        H E } u.t.F.s.L.M.z.t.@.z.q.f y                         ",
"                        D Y H t.t.y.f.P.F.e.y.1.B.e.f y                         ",
"                        V D H <.f.f.m.P.S.X.y.t.k.1.a y                         ",
"                        3 2 2 s y.d.s.J.p.<.s.<.#.| f 0                         ",
"                        n e w U y.n.n.M.U 5.y.1.| I a i                         ",
"                        2 6 5 { t.<.v.m. .y.,.5.,.D S e                         ",
"                        O R D 5.7.} t.v.3.y.{ 5.5.D s w                         ",
"                        * %.H :.=.} } f.5.3.} =.5.U f w                         ",
"                        F 7.R } ;.Q ;.f.t.{ =.X.,.X.f i                         ",
"                        ( 2.Y =.<.3.<.f.C.=.7.<.X.I f i                         ",
"                        &.:.;.<.;.=.:.c.y.7.3.5.5.{ V p                         ",
"                        ( %.;.y.y.:.:.i.;.C.6.,.n.{ V t                         ",
"                        &.&.} i.y.=.%.i.<.m.6.,.u.G p B                         ",
"                        -.-.C 3.3.%.=.%.%.c.W 3.<.t t p                         ",
"                        %.0.Q } } -.%.E %.9.Y :.} V e q                         ",
"                        Q 2.E <.K =.%.6.v.=.Q %.6.V e w                         ",
"                        -.%.} 8.V R %.c.v.6.%.<.9.Q t r                         ",
"                        &.-.Q 7.9 Q <.c.i.i.} ;.y.} e t                         ",
"                        %.Q H %.q } } 9.t.9.R  .9.V C p                         ",
"                        Q  .H %.6 E E 6.7.=.Y =.R q V t                         ",
"                        H Q H Q < D E t.y.Y D %.V 5 n e                         ",
"                        p H D H # 9 H =. .D p r p 5 5 %                         ",
"                        + 6 V A , 5 t p 9 e q q q > 5 >                         ",
"                        . : 0 0 o # 1 1 > : $ : : X > @                         ",
"                                                                                ",
"                                                                                "
};
