/* XPM */
static char *_c0ac99004644564c6d5c3a3f66534f3cmB8eewzFMOc3V0Q[] = {
/* columns rows colors chars-per-pixel */
"80 80 213 2 ",
"   c None",
".  c #131010",
"X  c #182112",
"o  c #25291C",
"O  c #38281E",
"+  c #221F21",
"@  c #2A2927",
"#  c #37352C",
"$  c #3B3B39",
"%  c #2D2F32",
"&  c #351F11",
"*  c #48372A",
"=  c #453C36",
"-  c #543E21",
";  c #3F413D",
":  c #5C421F",
">  c #5B4426",
",  c #4B423B",
"<  c #4D4034",
"1  c #52463C",
"2  c #57483A",
"3  c #654B2B",
"4  c #664C2B",
"5  c #75572C",
"6  c #624D36",
"7  c #695339",
"8  c #695137",
"9  c #745836",
"0  c #3C3F44",
"q  c #3D4045",
"w  c #424345",
"e  c #45474A",
"r  c #4C4745",
"t  c #544B44",
"y  c #5C4E43",
"u  c #544D4A",
"i  c #5E5146",
"p  c #5A534C",
"a  c #54514A",
"s  c #4D5055",
"d  c #5A5756",
"f  c #4A4D51",
"g  c #625345",
"h  c #67594D",
"j  c #6A5A4C",
"k  c #675749",
"l  c #735D47",
"z  c #635B54",
"x  c #6B5D52",
"c  c #645E59",
"v  c #605755",
"b  c #715F52",
"n  c #604F43",
"m  c #75614E",
"M  c #7A6349",
"N  c #6C6055",
"B  c #66605C",
"V  c #6B625C",
"C  c #736355",
"Z  c #7C6955",
"A  c #74665B",
"S  c #76695D",
"D  c #7B6A5C",
"F  c #776754",
"G  c #6B614F",
"H  c #585C61",
"J  c #6C6562",
"K  c #6C6768",
"L  c #746B65",
"P  c #7B6E62",
"I  c #746D6A",
"U  c #796F6A",
"Y  c #706762",
"T  c #7D7165",
"R  c #7B726A",
"E  c #77706B",
"W  c #7C7673",
"Q  c #7E7976",
"!  c #7D7A7C",
"~  c #777476",
"^  c #856A4A",
"/  c #826E5C",
"(  c #836D54",
")  c #89735A",
"_  c #977A59",
"`  c #94744C",
"'  c #A07F57",
"]  c #816F62",
"[  c #847364",
"{  c #8A7664",
"}  c #8C7965",
"|  c #83756A",
" . c #86796D",
".. c #8C7B6C",
"X. c #897668",
"o. c #937C64",
"O. c #927F6D",
"+. c #857B73",
"@. c #8B7D73",
"#. c #837D7A",
"$. c #837A74",
"%. c #907F71",
"&. c #9D815D",
"*. c #A3835C",
"=. c #9C8262",
"-. c #95816C",
";. c #9C856D",
":. c #8D8074",
">. c #86827E",
",. c #8C827B",
"<. c #938275",
"1. c #9A8674",
"2. c #9D8874",
"3. c #94857B",
"4. c #99877A",
"5. c #96897D",
"6. c #9B8A7C",
"7. c #A28464",
"8. c #AD8B63",
"9. c #A48A6C",
"0. c #A88D6E",
"q. c #A38C74",
"w. c #A28D7B",
"e. c #A98F70",
"r. c #AD9272",
"t. c #A5917C",
"y. c #AB947C",
"u. c #B49674",
"i. c #B69B7C",
"p. c #AF906D",
"a. c #BFA17F",
"s. c #7C7E82",
"d. c #817F81",
"f. c #7E8085",
"g. c #848285",
"h. c #8B8582",
"j. c #8E8884",
"k. c #85858A",
"l. c #8A8789",
"z. c #8C8A8C",
"x. c #87898D",
"c. c #928781",
"v. c #948A82",
"b. c #9C8E83",
"n. c #938E8B",
"m. c #998E88",
"M. c #9E9186",
"N. c #96918D",
"B. c #9C938B",
"V. c #8C8D92",
"C. c #918E90",
"Z. c #8E9096",
"A. c #959293",
"S. c #9A9593",
"D. c #9E9996",
"F. c #969698",
"G. c #9C9A9B",
"H. c #989798",
"J. c #A08F82",
"K. c #A39285",
"L. c #A99584",
"P. c #A4958A",
"I. c #A5988E",
"U. c #AB9A8C",
"Y. c #AC9789",
"T. c #B29C8D",
"R. c #B29984",
"E. c #A49B93",
"W. c #AB9D93",
"Q. c #A29D9A",
"!. c #A89F99",
"~. c #B29E92",
"^. c #B9A187",
"/. c #ADA196",
"(. c #A5A19C",
"). c #ADA49B",
"_. c #B2A296",
"`. c #B3A59B",
"'. c #B9A699",
"]. c #B5A89E",
"[. c #BAAA9E",
"{. c #B8A396",
"}. c #9E9FA1",
"|. c #A5A3A3",
" X c #ABA6A2",
".X c #ADAAA5",
"XX c #ABAAAA",
"oX c #B4ABA3",
"OX c #BAADA3",
"+X c #B2AEAA",
"@X c #B8AFA8",
"#X c #BDB1A6",
"$X c #B5B1AD",
"%X c #BCB3AB",
"&X c #BAB6B1",
"*X c #BEB9B3",
"=X c #B3B1B0",
"-X c #C1B6AC",
";X c #C4B8AE",
":X c #C2B2A6",
">X c #C4BBB4",
",X c #C9BDB4",
"<X c #C3BEB9",
"1X c #CCC0B7",
"2X c #C5C1BC",
"3X c #CBC3BB",
"4X c #D1C6BC",
"5X c #D0C2B7",
"6X c #CBC7C2",
"7X c #CFC9C3",
"8X c #CAC7C3",
"9X c #D2CAC3",
"0X c #D5CFC8",
/* pixels */
"                                                                                                                                                                ",
"                                                                                                                                                                ",
"                                                                                                                                                                ",
"                                                                                                                                                                ",
"                                              5 5 > 3 3 > 4 5 5 > : > 4 9 9 8 4 > 3 8 9 9 7 7 7 7 7 8 > 4 5 9 9                                                 ",
"                                              - 3 6 l ^ ^ ^ ^ _ _ _ _ ' *.*.8.8.8.8.8.8.8.7.=.=.=.=.=.&.*.*.' ` `                                               ",
"                                              6 ( ) _ 9.e.9.9.9.0.u.i.u.a.^.i.u.i.7.p.i.i.u.0.r.e.=.9.e.9.7.7.*.*.                                              ",
"                                              6 ) o.;.y.i.R.i.9.=.9.r.9.y.y.q.q.t.2.2.y.R.=.;.e.w.q.;.o.{ l / _ 7.                                              ",
"                                              6 ) q.t.q.w.t.2.1.1.t.L.Y.Y.^.T.Y.L.L.w.L.L.;.-.-.<.O.6.4.[ [ D m m                                               ",
"                                              m k / F m D } { ;.;.1.K.2.t.L.t.w.1.-.4.4.t.w.2.O...[ [ 4.-.o.{ { }                                               ",
"                                              ) j A U R V R Q #.W #.>.E #.>.A ~ d.J U g.h.I J B v ! Q W B z 1 2 j                                               ",
"                                              o.m @.,.+.L >.A.z.g.l.D.#.j.n.P W k.K #.d.#.J B V z ~ ! ! B c y g x                                               ",
"                                              o.m ,.c.,.L #.n.h.$.h.Q.m.n.n.] #.d.K ! ! W c v L z W g.K V x 1 t Y                                               ",
"                                              ..Z ,.v.,.L #.A.n.#.N. XOXoXD.| h.! ! s.! W A x W Y n.C.I L V a u V                                               ",
"                                              ..T :.v.,.L #.N.A.z.A.+X;X>XQ.#.g.f.f.g.g.! $.R j.! z.l.s.I Y c d J                                               ",
"                                              [ L [ @.@.U W n.N.A.G.&X>X%XA.h.F.x.k.g.k.g.h.Q N.g.g.z.k.I U J d B                                               ",
"                                               .A ] @.@.| $.N.n.S.$X*X2X>XQ.n.XXV.s.s.l.z.z.>.N.l.z.C.V.I U J B L                                               ",
"                                              | S [ ..@.T #.S.S.l.2X$X%X>X XC.XXZ.s.f.l.z.j.h.N.z.A.A.Q.J E L J Y                                               ",
"                                              P S ..6.c.| ,.S.D.l.2XB.@X-XE.V.}.V.f.f.z.S.n.n.N.n.|.A.Q.J U L B L                                               ",
"                                              A ..<.<.5.@.5.Q.S.z.3X$X>X%XS.x.V.F.}.g.A.+Xn.n.D.A.|.A.z.U U B J $.                                              ",
"                                              A  .<.6.v.@.h.N.A.F.>XOX3X%XE.V.V.}.+Xk.F.3XS.E.Q.S.+XG.k.L L J B E                                               ",
"                                              N  . .+.6.5.c.n.n. X*X>X3X>X*X|.k.|.=Xk.G.7X+X$X+X.X$XQ.z.I U I J Q                                               ",
"                                              A  .:.:.3.3.v.S.A.XX<X9X3X,X2X+XV.|.+Xg.(.0X%X%X+X*X$XXXV.I E I L #.                                              ",
"                                              S <.P.b.3.@.5.A.A.$X<X9X9X>X$X+XF.|.|.k.+X9X>XOX+X2XXX|.V.I W U L L                                               ",
"                                              [ <.U.K.3.<.5.n.C.=X>X7X9X;X+X+XXXG.z.A.$X&X&X(..X8X|.G.Z.U Q L x C                                               ",
"                                              [ @.K.P.4.5.v.j.S.(.&X7X9X1X>X$X*XF.f.H.$XQ..XN..X8X XF.V.L R S h x                                               ",
"                                              } P 3.K.3.,.,.>. XD.).3X0X3X>X>X8XG.g.G.$XD.D.N.$X8X|.C.z.R | S v V                                               ",
"                                              { C 3.K.b.v.c.N.<X!.).>X9X,X>X2X7X|.A..X&X+XN.n.+X2X<XF.Q.U E P c c                                               ",
"                                              [  . .4.6.K.b.D.2XQ.OX3X3X-XoX2X8X<X*X$X2X&X).S.Q.&X2XH.$XU U R c c                                               ",
"                                              -.:.5.1.3.5.5.E.>X!.>X>X,X-X>X7X8X>X&X+X2X$X(.n.S.$X2XS.+XL +.R z c                                               ",
"                                              O.| 4.<.3.@.@.E.>X(.%X%X%X%X>X9X8X2X>X(.*X>XE.j.Q.$X2X+X XR R R d c                                               ",
"                                              -.D <.1.@.| @.E.%X$X`.W.@XoX%X7X6X3X3XD.oX>X).E.+X>X2X&XE.E L R z J                                               ",
"                                              -.[ O.<.X. .@.E.oX3X).oX%X>X,X9X8X2X3X>.(.;X).).>X>X2X&Xn.E L L B B                                               ",
"                                              } C | O. .@. .b.).>XoX%X>X1X>X9X8X*X<X,..X>XE.).oX(.>X+X>.R L L B J                                               ",
"                                              Z * k h x x y N @.-X/.OX%X%X-X4X3X&X>X,.$X>XoX).N.h.$X|.Q R L J c c                                               ",
"                                              ) l ) g 6 k 2 j b.oX-X%X>XoX>X3X2X+X+Xh.>X;X%XOXN.j..X X~ R E V z d                                               ",
"                                              _ ) t.D D C Z S E.E.>X>X>X@X1X3X*Xn.j.n.>X-XoX).B.n.D.D.L L R J V v                                               ",
"                                              7.m l j D C D P I.).>X3XoX#X3X>X$Xh. .,.>X;XW.E.Q.n.h.>.+.S E | P N                                               ",
"                                              9.k * g h g x T E.W.-XOX).%X3X3X$XB.:.E.3X%XB.E.).Q.v.,.[ R @.k j C                                               ",
"                                              ( x C A x i x U %X).-Xc.E.oX,X3X>XU.K.).>XE.c.B.@X+XB.@.} | :.O.D p                                               ",
"                                              9 & g 4.@.|  .:.>X).`.5.E./.>X%X,X:Xv.).%XB.h.I.oXoXE. .@.U [ T N p                                               ",
"                                              M O g 6.3.@.@.I.@X/.OXc.5.W.%X`.1X3X:.OX%X@.B.).E.).).:.| U [ D j x                                               ",
"                                              ^ * g 4.5.|  .W./.I.I.M.5.b.W.).,X3X#.#XoX@.E.).B.).`.B.P R  .S j N                                               ",
"                                              ` 3 Z L.W.,.@.K.I.v.W.b.5.,.M.].>X%XB./.5.:.E.E.v.E.).E.#.R R T N x                                               ",
"                                              *.M 2._.].5.:.<.v.:.@X3.3.v.W.].>XOXE.E.#.5.E.I.v.v.).).,.R U | N p                                               ",
"                                              8.( L.{.[.b.@.@.`.b./.b.K.M.].oX,X>XoXM.v.K./.I.n.c.oX!.,.R U U V p                                               ",
"                                              8.) L._.~.6.,.@.@X/.P.I.`.P./.OX>X4X%X5.B.I.`.W.B.v.).n.#. .E R V p                                               ",
"                                              u.w.Y._.U.<.@.<.oXE.W.oXI.P.OX#X@X4X>X6.].`.OX].E.v.E.,.#.R R L B p                                               ",
"                                              r.w.Y.~.P.P.b.3.E.3.W._.K.6.[.;X%X>X>XK.OX`.`.`.E.b.).E.,.+.T L L V                                               ",
"                                              r.6.L.~.K.W.E.P.>X<.,X/.4.6.`.-X#XE.`._.-X/.P.I.oX@X%XE.#. .[ T P C                                               ",
"                                              9.1.L.T.6.P.I.I.,XI.1XOX6.J.`.#XoXb.I.;X4X`.E.M.oX>X>X!.$.| [ [ b k                                               ",
"                                              9.2.L.T.4.I.W.W.,X`.-X`.b.K.W.#X#XK.].-X4X].`.5.`.>X%Xn. .| D { m C                                               ",
"                                              9.q.T.T.w.K.U.`.>XOX@XW.b.K.P.%X-XP.oX-X,X_.`.v.oX>XE.$.@.| D { D [                                               ",
"                                              9.2.T.Y.4.<.6.`.,XOX].M.b.b.P.oXOXP.P.;X5XI.`.v.OX3XS.W [ | A D [ %.                                              ",
"                                              o.O.'.U.4... .I.-X]._.U.K.K.I./.B.b.K.-X1Xb.b.v.-X3Xn.P A T D S [ }                                               ",
"                                              } %.:X{.K...{ 3.OXI._.K.b.K.I.K.<.6.I.OX#X..5.P.OX/.3.D [ S A D T /                                               ",
"                                              1.:.[.[.`.b.[ [ K.M.I.K.<.6.K.6.<.<.I.].`.4.<.K./.6.../ [ D A C x [                                               ",
"                                              ;.| `.'.OX_.<.3.`...I.[.L.w.Y.6.6.6.].OX].4.<.K._.[.6.[ ] D b C S [                                               ",
"                                              9. ._.'._.P.<.P._.O.6.`.K.2.U.K.OX#X-X`.W.b.<.4.P.].I.X.D D b C D S                                               ",
"                                              9.O.Y.~.P.6.1.L.OXD 4.6.b.4.U.U.#X4X%X%.I.K.4.4.`.OXW.3.D D D C C C                                               ",
"                                              9.1.{.Y.4.3.K.U.:XS 3.4.4.4.U.OX:X4XOX4.`.K.K.b.`.OX/._.S D D C C P                                               ",
"                                              ;.J.'.Y.6.3.I.~.:Xh <.4.%.4.~.;X>X3XOX_.:XK.P.P.`.#XW.:XA X.C D P T                                               ",
"                                              o.L.T.T.P.5.P._.OX1 <.J.3.U.'.-X1X3X`.[.;XP.6.K.`.-XW.-XS [ C C S P                                               ",
"                                              o.1.L.Y.b.@.b.[.W.< { K.6.P._.`.;X,XW.[.;XK.3.6.W.-XOX].S D C A [ [                                               ",
"                                              { L.K.L.5. .3.~.K.1 <.K.6.4.P.W.@X;XE._.-XK.3.3.I.OX].E.C [ ] D [ P                                               ",
"                                              / P.4.6.3. .@.b.<.1 ..J.6.<.P._.-X,XW.I.#X<.<.3.W.OXI.@.j 1.] S P P                                               ",
"                                              { b.3.6.v.+.@.3.P.1 ..J.4.<.P.`.OX>XE.I.{.K.@.<.I.M.@.D g 4.] D S A                                               ",
"                                              { b.3.I.P.,.@.P.I.1 D 6.%...J._.K.OXb.K.6.<...b.`.W.S D j C ..{ A x                                               ",
"                                              T 3. .w.K.<. .6.K.1 b <. .%.4._.`.>XW.[ K.....5.I.3.g k g / { [ S j                                               ",
"                                              F <.@.6.6.:.@.6.6., x | | <.P.OX%X3XW.[ K.3.| 6.W.b.C g j { Z j C x                                               ",
"                                              F T +.<.:. .@.3.<., y S P @.6.W.@X>X5.@.<.[  .| T | A g h C g * h C                                               ",
"                                              F N U  .| | @. .[ = = y x | |  .I.W.C +.D C P N h S S y N j 2 < j S                                               ",
"                                              F , p x N P @. .P , u y j S P S @. .g P D D C C x C C , x D 2 1 h A                                               ",
"                                              G @ $ a S R  .@.| u v i C C P S A A i C b j j P k k C 1 y D < 1 i V                                               ",
"                                              i X # a c L  .+.P r u t x x x A x x t x g y y x y n h , @ j < , t c                                               ",
"                                              p X o $ , a d d u + + @ , u t , , p = r # = , = = = r @ . d r $ $ ,                                               ",
"                                              V o o # ; w e e w % % % % $ $ $ w s e 0 $ w H d s s f q 0 s s e e f                                               ",
"                                                                                                                                                                ",
"                                                                                                                                                                ",
"                                                                                                                                                                "
};
