/* XPM */
static char *food_s[] = {
/* columns rows colors chars-per-pixel */
"40 40 232 2 ",
"   c None",
".  c #0E0905",
"X  c #140D08",
"o  c #13110C",
"O  c #1B140C",
"+  c #1E180E",
"@  c #151512",
"#  c #191612",
"$  c #1A1915",
"%  c #1C1B19",
"&  c #261A0C",
"*  c #201E1B",
"=  c #231E16",
"-  c #2C2312",
";  c #2A241B",
":  c #2F2919",
">  c #252217",
",  c #332414",
"<  c #342A16",
"1  c #3A2E1A",
"2  c #362818",
"3  c #3B3316",
"4  c #2D230B",
"5  c #252321",
"6  c #2A2623",
"7  c #2D2A29",
"8  c #2A2826",
"9  c #352D25",
"0  c #393222",
"q  c #33312D",
"w  c #3C3429",
"e  c #343431",
"r  c #3A3936",
"t  c #432E1B",
"y  c #49361B",
"u  c #5C3A1B",
"i  c #6D2911",
"p  c #493826",
"a  c #563B23",
"s  c #403E3A",
"d  c #443C33",
"f  c #3D471B",
"g  c #475A0D",
"h  c #464815",
"j  c #50471A",
"k  c #485716",
"l  c #545918",
"z  c #414F0D",
"x  c #65441A",
"c  c #74511D",
"v  c #526215",
"b  c #586819",
"n  c #4D6313",
"m  c #606A1C",
"M  c #594626",
"N  c #535A26",
"B  c #59493B",
"V  c #464534",
"C  c #654A2C",
"Z  c #714C2B",
"A  c #685529",
"S  c #644B34",
"D  c #6A5138",
"F  c #72563A",
"G  c #7B5937",
"H  c #7E5D28",
"J  c #59692B",
"K  c #587123",
"L  c #676025",
"P  c #776725",
"I  c #6A753C",
"U  c #617333",
"Y  c #79683C",
"T  c #464545",
"R  c #4B4A47",
"E  c #514E48",
"W  c #585656",
"Q  c #695842",
"!  c #745A49",
"~  c #6B6D48",
"^  c #796549",
"/  c #7B7A49",
"(  c #7A685B",
")  c #716F51",
"_  c #696765",
"`  c #716F6E",
"'  c #767574",
"]  c #7A7863",
"[  c #8B321A",
"{  c #8C4425",
"}  c #845726",
"|  c #894E37",
" . c #89662A",
".. c #876A3A",
"X. c #88773E",
"o. c #987535",
"O. c #9A692D",
"+. c #A5652D",
"@. c #A6772C",
"#. c #A87F38",
"$. c #8A6648",
"%. c #857646",
"&. c #947543",
"*. c #836C55",
"=. c #886D59",
"-. c #89745E",
";. c #9A7352",
":. c #A37F54",
">. c #937662",
",. c #977D6A",
"<. c #8B7762",
"1. c #C27D4E",
"2. c #748342",
"3. c #7D8365",
"4. c #B28B3C",
"5. c #B5863A",
"6. c #AD8431",
"7. c #F69609",
"8. c #FDA307",
"9. c #FBA511",
"0. c #C7993E",
"q. c #D69736",
"w. c #D48E2F",
"e. c #DEA33E",
"r. c #EFA427",
"t. c #E8AA39",
"y. c #F8BA39",
"u. c #ECB13D",
"i. c #84854C",
"p. c #808557",
"a. c #8D8F59",
"s. c #A28956",
"d. c #B38857",
"f. c #B89A5B",
"g. c #AE8E4E",
"h. c #8B8963",
"j. c #9B826E",
"k. c #948465",
"l. c #9A9C67",
"z. c #9E8776",
"x. c #88906E",
"c. c #AC9165",
"v. c #A38A75",
"b. c #A58E79",
"n. c #A28773",
"m. c #A89270",
"M. c #9BA16A",
"N. c #9EA775",
"B. c #A6A777",
"V. c #C79946",
"C. c #DB9B4B",
"Z. c #DCAC4C",
"A. c #D8A543",
"S. c #C4A358",
"D. c #D9AD52",
"F. c #DBB45A",
"G. c #DCB149",
"H. c #EDB74A",
"J. c #E4B454",
"K. c #E9B957",
"L. c #EAB54B",
"P. c #C89D76",
"I. c #CAAC68",
"U. c #D3B269",
"Y. c #D5B475",
"T. c #CAAF74",
"R. c #E4BD64",
"E. c #E2B769",
"W. c #E3BC75",
"Q. c #EDC053",
"!. c #F3C659",
"~. c #DFC076",
"^. c #EBC462",
"/. c #E4C16A",
"(. c #EAC46B",
"). c #F3CD6D",
"_. c #F1C965",
"`. c #EDCD7A",
"'. c #F5D67E",
"]. c #F3CD6F",
"[. c #848484",
"{. c #989693",
"}. c #94918E",
"|. c #AC9983",
" X c #B79E80",
".X c #B9A68B",
"XX c #BCAD9A",
"oX c #B9B390",
"OX c #A6A4A5",
"+X c #B2AFAE",
"@X c #B6B4B3",
"#X c #B1B4A9",
"$X c #D4B888",
"%X c #D0AF8D",
"&X c #D2BFA3",
"*X c #D7C188",
"=X c #D7C099",
"-X c #EECE8D",
";X c #F6D687",
":X c #F3D898",
">X c #EDD192",
",X c #D8C5A6",
"<X c #CCC5BA",
"1X c #D7CFBB",
"2X c #DCD1BC",
"3X c #DDD6A9",
"4X c #E6CCA4",
"5X c #E9D6B8",
"6X c #F1DAAD",
"7X c #E7E6B5",
"8X c #DCD3C4",
"9X c #CFCAC3",
"0X c #EBDBC4",
"qX c #E3D8CB",
"wX c #E3D8C6",
"eX c #E1DFD4",
"rX c #EFE1C4",
"tX c #F2E4CA",
"yX c #EDE4D5",
"uX c #EDE9DD",
"iX c #E9E3D5",
"pX c #F4EAD3",
"aX c #F2EBDC",
"sX c #F4EAD5",
"dX c #F9F2DD",
"fX c #EEEAE3",
"gX c #F2EDE5",
"hX c #F5F1E4",
"jX c #F9F4E6",
"kX c #F4F3EB",
"lX c #F8F5EC",
"zX c #F8F6F2",
/* pixels */
"                                                                                ",
"                                                                                ",
"                                                                                ",
"                                                                                ",
"                                                                                ",
"                                    5 7 8 8 9                                   ",
"                              % $ $ * 5 % % > V 0                               ",
"                        e % # $ E _ {.}.` T f J ~ E                             ",
"                    T 5 # $ 0 ) <XaXhXgXeX9X3.M.3X] W _                         ",
"                  s % = Q ^ I.5XjXjXjXaXaXaX2X,X$X&.h.-.] }.                    ",
"                  % o y $X-XR.6XdXdXaXpXsXaX0X%X1.@.l.l.~ x.OX                  ",
"                ; + - &.f.Q.R.4XpX0XtXtXpXyX2X%X{ X.h.oXI %.z.@X                ",
"              9 :.g.o.Z.L.H.^.-X6X5XrXrX4X,X,X&Xk.M.7X7Xa.$.| XX                ",
"              , 5.A.w.Z.H.H.H.).:X>X6X>Xf.$XP.d.%.J B.7XN.M $.( #X              ",
"            q O x #.q.).K.K.t.u.!.K.Y.W.d.s.O.+.c z N 2.N N M y 3.              ",
"            % o & &._.;XA.K.A.t.t.t.E.d.L b P +.&.~ J b k B.G u B +X            ",
"          W # o < Y.).'.(.^.D.@.Q.Z./.H l b b P i./ U K N B.c.{ a {.            ",
"          T o o ^ K.^.U.'.).D.4.0.F.I.o.l g g l j b v n l I ..[ i '             ",
"          r o = Y.V.'.F.;X^.G.Q.0.W...*./ b k M y h l b z l A } u ' @X          ",
"          e o 3 (.F.`.F.`.).J.G.Z.*XoX8X1X3.p.G } ..Q S 3 i.I L ~ ' @X          ",
"          e o y 4.D.Z.J./.;XA.0.R.*XwXiXgXiX7XK.r.Z.&XXX*.a./ M : ' +X          ",
"          r O 1 y U.q.q./.`.5.S.U.=XuXaXkXjX:Xy.8.9.E.8X,Xc.C F $ ` OX          ",
"          R + - Y ^.e.V.S.6. .T.c..XgXkXlXhX;Xy.8.7.w.5XuX%XG C w ` {.          ",
"          W * < f.V.(.F.4.@. .T.F c.uXlXfXhX-Xr.7.7.C.iXaX X$.t R [.[.          ",
"          _ ; - M x f.R.4.o. .o.D ! 1XaXgXzXpXE.w.C.4XfXwX$.F ; _ ' `           ",
"            s < , & M U.f.H Z a =.^ z.8XhXzXlXpX5X0XyXqX>.Z , 5 W ` W           ",
"            E : , - , s.I.G F *.>.=.,..XkXlXlXkXkXeX8Xb.C a O e E W e           ",
"              d : < < y f.A S ,.,.j.v.j.<XuXqXuXeX1X|.D p & o s R T             ",
"                w 1 1 4 X...S -.>.>.n.b.b.<.v.XX.X-.a t O o 8 r V 7             ",
"                  d 1 < j s.B =.=.>.j.v.|.n.>.=.F p & X # 7 r r e $             ",
"                    p t 1 M 1 ( >.v.b.j.*.^ S t 1 X o $ 7 q e e 5               ",
"                      0 0 : * , B ! B 0 2 1 , & . . * 5 q q q 8                 ",
"                        w 0 ; o o X X + + $ X . X $ 6 q q q                     ",
"                            9 * # o o o o @ # # % 6 q q                         ",
"                                7 5 % % % * * *                                 ",
"                                                                                ",
"                                                                                ",
"                                                                                ",
"                                                                                ",
"                                                                                "
};
