/* XPM */
static char *_013a8de5a9a4f85c6e2146545ef3a4f76hxQThEjgjZBRus[] = {
/* columns rows colors chars-per-pixel */
"80 80 256 2 ",
"   c None",
".  c #0B0402",
"X  c #0D0B06",
"o  c #0D0D09",
"O  c #130B04",
"+  c #110E0A",
"@  c #170B06",
"#  c #13120C",
"$  c #1B130C",
"%  c #171307",
"&  c #151412",
"*  c #191614",
"=  c #1B1A15",
"-  c #1D1C1A",
";  c #171817",
":  c #10110E",
">  c #26190A",
",  c #231D13",
"<  c #221D1C",
"1  c #2A1B12",
"2  c #351D0C",
"3  c #2B2509",
"4  c #32260D",
"5  c #2D2413",
"6  c #23211D",
"7  c #292518",
"8  c #332413",
"9  c #332B1B",
"0  c #372917",
"q  c #3C3319",
"w  c #33360B",
"e  c #252323",
"r  c #2B2523",
"t  c #2D2B2A",
"y  c #2B2A26",
"u  c #322D2B",
"i  c #352D26",
"p  c #34322D",
"a  c #393326",
"s  c #353531",
"d  c #3C3C3A",
"f  c #3A3934",
"g  c #342F31",
"h  c #1F201E",
"j  c #432D18",
"k  c #453719",
"l  c #553718",
"z  c #502C0E",
"x  c #703716",
"c  c #463827",
"v  c #573B26",
"b  c #45352D",
"n  c #64281B",
"m  c #3B490F",
"M  c #3F4C2B",
"N  c #47590B",
"B  c #474917",
"V  c #564619",
"C  c #465A15",
"Z  c #565A18",
"A  c #494B0C",
"S  c #71501B",
"D  c #4A6614",
"F  c #586818",
"G  c #4D650E",
"H  c #6A6C19",
"J  c #594827",
"K  c #45423B",
"L  c #594537",
"P  c #4D542B",
"I  c #684829",
"U  c #754B2B",
"Y  c #665627",
"T  c #755728",
"R  c #684A34",
"E  c #685636",
"W  c #765538",
"Q  c #724A34",
"!  c #586426",
"~  c #597426",
"^  c #5A6A35",
"/  c #7A6736",
"(  c #687638",
")  c #6F7030",
"_  c #4A4947",
"`  c #524D49",
"'  c #58534B",
"]  c #585756",
"[  c #504F51",
"{  c #6B5645",
"}  c #765844",
"|  c #685B54",
" . c #7A684B",
".. c #747649",
"X. c #64625A",
"o. c #7B6656",
"O. c #6E754E",
"+. c #686767",
"@. c #747374",
"#. c #7B7979",
"$. c #756F6A",
"%. c #605F63",
"&. c #3E3F40",
"*. c #8C1D12",
"=. c #892F14",
"-. c #843E21",
";. c #864C17",
":. c #845C3B",
">. c #8F4C2E",
",. c #A65B2F",
"<. c #896729",
"1. c #936B29",
"2. c #886837",
"3. c #987637",
"4. c #907132",
"5. c #A67B37",
"6. c #AA702B",
"7. c #8E6617",
"8. c #C3792E",
"9. c #895646",
"0. c #866848",
"q. c #886956",
"w. c #897558",
"e. c #94755A",
"r. c #937348",
"t. c #AA744A",
"y. c #8B7364",
"u. c #967966",
"i. c #8E7A70",
"p. c #C46E4B",
"a. c #698836",
"s. c #74844A",
"d. c #7D876C",
"f. c #B08934",
"g. c #848039",
"h. c #F99807",
"j. c #E98B15",
"k. c #FEA507",
"l. c #FAAC1B",
"z. c #C79639",
"x. c #D69B38",
"c. c #D08E30",
"v. c #E39B2E",
"b. c #D7A639",
"n. c #E5A737",
"m. c #EFB02F",
"M. c #9A8857",
"N. c #878B53",
"B. c #B8985A",
"V. c #AF8E4E",
"C. c #99846B",
"Z. c #979967",
"A. c #9C8674",
"S. c #8C9270",
"D. c #A58567",
"F. c #AA966A",
"G. c #B59964",
"H. c #A48876",
"J. c #A9927A",
"K. c #BA8E73",
"L. c #97A36A",
"P. c #99A56F",
"I. c #BAA675",
"U. c #A9AA74",
"Y. c #BBA05C",
"T. c #C79745",
"R. c #CE944F",
"E. c #D7A746",
"W. c #D9B249",
"Q. c #C8A658",
"!. c #D6AA55",
"~. c #DBB65A",
"^. c #CCA446",
"/. c #E7B94A",
"(. c #F4BC4A",
"). c #E7BA58",
"_. c #E7AC4F",
"`. c #CE966E",
"'. c #C7A967",
"]. c #D8B867",
"[. c #D9BA76",
"{. c #CFAC73",
"}. c #E4BA68",
"|. c #E7B773",
" X c #ECC259",
".X c #F6C757",
"XX c #F0C34B",
"oX c #DEC26E",
"OX c #EAC569",
"+X c #F8CB67",
"@X c #F8D46C",
"#X c #E9C876",
"$X c #F4CC76",
"%X c #F7D477",
"&X c #EED16E",
"*X c #878787",
"=X c #979597",
"-X c #92968C",
";X c #AB9884",
":X c #B19B89",
">X c #B2AB91",
",X c #AAA7A8",
"<X c #B8B7B7",
"1X c #B4AFAC",
"2X c #9F9DA1",
"3X c #D4B786",
"4X c #C7B499",
"5X c #DAB998",
"6X c #CDAF87",
"7X c #C7B9A9",
"8X c #E1BE85",
"9X c #BCC2B0",
"0X c #BFCC92",
"qX c #D0CC98",
"wX c #EACA88",
"eX c #F7D787",
"rX c #E6CB99",
"tX c #F6DA97",
"yX c #EED18C",
"uX c #FDE489",
"iX c #FDE592",
"pX c #D8C5A7",
"aX c #C8C4BB",
"sX c #D6C9B5",
"dX c #DAD4BB",
"fX c #D0CEA8",
"gX c #E8C9A8",
"hX c #E8D6A8",
"jX c #F4DAA9",
"kX c #E9D5B9",
"lX c #F3DCB8",
"zX c #E3CFB2",
"xX c #EDE7BA",
"cX c #D8E4AC",
"vX c #DAD7C7",
"bX c #D6D2C9",
"nX c #E7DBC7",
"mX c #E7DDD2",
"MX c #F1DFD5",
"NX c #EAE1CB",
"BX c #F6E7C8",
"VX c #ECE3D3",
"CX c #EBE4DB",
"ZX c #E8E5D9",
"AX c #F3ECDB",
"SX c #F4E9D6",
"DX c #F9F2D9",
"FX c #F1F5C7",
"GX c #ECEAE5",
"HX c #F3EDE3",
"JX c #F3EBEA",
"KX c #EEF2E8",
"LX c #FAF4E4",
"PX c #F4F4EB",
"IX c #F9F5E8",
"UX c #F9F7F3",
/* pixels */
"                                                                                                                                                                ",
"                                                                                                                                                                ",
"                                                                                                                                                                ",
"                                                                                                                                                                ",
"                                                                                                                                                                ",
"                                                                                                                                                                ",
"                                                                                                                                                                ",
"                                                                                                                                                                ",
"                                                                                                                                                                ",
"                                                                                                                                                                ",
"                                                                        u u g g u u u g b                                                                       ",
"                                                                g r e h - - e e 6 < < 6 r a f K                                                                 ",
"                                                            e < < ; * ; ; - h - ; ; - - - 7 K a a                                                               ",
"                                                      s r < & & & ; ; - e r t e e - h - , w P P a a f                                                           ",
"                                                _ f r ; & ; ; & - d u K $.$.#.] +.u e s 9 m P ^ P K K K                                                         ",
"                                            ] K t - ; ; ; ; - ; _ -X-X2XaXaXaX1X1X#._ @.M C C ( N.S.$._ _ ]                                                     ",
"                                          [ d - & ; ; ; & # - K *XbXmXVXHXHXHXCXVXaX,X<Xd.P ( U.qXfXJ.` [ %.+.$.                                                ",
"                                        [ s - & $ & & = q  .C.>XbXHXIXIXLXIXIXHXAXAXAXmX9XO.Z.qXxXhXZ.E ] X.+.$.i.i.                                            ",
"                                      _ y - & = a 9 7 { M.I.qXSXHXLXIXIXIXIXLXAXAXAXAXVXnX>XqXhXhX3Xr.0.O.y.y.o.$.S.-X                                          ",
"                                    _ r ; & $ c C.w.o.I.[.[.rXSXLXLXLXIXIXLXAXAXAXVXAXAXSXdXpX5X3X`.5.r.Z.J.C...{ d.-X=X-X                                      ",
"                                  _ e ; & # > E 5XqXqXtX}.}.yXBXAXLXLXLXLXAXNXAXSXNXSXAXNXkXgX`.`.R.8.3.F.U.Z.Z.O.O.S.-X,X=X                                    ",
"                                  r - & : $ 0 v F.yXeX&X).}.wXBXDXDXDXDXDXVXNXDXDXDXAXVXnXkX5X`.p.,.6.<.N.Z.L.L.s.^ s.S.,X,X                                    ",
"                                y & # : # 8  .T 2.].OX X X].3XBXDXDXSXBXBXNXBXSXSXDXAXVXnXsX5X`.,.=.3.) ( N.Z.L.s.^ N.w.:X,X1X                                  ",
"                              f 5 0 8 > > k V.B.f././.XX+X].3XlXBXBXkXkXnXBXBXnXBXSXSXNXnXsXpXK.>.x M.( d.>XqXqXN.! / 2.q.i.1X<X                                ",
"                              9 } G.t.2.T S T.)./.n.n.+X@X~.[.jXxXkXkXkXNXBXBXnXlXhXzXzXsXsXzX4Xu.w.L.L.qXFXFXcXP.! 0.t.>.9.>X7X<X                              ",
"                            p 0 e.R.R.V.T.T.x.(.XXn.n.+X+X).$XtXjXlXkXgXkXBXBXhXrX6X3X5XpX5XpX4X;XN.L.Z.cXFXFXxXqX^ W r.-.9.:X7X9X                              ",
"                          _ < j t.z.z.z.z.x.x..X.Xv.n.+X.X(.+XeXtXjXrXhXlXlXlXwX'.G.6XrX5X6X`.K.F...s.( U.xXFXFXcX..V :.t.9.u.=X<X9X                            ",
"                          t $ j <.z.E._.c.8.c.$X@Xn.n.+XXXn.(.%XeXtXyXtXjXhXtX|.V.B.{.6X`.t.t.t.2.) F m ^ U.qXqX0XO.w E r.U v X.-X9X                            ",
"                        ] ; + 2 S 3.T.!.x.c.E.eX%Xn.n.+X(.v.n..X@X%X$X#X8X3XyX~.R.B.I.M.4.,.6.,.S Y C m m ! N.Z.s.P w k v l l c O.,X<X                          ",
"                      +.d & + > 2 z S 1.x.E.+XuX$Xc.x.@X(.v.n.m.XX(.n._.!.[.wXR.t.M.F.g.<.6.6.,.;.S B m ^ ! ~ ~ B B ^ O.E l l k P S.<X                          ",
"                      +.e & + # > > l 3.). X%XiX).c.x.@X).x.(.m.m.m.v._.!.|.[.t.T ) ) H ) 1.6.,.,.:.E ^ ( ~ D F C P N.>Xe.l z v k X.1X<X                        ",
"                      [ - & & & $ 4 0.].%X@XuXeX!.x._.@X).c.b.n.n.v.v./.}.$XB.2.S F F G H S 1.,.t.D.w...P ~ ~ D m B L.qXF.l z Q R ` 2X<X                        ",
"                    @._ & & # # % q G.eX@X@XuX%X}.OXW.@XOXz.6.z..X(.x.E.}.#X5.l A G F F G H 4.2.M.F.w.N.^ ( a.C m ^ Z.qXI.0.>.x U b *X<X                        ",
"                    +.f & # # # % Y [.%X X@XuX}.$XOX~.%XOXT.7.6. X X).~.#X~.5.V Z F G F F H H Z ) ( ) ..( ~ a.N m O...>XI.K.t.*.n j +.,X7X                      ",
"                    +.g & # # % 5 M.#X XW.@X%XB.eX&X&X%XOXT.<.f.b.^.!.&X#XQ.f./ Z D N N N G N B A Z F ) Z D ~ N B E P Z.M.t.>.*.*.z [ =X7X                      ",
"                    ] e # # # $ L [.).x.).%XOXV.tX&X X%X Xz.f.).E.6.f.$X].V.3.2.Z N m N N D ! / J A N F F N G N F Z F ( Y x =.=.=.z ` =X<X                      ",
"                  @.] ; # # + 7 C.#XE.z.%X%X!.'.tX%X~.@X).b./..XE.6.R.wXV.T W E E ~ F D D C P E J w m N F A H F G N N F A U ;.-.x z ' =X<X                      ",
"                  @.] ; # # + a 3XOXz.!.iX%X^.#XtX%X).@XW.W..X/.E.T.#XwX2. .C.H.P.N.~ D C m k v l 4 k A Z V Z Z m w N ! ! / 2.<.T k ] =X<X<X                    ",
"                  @.[ & # # % J yX).z.#XiX#Xz.$XeX$X X@XW. X Xb.b.!.tX{.M.4XsXsXdX>X( ! ! P z z z I E V J J V k 3 w ) s.s.! Y ) ( O.] =X1X<X                    ",
"                  @.[ & + # > Y #X).W.&XeX~.^.$X}.$X#X%XE.).b.b.E.~.tXI.>XkXnXmXZXvX>XS.>XU.F.t.6.5.V.M.y.o.q.{ q B N.L.L.B B ) ..{ X.=X1X<X                    ",
"                  @.[ & o # 4 T Q.E.E.OX&XT._.OX~.$XwXeXE.E.f.W.~.}.tXU.sXmXmXZXGXGXvXdXxXhX[._.v.v.E.{.6X>X>XA.o.J N.U.U.J J J P 9 X.=X1X<X=X                  ",
"                  @.[ ; + # 9 Y 4.1.f.&X).c._.E.~.#XwXeXE.z.f.W.OX].yX>XnXmXmXHXPXPXKXLXFXjXOXm.l.l.m._.8XkXsX7X;Xw.2.Z.Z.J R J > & ] =X,X1X=X                  ",
"                  @.] ; # $ 9 k l l M.$XE.c.n.z.OXoXyXeXT.f.f.].].[.rX4XSXCXCXHXIXPXPXLXxXyX.Xl.k.k.l.l._.hXvXbXfX:XF.2.Y J W E > : ] =X,X,X-X                  ",
"                  @.] < % = 9 4 > Y {.$Xx.v.c.z.&X].oXOXT.6.3.wX'.{.rX4XVXHXAXHXIXPXPXDXjX$X.Xl.k.k.k.h.v.[.dXmXmXsXhXD.Y I W } , - [ *X2X,X*X                  ",
"                  @.X.t % , 7 3 3 M.#X).x.v.6.!.OXB.f.T.f.S M.yXB.I.qX;XCXPXKXPXUXPXPXDXtX$X.Xl.k.k.h.h.j.R.gXVXZXVXkXD.:.U W R , b ] #.=X2X#.                  ",
"                  @.X.f $ , 7 3 J '.OX X).x.6.~.oX3.7.f.5.V G.wXr.F.3XJ.AXPXKXPXPXKXKXDXtX$X.Xl.k.h.h.h.j.R.gXVXGXHXkXD.:.W Q 0 , X.@.#.-X=X@.                  ",
"                    +.d = , 7 0 r.#X!.).+X~.z.OX!.<.7.z.3.I {.[.T e.I.F.VXKXKXUXKXGXGXDXjX).(.l.h.h.h.h.j.`.nXCXmXLXkXD.:.:.R > 6 +.*X*X*X*X+.                  ",
"                    $._ 6 6 5 q e.Q.5.V.#XOX~.OX^.1.7.V.1.<.[.B.l } r.C.nXKXPXUXGXGXKXLXBX|.v.j.h.h.j.j.c.5XMXGXGXAX4X0.e.0.v > f +.#.*X*X#.]                   ",
"                    +.] y , , 0 E T S <.B.#XOX).f.f.1.V.<.5.Q.2.l } Q o.sXAXHXHXJXJXJXUXDXgX!.v.j.j.j.x.|.kXCXJXHXnXH.W q.W 0 6 [ $.#.#.#.@._                   ",
"                    +.X.p , , 4 j z z z / {.#X~.f.B.<.3.S 1.3.l J q.} } >XnXAXAXHXJXUXUXUXBXrX|.R.c.R.|.gXMXCXHXVX4X0.W W c > y ] @.@.@.@.+.                    ",
"                      X.` 6 5 0 j 2 2 > j M.[.~.3.'.2.T U S l j } e.q.} i.7XnXVXGXPXUXUXUXLXBXlXgX5XgXkXBXCXCXMX4Xe.U Q v 1 + g ] +.@.$.+.[                     ",
"                      X.] i 5 0 0 4 > > > E '.].V.'.2.U W I v W q.u.0.} q.A.7XbXAXIXUXUXPXIXLXHXCXmXCXCXVXZXVX7Xw.U U I j @ ; d [ %.+.+.+.&.                    ",
"                        ' K 7 5 4 8 5 1 > k M.].Q.'.0.W W Q W q.u.u.} q.y.y.;XsXHXUXUXPXUXIXKXPXPXGXKXbXbXmXdXA.R Q I v 8 X 6 &.[ ] ] ] [ y                     ",
"                        _ ' a 5 5 8 5 5 5 5 J B.].'.2.} R W 0.u.e.e.0.H.J.u.q.4XCXUXUXPXUXPXKXPXPXKXZXbXaXdX:X{ I I v j % o y K ` [ [ [ d &                     ",
"                          ` K 9 5 9 5 5 8 8 8 2.'.Y.T R R R e.H.u.y.y.J.J.H.u.A.aXHXUXHXCXCXHXPXGXZXvXvXsX>X .J v v 0 > . & p _ _ _ ` _ e                       ",
"                            ` b 9 9 9 9 9 9 1 l V.Y./ v R R y.H.H.u.u.J.H.H.H.u.;XsXnXvXsXvXVXZXvXvXsXpX;X .R L v 0 > . o 6 f _ _ _ _ d ;                       ",
"                              K a 9 9 9 q 0 > 4 / B.r.l R E q.C.H.y.y.H.C.H.A.J.C.A.A.;X:X4XsXaX7X4X>XA.E k v c 0 @ . + ; t d K K K d y o                       ",
"                                K a q q q 0 4 3 V V.B.Y v { o.y.y.q.q.u.A.H.C.:X:XJ. .{ } C.:X;X;Xu.} R v j 4 8 $ . + - y s f d K K s ;                         ",
"                                  b c c q 0 0 4 w / G.r.c { o.o.o.y.q.u.A.u.C.J.:X:XH.u.e.e.e.q.q.R R c j > % % O & < t s f f f d f e o                         ",
"                                    K c q q 0 0 4 J M.F.c L y.y. .i.u.u.A.C.H.H.H.J.J.H.u.u.q.q.} J c 0 5 O X + = < t s f f s s f t ;                           ",
"                                      K c q k q 0 q J / 0 b o.A.y.u.H.H.H.J.;XJ.u.u.H.e.} } v v v j 1 % + X : ; e t u s f s s s p -                             ",
"                                        b c k q q 9 8 q 5 9 L o.q.u.H.H.;XH.u.q.{ { { v v j 2 8 8 > O . o - ; 6 y u p s s s s p 6                               ",
"                                          b c q q 9 9 5 6 , 0 b { o.y.y.y.| L b j c j j j 8 1 , $ . . X ; 6 6 r y p p p p p p e                                 ",
"                                              a a a 9 7 6 = $ 1 b b L L b 0 1 1 1 1 0 i 8 > > O . . X # < 6 6 y u p p p p u e                                   ",
"                                                a a a 9 7 , % % % $ @ @ @ $ , , , , 7 , $ O . . . O # = 6 r y i p p p p u                                       ",
"                                                  b a a i 7 # + X + O O . O $ % + % = # . X X + + & = 6 r i u u p p p t                                         ",
"                                                      f a 7 = = # # + o X X X X X o + + # # $ & & - < r u p p p p u                                             ",
"                                                          i 7 r < = & & & & & & & & ; ; ; ; ; ; - 6 r u p f p                                                   ",
"                                                              p u e < - = = ; ; ; ; - - - - - - 6 y u g                                                         ",
"                                                                  u u r e 6 < - - - < 6 6 6 e                                                                   ",
"                                                                                                                                                                ",
"                                                                                                                                                                ",
"                                                                                                                                                                ",
"                                                                                                                                                                ",
"                                                                                                                                                                ",
"                                                                                                                                                                ",
"                                                                                                                                                                ",
"                                                                                                                                                                ",
"                                                                                                                                                                ",
"                                                                                                                                                                "
};
