/* XPM */
static char *_fd10d5cf2fa42c2cd8d018a637a8463r5MWcQl9ELGGjS6j[] = {
/* columns rows colors chars-per-pixel */
"80 80 254 2 ",
"   c None",
".  c #0C0301",
"X  c #0B0701",
"o  c #130202",
"O  c #1B0402",
"+  c #1C0C0C",
"@  c #170A05",
"#  c #1A1008",
"$  c #230402",
"%  c #2B0402",
"&  c #230C0B",
"*  c #2B0C0B",
"=  c #270A05",
"-  c #370906",
";  c #291209",
":  c #381509",
">  c #391716",
",  c #2F1312",
"<  c #490603",
"1  c #480806",
"2  c #510D0B",
"3  c #44140D",
"4  c #48180A",
"5  c #56160C",
"6  c #441A1B",
"7  c #4B1B1D",
"8  c #471715",
"9  c #571917",
"0  c #580E10",
"q  c #621A15",
"w  c #4B231B",
"e  c #55251A",
"r  c #54260F",
"t  c #68271B",
"y  c #65321C",
"u  c #74321C",
"i  c #4C1B20",
"p  c #591A21",
"a  c #631923",
"s  c #6B1923",
"d  c #741D27",
"f  c #7A1A30",
"g  c #592723",
"h  c #563029",
"j  c #632C2A",
"k  c #6B2D29",
"l  c #672825",
"z  c #7D242B",
"x  c #762627",
"c  c #6D332C",
"v  c #643527",
"b  c #74322B",
"n  c #773829",
"m  c #683734",
"M  c #7B3C34",
"N  c #743A35",
"B  c #7E2031",
"V  c #7B422E",
"C  c #7C4434",
"Z  c #7B4638",
"A  c #6B4135",
"S  c #724B45",
"D  c #7D6454",
"F  c #911E2C",
"G  c #87252B",
"H  c #92262F",
"J  c #9B2A36",
"K  c #853B36",
"L  c #8D3231",
"P  c #A72B39",
"I  c #A4363B",
"U  c #B2323E",
"Y  c #81261F",
"T  c #83442D",
"R  c #834433",
"E  c #84433B",
"W  c #824B3B",
"Q  c #8C4C3C",
"!  c #8A4937",
"~  c #9C453B",
"^  c #934C3A",
"/  c #9B4A3A",
"(  c #974737",
")  c #8A513B",
"_  c #94523C",
"`  c #9C543C",
"'  c #9B593D",
"]  c #96442E",
"[  c #A3463B",
"{  c #A6473C",
"}  c #A3523D",
"|  c #A5593D",
" . c #B63744",
".. c #CA3A4A",
"X. c #8C4B43",
"o. c #8A4641",
"O. c #944D43",
"+. c #994A44",
"@. c #8C5343",
"#. c #895643",
"$. c #935443",
"%. c #9D5C43",
"&. c #9A5B4B",
"*. c #975748",
"=. c #9E5A51",
"-. c #A74A45",
";. c #B84949",
":. c #A65442",
">. c #A95544",
",. c #A35C43",
"<. c #AA5B45",
"1. c #A9574C",
"2. c #B7574C",
"3. c #A65B54",
"4. c #B85B54",
"5. c #A54E52",
"6. c #9C6149",
"7. c #986856",
"8. c #8D6253",
"9. c #AB644B",
"0. c #A56349",
"q. c #B2634C",
"w. c #B4674C",
"e. c #AC6B55",
"r. c #A86757",
"t. c #B46254",
"y. c #B46C53",
"u. c #BA6D55",
"i. c #BB6C5B",
"p. c #B86659",
"a. c #AB715A",
"s. c #B37155",
"d. c #B4755B",
"f. c #BC745A",
"g. c #BC7A5D",
"h. c #BA7557",
"j. c #987466",
"k. c #B86B62",
"l. c #BB7463",
"z. c #BC7C64",
"x. c #B97867",
"c. c #AC7464",
"v. c #C1524F",
"b. c #D54A56",
"n. c #C45452",
"m. c #CD5C5B",
"M. c #C95756",
"N. c #D35C5C",
"B. c #D8585D",
"V. c #C34B4F",
"C. c #E4565C",
"Z. c #E34D58",
"A. c #C36959",
"S. c #C3755C",
"D. c #C27B5D",
"F. c #CA7B5E",
"G. c #C9755A",
"H. c #D36956",
"J. c #DB5E61",
"K. c #E75C65",
"L. c #F25761",
"P. c #C96A64",
"I. c #D76565",
"U. c #C37463",
"Y. c #CB7663",
"T. c #C37C63",
"R. c #CC7D64",
"E. c #CC7C6B",
"W. c #C5776A",
"Q. c #D3796A",
"!. c #CA7D72",
"~. c #D77A75",
"^. c #CC6D71",
"/. c #ED656A",
"(. c #E36468",
"). c #F4656C",
"_. c #F2686D",
"`. c #F46870",
"'. c #E57B7A",
"]. c #BE8166",
"[. c #AF8374",
"{. c #B08566",
"}. c #C4835E",
"|. c #C48264",
" X c #CA8366",
".X c #C2836A",
"XX c #CC846A",
"oX c #CE896B",
"OX c #C78968",
"+X c #D38266",
"@X c #D4836C",
"#X c #DA846C",
"$X c #DC8A6E",
"%X c #D5896B",
"&X c #C88776",
"*X c #D58B72",
"=X c #DC8A73",
"-X c #DC8D7A",
";X c #D78676",
":X c #DB9276",
">X c #DD937A",
",X c #D59279",
"<X c #CE9375",
"1X c #E18D74",
"2X c #E48F7A",
"3X c #E5847A",
"4X c #E39276",
"5X c #E3937B",
"6X c #E9937E",
"7X c #E79A7A",
"8X c #E28B6E",
"9X c #EFA27E",
"0X c #E07E81",
"qX c #B99587",
"wX c #DB8A82",
"eX c #DC9482",
"rX c #DA9887",
"tX c #CB9A8A",
"yX c #E88A87",
"uX c #E59682",
"iX c #E69B84",
"pX c #EB9C86",
"aX c #EB9E8A",
"sX c #E99684",
"dX c #F29A89",
"fX c #F79696",
"gX c #F08C8B",
"hX c #D5A998",
"jX c #CDA392",
"kX c #ECA28C",
"lX c #E9A58A",
"zX c #F2A48C",
"xX c #F5A888",
"cX c #ECA393",
"vX c #E8A895",
"bX c #F2A692",
"nX c #F5AB93",
"mX c #FAAD95",
"MX c #F5AC9A",
"NX c #F9AD9A",
"BX c #FAA492",
"VX c #FBB195",
"CX c #F5B39C",
"ZX c #FBB29C",
"AX c #FCB99D",
"SX c #F6B79A",
"DX c #EBB291",
"FX c #D6B2A7",
"GX c #FCB3A2",
"HX c #FDBBA3",
"JX c #F8B3A5",
"KX c #EEB1A4",
"LX c #FEC2A7",
"PX c #E0C0B6",
/* pixels */
"                                                                      F.F. X X X X                                                                              ",
"                                                                4X7X7X7X9XxXxXxXnXmXZXAXnXzX7X,X X                                                              ",
"                                                          $X8X7XxXxXxXxXxXmXVXVXmXVXAXVXnXnXnXkXiX>XR.G.D.                                                      ",
"                                                      3X8X4X7X9X9X9XxXxXxXmXVXVXVXVXVXmXmXmXmXmXbXiX>X-X~.l.g.g.g.                                              ",
"                                              D.oX4X1X8X8X4X7X9X9XxXxXxXxXmXmXVXVXVXVXZXZXAXAXHXHXHXAXNXbXrX&XT.f.].}.                                          ",
"                                        Y.Y.#X$X$X$X$X$X$X4X7X9XxXxXxXxXxXmXVXVXVXVXVXAXAXAXSXSXHXLXLXHXHXJXMXcXiX<XOXD.D.                                      ",
"                                  $X+XG.R.+X+X+X+X+X#X8X1X4X7XpXzXxXxXxXzXmXmXmXZXZXZXAXAXAXAXAXHXLXLXLXLXLXHXCXMXvXlXrX,XT.z.                                  ",
"                                *X+XF.F.+X#X#X$X$X$X$X4X5X5XpXzXkXxXxXzXzXVXmXmXmXmXVXAXZXZXZXZXAXAXHXHXLXLXLXHXHXHXCXvXCXlX<X|.                                ",
"                              |..XY.F.+X+X+X5XbXbXbXbXmXmXmXVXmXnXbXnXnXbXmXMXmXbXbXbXkXnXzXkXkXkXiXlXCXSXHXLXLXLXLXLXHXHXLXSX<XE.                              ",
"                            D.T.W.R.R.R.+XR.zXHXHXHXHXHXHXSXSXSXSXSXAXVXmXmXmXmXkXkXkXiXiXiX>X>X-X@X#XnXSXSXHXHXHXHXHXHXHXHXHXAXkXg.                            ",
"                          }.D.Y.^.R.R.+X+XR.kXZXZXJXJXJXCXDXDXDXlXDXlXkXkXiXiXiX>X>X>X>X>X>X*X*X#X@X@XnXCXCXCXZXCXCXCXCXGXZXZXZXGXkXD.                          ",
"                        D.}.D.Y.Y.R.R.+X@X+XkXZXMXMXvXvXvXlXrXrX&X&Xz.l.d.e.e.e.e.e.e.d.z.z.z.z.z.U.E.nXZXZXCXCXCXJXJXJXJXJXGXZXNXGXkXXX                        ",
"                      D.S.S.S.S.S.Y.R.+X@X@XpXMXvXlXrXrXeXtX&X&Xx.c.a.r.6.) ) ) ) ) ) ) #.6.a.a.a.a.l.nXZXZXNXCXMXJXJXJXJXJXJXGXZXZXGXmXXX                      ",
"                    d.f.f.f.S.S.S.Y.R.+X#X#XiX>X,X<X&X.X.X[.x.c.a.7.#.Z n y y y y y y e y v A Z #.&.c.cXZXNXNXCXCXCXJXJXJXJXGXGXGXZXMXmXkXoX                    ",
"                  f.z.h.u.u.u.u.S.F.R.+X@X=X*Xz.z.z.z.d.r.8.#.Z A v v g e v v v h e w 4 : : 4 w v W 7.MXNXNXNXZXZXZXJXJXHXHXHXZXZXVXNXnXmXiX                    ",
"                  f.g.h.u.u.u.S.S.R.+X@X@X1XU.%.6.%.Q T V Z #.8.7.j.j.j.j.j.[.qXj.D S h > : : : 3 e S cXbXnXnXMXMXMXMXCXZXCXZXZXZXNXnXnXzXBXiX                  ",
"                Y.S.y.y.u.u.f.D.R.+X@X=X#X5Xy.T u u n ! &.a.[.qXtXtXjXjXjXjXFXPXjX[.D h : ; ; : - : m rXkXbXbXbXbXbXbXbXbXcXkXkXkXaXaXaXzXzXkX,X                ",
"              U.U.u.y.h.f.f.T. XXX+X@X=X;XsX:.u T Q 0.d.].&XtXjXhXhXhXFXFXFXFXFXqXj.S w ; ; : : : 8 m rXaXkXaXaXaXpXpXpXpXpXpXpXiXiXiXaXpXpXkXpX*X              ",
"              T.y.y.y.h.g.g.T.|.XX@X=X=X5XuXy.0.z.<XrXvXvXvXvXhXvXvXFXFXFXFXFXhX[.D h : = : : : : 3 m rXiXpXaXaXaXpXpXpXpXpXpXuXuXuXiXaXkXkXzXkXiX              ",
"            f.u.y.y.u.h.g.g.T. XXX=X=X5X2XsX>XiXnXZXGXHXGXMXvXvXvXvXhXhXhXhXhXqX7.A 8 - % : : : 3 4 c wXuXuXpXaXaXpXpXpXpXpXpXzXzXzXkXbXnXnXnXzXmXlX            ",
"            T.y.y.y.f.g.S.T.oX*X*X-X5X5XuXpXzXnXnXnXnXbXkXaXrXrXiXrXrXjXjXtXtX[.#.v r - - - 4 4 5 5 c eXaXaXaXkXnXnXnXnXnXnXnXnXNXNXNXNXmXmXmXmXVXbX            ",
"          D.S.y.y.y.f.D.T. X%X*X>X5XuXuXuXpXzXzXzXzXaXpXuXeX-XeXeXeXrXtX<X<X&Xc.W y r 4 4 4 r r t t M eXaXaXkXnXNXmXNXNXNXNXNXNXNXNXNXNXNXmXmXNXMXNX5X          ",
"          D.f.y.y.y.g.T. XXX*X>X5XuXuXuXuXpXdXaXpXpX5X5X-X-X-X-X-X-X&X&X&X&X.Xd.6.V y y y u T ! _ _ 0.iXaXaXnXNXmXNXNXNXNXNXNXNXNXNXNXNXNXNXNXNXNXNXmX%X        ",
"          G.u.h.h.S.T.XX@X*X*X:X5X5X5X1X5X5X6X6X5X2XsX6X5X6X6X5X2X5X=X@X@XT.T.T.g.s.9.0.%.` ,.9.y.y.g.iXaXaXbXnXMXNXVXVXZXZXZXGXGXGXJXGXGXGXGXGXZXZXZXiX        ",
"        g.h.g.S.D.T.XX%X*X*X*X*X:X=X=X=X=X1X5X1X1X1X5XsX6X6X6X5X2X2X1X#X+X+X+XXXR. X XT.g.f.f.f.u.u.T.aXzXbXbXnXMXNXNXNXJXJXJXGXGXGXGXGXGXGXGXNXNXMXNXnX X      ",
"        ].T.T.T.T. XXX*X*X*X*X*X*X=X=X=X=X=X=X=X=X=X1X2X6X2X2X2X2X2X1X=X@X@X@X@X@XoXXXXXT.T.U.f.f.u.T.kXnXnXnXMXMXNXZXZXGXJXJXGXJXJXMXMXbXcXcXaXuXuX>X-X@X      ",
"        .Xz.g.g.T. XXX XXXXXXXXXXX@X#X=X=X=X=X=X=X#X=X#X#X#XQ.#X#X@X@X@X@X@X@X@XR.R.R.D.h.y.9.<.q.q.f.zXZXZXZXZXGXGXGXGXJXMXMXMXcXcXaXeX,X;X&X!.E.U.k.i.i.T.    ",
"      ].].g.g.g.D.D.T.T.T.R.R.R.R.E.@X@X@X@X@XQ.Y.G.G.G.G.A.A.A.A.A.S.G.G.G.G.S.u.y.y.9.<.,.` ` <.<.S.bXVXZXZXZXZXZXZXNXnXcXcXrX,X&X!.l.k.i.t.t.9.1.1.1.1.f.    ",
"      |.OXg.g.h.h.h.h.h.g.T.T.T.T.T.E.XXXXoXXXY.A.q.q.q.<.| } } / / ] ] ] ] ] ] ] ( ( ( ( ( / } <.y.Q.nXGXJXMXMXMXMXcXcXiXeXwX&Xx.k.r.3.&.*.O.*.O.Q ^ O.+.i.T.  ",
"      oXOXg.h.s.y.s.s.s.s.g.z.z.z.T.T.T..X.X.XR.R.Y.S.u.u.q.,.} } ` } } } >.>.>.2.2.2.q.A.A.G.Y.Q.=XsXbXMXcXrXwX&X&Xx.k.r.3.&.O.E K E E M M C C C C C R R ^ U.  ",
"      oXOXg.h.s.e.s.s.s.s.g.g.z.z.z.z.z.z..XT.R.R.E.R.U.G.f.u.S.S.Y.+XE.R.=X=X=X6X6XsXdXdXBXBXzXdXsXuXwX;X&Xx.l.k.3.=.O.E M M b b b k c b c c N N N C M M M f.  ",
"     XoXOXg.g.d.d.d.d.d.d.z.z.z.z.z.z.z.T.T.T.T.U.S.f.u.u.u.u.f.S.T.Y.R.R.=X=X1XsX6X6XdXdXaXaXeX-X;X!.W.k.r.=.O.Q E M b k k l k k j c m N N N Z S S Z Z Z M e.  ",
"    oXoX|.z.z.z.z.z.z.z.]..X.X.X.X.Xz.z.z.z.T.T.l.h.h.h.f.f.g.T.R.R.XX@X=X2X5X5XdXsXsXsX2X-X;X&XW.x.i.3.*.E K b b c c j j j j j j j m m N S S S S S A m N c &.  ",
"    OXoX|.|.|.|..X.X.X.X.X.X.X.X.Xz.z.x.z.x.z.z.l.d.z.z.T.T.R.XX*X*X=X=X=X5X5X5XsX5X1X#XQ.E.k.r.3.=.O.Q K b x t x j j j j g 7 7 i i g g j m m h g h w 6 7 8 Z   ",
"    oXoX|.|..X|..Xz.z.z.].].z.z.].].z.l.l.x.x.l.x.z.W.&X*X*X,X>X>X>X>X5X5X5X5X-X#X@XE.i.p.t.3.*.O.O.E M b k l l l g g g w 6 : - - - , > > > > > , * = $ % * m x.",
"  |.oX X|.g.z.z.z.d.a.a.d.d.e.a.d.l.d.d.l.x.x.x..X&X&XrXeXeXrXeX>X>X>X-X-X;X;XE.U.l.p.3.&.*.Q E K n k l e 9 9 9 8 8 > : : = $ $ $ = = & & & & & + O O $ $ + h c.",
"  |. XOXD.g.d.d.d.a.e.0.%.6.&.6.0.r.e.a.l.x.z..X&X<XrXrXrXrXrXeXeXeX,X-X-XW.l.k.r.r.=.O.X.E M c l 9 4 3 : - - - - * = $ O O O O O O O O o o O O O O O $ $ O w c.",
"  T.|.T.h.e.9.9.0.0.&._ Q ! ! Q ) $.&.0.e.x..X.X.X&X&X&X&X&X&X&X!.!.x.l.k.r.3.=.O.X.E N k g w 8 - % % % % $ $ $ $ O O O O O o o o o o o O O O O O O O $ = & 4 a.",
"  T.|.g.s.9.0.0.%.&._ ) ! T T R ! ! Q $.&.0.r.r.r.r.r.r.a.k.k.r.r.3.3.=.*.X.o.E M N c l 9 3 * % $ $ O O O O O o o o o o o o o o o o o o o o O O @ O $ = = ; 4 7.",
"oXT.|.h.y.9.' %.%._ _ Q ! R n V R R R ! ! ! Q Q Q Q Q Q O.O.X.X.o.K E K M M N c l g e 8 - % $ O O O O o o o o o o o . . o o . . . . o o o O O O @ O $ $ = * 4 7.",
"oXT.|.h.y.9.0.%.' ' _ ) Q ! T T V V C C R M n n n n n b b n n n b b c k k k l l 9 8 : - % % $ O O o o o o o . . . . . . . . . X X @ @ O O O $ $ $ $ = = % - 4 7.",
"oXT.|.g.h.9.9.0.,.%.' _ ) ! T T R V R R n n u u t t t 5 5 5 5 5 5 5 9 5 9 9 9 2 1 - - % % $ $ $ O o o o o o . . . . . . . . . X @ + + & & * * * * , * : : 3 4 7.",
"oXT.|.D.h.y.9.9.0.0.%.,.0.%.$._ $.$.$.$.Q ! R K b t q 5 2 2 2 < < < < < < 1 < < - - - % % % $ $ O + + @ o o . . . . . . . . . @ # & & * , , > > > > > 3 8 8 r a.",
"oX|.OX|.T.D.f.u.y.y.y.y.y.e.e.e.0.0.r.r.r.9.3.3.O.! K t q 5 5 5 5 2 2 2 < < < 1 - - - % % % = * & & + + + + o . . . . . @ @ @ # ; , , , > > 6 6 7 7 7 7 7 9 k x.",
"  |.OX X|.|.|.T.g.g.g.g.z.z.g.d.s.p.i.i.l.U.W.W.l.k.3./ K n b t t 9 5 2 2 < < 1 1 - - % % % = * & & + + + + + @ @ @ @ @ # # # ; , > > > 6 6 7 i 7 i w e p t n z.",
"  }.oXoXoXoXoX XT.T.T.T.T.T.T.l.f.i.U.U.U.W.E.!.~.~.W.p.*.! E n x t q 5 2 < < < 1 1 - - - - = = * & & + + + # + + @ @ @ # # & , > > 6 6 7 7 7 i p p g g l l R g.",
"  D.oX*X*X*X,X*XXXoX@XoXXXXXE.T.U.U.U.U.U.U.U.W.E.~.~.!.W.k.t.5.+.K K x x q 0 2 2 < 1 1 - - - - - ; ; ; ; ; & & & & & & & * , > > > 6 7 7 7 p p p p p l l l _ }.",
"    |.:X:X>X>X:X*X*X*X*X*X*X*X@XE.R.U.U.p.p.p.i.E.;X-XyXyXyXyXwX!.W.k.3.+.K z x q 0 2 2 2 3 3 3 : : : : ; ; ; * * * * * * , > > 6 6 7 7 7 9 p p p p a l k x 0.  ",
"    OX:X>X>X>X>X:X:X:X:X:X>X-X=X#X@XY.U.p.t.t.p.U.E.;X;X;X3XyXyXyXyXyX~.^.4.5.+.K x 9 0 2 2 5 4 3 3 : > > > > , , : : : , > > 6 6 7 7 p p p a a a a a s l x y.  ",
"      *X>X>X>X>X>X:X:X:X:X>X>X=X=X@XR.U.i.p.4.p.p.p.U.W.Q.~.'.yXgXfXfXfXyXwX~.^.k.+.K x 9 2 5 5 4 3 3 3 8 6 6 6 8 > > : 8 6 7 7 i p p p a a a a a a s d d K S.  ",
"      *X:X>X>X>X>X:X:X:X:X5X5X5X=X=XE.R.i.t.t.4.4.t.t.i.P.P.Q.~.yXfXfXfXfXfXfXgX0XP.5.o.x q 2 2 2 4 3 3 8 g g g g w 6 8 7 7 7 7 7 p p a a s s s s s d d d K Y.  ",
"      %X$X5X5X5X5X5X5X5X5X5X7X6X5X1X@XQ.A.t.t.2.1.1.2.4.p.P.Y.Q.~.yXgXgXfXfXfXfXyX~.k.5.K x q 5 5 5 5 9 e g j j g g g w w w 7 7 9 9 p a s s s s s d z d d >.    ",
"        4X4X5X5X5X5X5X5X5X5X7X6X5X5X#X+XG.q.q.<.>.:.>.1.4.p.A.P.Q.~.3XyXgXfXfXgX0X~.^.k.5.K x x t t l k k k N b k j g g g g g g g g l l s d d d d d B f G u.    ",
"        5X7X>X5X5X5X6X6X5X5XiX7X5X5X#X+XS.q.2.>.} } :.>.2.4.t.p.P.Q.~.~.3XgXgXgX'.'.'.^.k.-.K K K K K K K K K M N c v j j j l l l l k x x x x d d d f f o.      ",
"        oX5X>X>X5X5X6X5X5X5X5X4X=X=X%XR.S.u.q.<.:.} :.>.>.2.2.4.p.A.P.Q.~.~.'.'.'.'.'.'.~.P.2.-.+.( Q O.O.+.O.o.K M N c k k k k k x x z z z z x x d G f 3.      ",
"          7X:X>X>X5X5X5X4X4X5X1X$X@X+XR.S.u.q.q.<.>.>.>.>.1.1.1.2.4.A.A.P.^.Q.I.(.(.(.I.I.P.4.-.-.~ ~ +.+.+.o.K K b k k k k x x x x z z z z z z x x G L         ",
"          OX:X>X5X5X5X4X4X4X4X1X$X@X+XR.S.u.q.y.q.<.:.:.:.>.>.>.1.2.4.4.A.P.P.P.J.J.I.I.I.I.M.2.-.~ ~ ~ ~ I L G z x x x x x x x x z G G G G z z z z Y L         ",
"          ].:X>X5X4X1X4X4X4X4X=X$X%X+XR.S.S.u.u.y.q.>.:.:.} } } :.>.2.v.;.v.M.m.m.N.m.m.I.I.m.n.;.I I J L G G G z x x x x x z G G G G G G G G G G G G           ",
"            *X>X5X4X1X1X1X1X=X$X%X XR.R.T.S.f.u.y.q.>.:.:.} } / [ { ;.;.;.;.;.v.n.M.m.m.m.I.I.M.v.;.U I J H G H H G G G G G G H H H H H H H H F F F             ",
"             X>X5X4X1X1X=X=X$X%X+XR.R.R.T.S.f.u.y.q.>.:.:.} / / / [ { { { { ;.;.;.;.n.m.N.N.I.N.M.n.;.;. .I I I I I I I I I I J J J P P J J J H F F             ",
"              oX=X#X8X$X$X$X#X+XR.F.F.R.S.f.y.y.q.9.>.:.} / / / ~ ~ [ { { { { { ;.;.v.n.M.N.N.N.m.m.M.V.;.;.;.;.;.;.;.;.;.;. . .U P U P P P P P F               ",
"                  1X#X+X%X%X+XR.F.G.S.D.S.f.y.y.9.9.,.} ` / / / ~ ~ [ [ [ [ [ { ;.;.v.v.n.M.N.N.N.N.M.M.M.m.N.N.B.B.B.B.B.b.b.V... . . .U  .U U                 ",
"                    $X%XR.R.R.F.S.u.u.f.f.h.y.y.9.<.` ` / / / / ( ( ~ [ [ [ [ { ;.;.2.v.v.n.N.N.N.N.N.N.B.J.K.(.(.(.(.K.K.K.K.C.b.b...........                  ",
"                      +XF.F.D.S.u.u.u.w.y.y.y.w.9.,.` _ ^ ^ ^ ^ ( ( ~ ~ [ [ [ [ -.;.2.v.n.n.M.m.N.N.N.B.K.C.K./.`.`.`.`.`.`.`.K.K.Z.b.b.....Z.                  ",
"                        R.S.S.u.y.y.w.9.y.y.y.9.0.,._ ^ ^ _ _ ^ ^ ^ ~ ~ ~ ~ ~ [ [ -.2.2.2.n.n.M.N.N.N.B.C.C.K./.`.`._._.`.`.`.`.)./.K.C.Z.L.                    ",
"                        D.S.u.y.w.w.9.0.9.9.9.0.,.%._ ^ ^ ^ _ ^ ^ ^ ( / / / / / / :.-.2.2.2.n.n.m.m.m.B.B.B.(./._._._._._._.).).).).).K.C.C.                    ",
"                          u.u.w.9.0.,.| ,.9.9.9.,.` _ ^ ^ _ _ ^ ^ ^ ^ ^ ^ ( ( ( / / / -.-.-.;.2.n.M.m.N.B.B.B.(././././.)._.).).).).).)./.                      ",
"                            y.q.0.| | | ,.,.,.0.%.` _ _ _ _ _ ^ ^ ^ ^ ^ ^ ^ ^ ^ ^ ( / [ [ { -.-.;.4.n.m.N.N.B.I.(././.).)._._.).).).).).                        ",
"                              q.| | >.,.| ,.,.,.' _ _ _ _ _ _ _ _ _ ) Q ) ) ) ^ ^ ( ( ~ ~ ~ { -.-.;.;.2.M.M.N.I.(.(.(././././././././.                          ",
"                                | <.} } ' ' &.%.' _ _ _ _ _ _ _ $.$.$.$.$.$.$.$.^ ( ( O.+.+.-.-.-.-.-.;.v.M.M.N.I.I.I.I.I.(.(.(.(.I.                            ",
"                                  w.q.| ` ' ' ' _ _ _ _ _ $.$.$.$.$.$.*.*.*.*.*.O.O.O.O.O.+.-.-.-.1.1.;.2.n.M.M.m.N.N.N.I.I.N.H.H.                              ",
"                                        ,._ _ ' _ _ _ _ _ $.$.$.$.$.&.&.&.&.&.&.*.*.*.*.*.O.-.-.5.1.4.4.4.4.4.4.4.4.4.4.4.m.A.H.                                ",
"                                            *._ _ _ _ _ _ $.$.$.$.$.&.&.&.&.&.&.$.$.$.*.*.O.+.-.5.1.4.p.p.p.p.p.t.4.4.4.t.i.i.                                  ",
"                                              _ _ _ _ _ _ $.$.$.$.$.&.&.&.&.&.&.$.$.$.@.@.O.^ +.+.5.3.3.t.t.t.t.t.t.t.p.l.                                      ",
"                                                ` $.%._ $.@.@.$.*.*.*.*.*.*.*.*.#.@.@.X.o.Q Q Q X.X.X.O.*.3.3.3.r.e.S.S.                                        ",
"                                                    O.O.Q @.@.@.@.#.#.#.#.#.#.#.) ) ) W W W E Z Z C C K E X.+.*.r.d.                                            ",
"                                                        O.X.@.@.Q @.@.@.#.#.#.#.W W W C C C C C C C M C E _ <.                                                  ",
"                                                            X.W W W W Z Z C Z Z Z W W C C C A V R Q R                                                           ",
"                                                                    Z C C W W W @.@.X.C C C #.r.r.                                                              ",
"                                                                                                                                                                "
};
