/* XPM */
static char *player_close_s[] = {
/* columns rows colors chars-per-pixel */
"40 40 199 2 ",
"   c None",
".  c #341205",
"X  c #3C1508",
"o  c #3E1306",
"O  c #431A0C",
"+  c #4D1C0E",
"@  c #5B2417",
"#  c #63211E",
"$  c #573223",
"%  c #653125",
"&  c #7B3E2B",
"*  c #7E3E30",
"=  c #793230",
"-  c #7B422C",
";  c #74402B",
":  c #694638",
">  c #744433",
",  c #7E4434",
"<  c #7D4835",
"1  c #7D4A3A",
"2  c #79473A",
"3  c #7C4F43",
"4  c #803D2E",
"5  c #823B33",
"6  c #823530",
"7  c #943A3A",
"8  c #A63B3E",
"9  c #85452E",
"0  c #834335",
"q  c #844833",
"w  c #8A4C33",
"e  c #844B3B",
"r  c #8A4A3D",
"t  c #884338",
"y  c #934B3C",
"u  c #95473D",
"i  c #8F503F",
"p  c #95533D",
"a  c #9A553F",
"s  c #905037",
"d  c #A24E38",
"f  c #A3523B",
"g  c #A35A3F",
"h  c #B03F43",
"j  c #8D4E40",
"k  c #934D42",
"l  c #9B4E44",
"z  c #9F4141",
"x  c #845445",
"c  c #8D5443",
"v  c #8C5A48",
"b  c #945343",
"n  c #9A5243",
"m  c #965946",
"M  c #9E5A42",
"N  c #9D5349",
"B  c #935A48",
"V  c #9A5B4A",
"C  c #A34D45",
"Z  c #A84946",
"A  c #B64E4E",
"S  c #BB474B",
"D  c #A25245",
"F  c #A45C44",
"G  c #A95D44",
"H  c #A3544A",
"J  c #AB524C",
"K  c #A35C4C",
"L  c #AA5B4C",
"P  c #B0514D",
"I  c #B8504F",
"U  c #AD5C52",
"Y  c #A75C50",
"T  c #BB5252",
"R  c #B35C55",
"E  c #B85A56",
"W  c #8C6253",
"Q  c #9E6452",
"!  c #9B6656",
"~  c #AA6147",
"^  c #A4624A",
"/  c #AC634B",
"(  c #B0644B",
")  c #B1694F",
"_  c #AC6254",
"`  c #AD6B52",
"'  c #A4665A",
"]  c #AC665B",
"[  c #AB6B5D",
"{  c #A66957",
"}  c #B36454",
"|  c #B46B53",
" . c #BA6D55",
".. c #B26559",
"X. c #B36B5D",
"o. c #BB6C5B",
"O. c #B96658",
"+. c #B87057",
"@. c #BB735A",
"#. c #BB795D",
"$. c #B67659",
"%. c #AC6F62",
"&. c #B86E60",
"*. c #AA7261",
"=. c #B57263",
"-. c #BA7666",
";. c #BE7B63",
":. c #BC7B6B",
">. c #B27A68",
",. c #C25B59",
"<. c #C65657",
"1. c #D5555C",
"2. c #E05B5E",
"3. c #C4625C",
"4. c #CB655D",
"5. c #C26C5C",
"6. c #D1645E",
"7. c #C2745C",
"8. c #C5795E",
"9. c #C87A5F",
"0. c #E45E62",
"q. c #DD6462",
"w. c #C37462",
"e. c #C37C62",
"r. c #CA7B63",
"t. c #C37668",
"y. c #CD7E69",
"u. c #C4786A",
"i. c #D07F66",
"p. c #D07E68",
"a. c #E26162",
"s. c #BD816F",
"d. c #BB8374",
"f. c #C58064",
"g. c #C88265",
"h. c #C3826A",
"j. c #CC846A",
"k. c #CB896E",
"l. c #D4846C",
"z. c #D8876A",
"x. c #D3896E",
"c. c #DB8A6E",
"v. c #D08067",
"b. c #C48272",
"n. c #CB8574",
"m. c #CC8976",
"M. c #CD8C79",
"N. c #D48771",
"B. c #D48A72",
"V. c #DB8C74",
"C. c #D28E79",
"Z. c #DB8E7A",
"A. c #DC9175",
"S. c #D5917D",
"D. c #DC927A",
"F. c #DA957B",
"G. c #E0886C",
"H. c #E38E79",
"J. c #E19276",
"K. c #E2937B",
"L. c #E5997B",
"P. c #E99E7F",
"I. c #B19185",
"U. c #C79783",
"Y. c #DB9482",
"T. c #DD9884",
"R. c #D09C8B",
"E. c #E39681",
"W. c #E49A85",
"Q. c #E99D85",
"!. c #E99E8A",
"~. c #CFA89B",
"^. c #D1A393",
"/. c #D2A89A",
"(. c #ECA28C",
"). c #E5A18A",
"_. c #F2A58C",
"`. c #F8AC8E",
"'. c #F6A889",
"]. c #EFA590",
"[. c #ECAA94",
"{. c #EFAD98",
"}. c #F1A691",
"|. c #F4AA94",
" X c #F9AF94",
".X c #F5AD9A",
"XX c #F8AE9B",
"oX c #FAB194",
"OX c #F6B29C",
"+X c #F9B29C",
"@X c #FAB69E",
"#X c #FAB499",
"$X c #FCB99D",
"%X c #F3B195",
"&X c #D8AFA0",
"*X c #D9B2A7",
"=X c #FAB5A1",
"-X c #FDBBA3",
";X c #FFC2A8",
/* pixels */
"                                  V.A.J.L.                                      ",
"                            c.L._.'.`.oXoXoX X|.W.l.e.                          ",
"                      l.V.G.c.P.(.'.`. XoX#X@X$X-X-X|.F.k.e.                    ",
"                x.r.l.l.z.c.L.(._._.|. X+X@X$X$X$X-X;X-XOX[.F.h.                ",
"              e.r.v.l._..X.X#X#X|. X}.|.(.(.).W.K.).@X-X-X-X-X%XB.              ",
"            e.8.r.y.l.|.OX{.{.).T.A.k.j.e.h.k.g.g.T.+X+XOX+X@XOX[.n.            ",
"          #.7.8.9.y.l.).T.M.M.:.*.V q - ; ; < v Q C.=XOXOXOX=X=X|.).k.          ",
"        @.@. . .8.j.B.#.` M c x x 3 3 W : $ X O % s.+XXXOXOX=X=XOX].W.          ",
"        7. .@.e.j.x.V.y & b >.U.^././.*XI.: . . X ' |..XOXOX=X=XOX].Q.E.        ",
"      +.|  .#.g.x.V.K.e.T.|..X[.[././.~.W O . X O ' }.|..XOX=X@XOX}.(.).Q.      ",
"      @.| #.e.B.Z.L.W.(.}.(.W.E.T.R.R.d.> O o + @ ' (.}.|..XOXOXOX}.(.(.}.      ",
"    8.@.+.e.k.V.L.K.K.W.E.K.K.K.D.B.j.e.^ w 9 p b X.(.].|.|..X.XXX}.(._.}.Q.    ",
"    #.e.e.j.B.B.V.V.V.V.V.K.K.K.H.V.l.l.j.g.e.7.` ;.!.(.}.|.|..X|.}.}.].(.Q.    ",
"    ;.#.e.g.g.g.j.z.l.l.p.i.r.r.r.r.r.r.r.r.7.o. .X.e.y.V.W.(.}.|.|.}.].W.B.r.  ",
"    e.@.@.@.#.e.e.r.g.r.7. .( g f d f d d d d f f f G | w.N.E.(.}.}.}.}.(.D.e.  ",
"  g.e.$.@.@.#.;.;.;.e.e.r.w.@.@.7.8.r.e.p.l.l.V.V.Z.K.K.K.E.W.(.}.}.}.].].W.;.  ",
"  j.g.e.e.e.h.h.h.;.;.e.#.#.;.e.e.g.j.l.B.V.V.V.B.N.j.u.t.u.M.T.!.(.(.(.!.Y.%.[ ",
"  j.g.e.e.#.#.$.;.#.-.-.:.m.M.C.Y.F.S.S.S.C.C.B.n.t.=._ _ X.:.M.T.W.W.T.S.M.Q ! ",
"  g.$.` ` K p p V { =.h.b.m.b.b.:.:.-.=.=.X.X...] _ U U U _ X.-.b.m.m.b.>.[ 2 3 ",
"g.e.| M M s 9 - q r b V b r r 0 0 0 , , 0 t k k H L R } R U U _ ] ] [ ' v > O 2 ",
"g.e.) ^ M s w 9 - 0 & & & * & 4 & * 0 t u l N H L } } } } U L K N n k r % @ + > ",
"g.g.#.| / / / ^ M K K L _ _ } ....X.o.o.O.O.O.O.O.} } } U L H N l l u u 5 = # c ",
"g.j.g.g.e.e.;.;.o.&.w.t.t.w.w.7.o.o.o.o.o.o. .| | } / L F n n n D C Z Z Z 7 6 V ",
"  k.V.S.B.B.l.j.r.w.w.7.7.7.5.5.5.o.o.o. . .| } / / G F n n n N J J A A A Z 7 _ ",
"  j.A.F.D.D.D.V.l.r.w.r.r.8.8.7.@. . .| | } / / L G F a n n n C J A T T T A z U ",
"    A.D.K.D.J.L.V.l.l.y.r.8.8.7. .| ) / / ~ F F n n n b n N C C J P T ,.,.T 8   ",
"    J.D.L.L.K.L.K.l.l.r.8.8.7. . .( G F n p p b b b b n n n C D J P E ,.,.S Z   ",
"    A.D.L.L.J.K.c.i.e.8.7.@. .| ) / F a p p p b b b b n n n l H J J E ,.<.h 8   ",
"      D.K.J.J.A.l.9.7.@. .| | / / F b p p b b b b n b n n l l N J R E ,.<.S     ",
"      B.D.V.V.c.r.7. .| ( / / G F n p p b b b b b n n n n l l H J R ,.1.1.2.    ",
"        V.l.z.l.7.| / / / F F n p p p p b b b b b n n n b l N H U E 6.a.0.      ",
"          l.r.8.| / ~ ^ F F a p p p b b b b b b n n n k k k N H R 3.q.a.        ",
"            8. .( G F F M n p p p b b b m b n n n n k k k l H R 3.6.q.          ",
"              | G G F M n p p p p b b m b b b b b k j j k H R 3.4.6.            ",
"                G F g M n p p p b b m m m b b b j r r j n L } 3.4.              ",
"                  F a b p p p b b b V V m B c j r r r k H U O.4.                ",
"                      n p n b b b m V V c c e e e r b N K _ @.                  ",
"                        n b r c B B B B c e 1 1 e t k N `                       ",
"                              j r e e e e < , , r t                             ",
"                                        !                                       "
};
