/* XPM */
static char *player_open_s[] = {
/* columns rows colors chars-per-pixel */
"40 40 226 2 ",
"   c None",
".  c #0C0301",
"X  c #140302",
"o  c #1B0503",
"O  c #1C0B0A",
"+  c #160A06",
"@  c #1A1008",
"#  c #220503",
"$  c #2A0503",
"%  c #240806",
"&  c #2D0905",
"*  c #260C0B",
"=  c #2A0C09",
"-  c #340A06",
";  c #3C0E09",
":  c #340905",
">  c #2B110C",
",  c #25100C",
"<  c #3A150C",
"1  c #331309",
"2  c #2E1211",
"3  c #3E1818",
"4  c #391614",
"5  c #490906",
"6  c #43130B",
"7  c #491A0D",
"8  c #53130C",
"9  c #58150E",
"0  c #4B1C1C",
"q  c #451816",
"w  c #591D1A",
"e  c #550F0D",
"r  c #67191B",
"t  c #58231E",
"y  c #65251C",
"u  c #6A271E",
"i  c #5C1A22",
"p  c #541A20",
"a  c #6B1A24",
"s  c #631923",
"d  c #751E27",
"f  c #7B1C30",
"g  c #5E2A26",
"h  c #582824",
"j  c #632422",
"k  c #602A23",
"l  c #692B28",
"z  c #752427",
"x  c #7B252A",
"c  c #742A29",
"v  c #752826",
"b  c #6C322D",
"n  c #75332C",
"m  c #793729",
"M  c #693C37",
"N  c #7C3C34",
"B  c #753731",
"V  c #7B422D",
"C  c #724130",
"Z  c #7B4334",
"A  c #78473A",
"S  c #644137",
"D  c #7B5144",
"F  c #911E2C",
"G  c #84252B",
"H  c #88292B",
"J  c #962B33",
"K  c #982A33",
"L  c #993837",
"P  c #863332",
"I  c #A72F3A",
"U  c #AE303D",
"Y  c #84452D",
"T  c #834634",
"R  c #86443A",
"E  c #89453C",
"W  c #844B3C",
"Q  c #8A4C3C",
"!  c #874B33",
"~  c #944C3A",
"^  c #9C4A3B",
"/  c #9C4839",
"(  c #8D523F",
")  c #94523C",
"_  c #9A563D",
"`  c #A4473B",
"'  c #A24C3D",
"]  c #A35A3F",
"[  c #A3553F",
"{  c #B33741",
"}  c #CA3A4A",
"|  c #8A4C41",
" . c #954C44",
".. c #9A4941",
"X. c #934641",
"o. c #8A5545",
"O. c #935443",
"+. c #9D5A44",
"@. c #9A5A4B",
"#. c #995549",
"$. c #9E5A50",
"%. c #A74943",
"&. c #AE4944",
"*. c #A94B47",
"=. c #BB4C4B",
"-. c #B44B48",
";. c #A65441",
":. c #A35D44",
">. c #AC5449",
",. c #A15D4A",
"<. c #AE5B48",
"1. c #A75446",
"2. c #B6564D",
"3. c #A85C53",
"4. c #B85951",
"5. c #8C6254",
"6. c #9E6551",
"7. c #AB644B",
"8. c #A6644A",
"9. c #B1644D",
"0. c #A96857",
"q. c #B56255",
"w. c #B96255",
"e. c #B46B52",
"r. c #BB6D55",
"t. c #BA645B",
"y. c #BA6C5B",
"u. c #B1695E",
"i. c #B97156",
"p. c #B4745B",
"a. c #BC745B",
"s. c #BC795D",
"d. c #B77256",
"f. c #AA715F",
"g. c #BA6F61",
"h. c #BC7B63",
"j. c #B97665",
"k. c #D64955",
"l. c #C45352",
"z. c #C85253",
"x. c #C75A57",
"c. c #D35C5D",
"v. c #DE575D",
"b. c #C4474E",
"n. c #E7545C",
"m. c #CD635C",
"M. c #C2745C",
"N. c #C37A5F",
"B. c #CB7B5F",
"V. c #DB5E62",
"C. c #E65C63",
"Z. c #C46C60",
"A. c #D66665",
"S. c #C47663",
"D. c #C37C63",
"F. c #CB7C64",
"G. c #C27B6A",
"H. c #CA7C6B",
"J. c #CB7567",
"K. c #D17B68",
"L. c #D67A73",
"P. c #CD7070",
"I. c #EB646A",
"U. c #E46468",
"Y. c #F3666C",
"T. c #F3686E",
"R. c #E27474",
"E. c #BF8067",
"W. c #B98677",
"Q. c #C3805E",
"!. c #C48164",
"~. c #C98267",
"^. c #C28269",
"/. c #CB846B",
"(. c #CC886C",
"). c #D18166",
"_. c #D4846B",
"`. c #D8856D",
"'. c #D2896E",
"]. c #D98A6E",
"[. c #CA8975",
"{. c #D88670",
"}. c #D48C73",
"|. c #DC8B73",
" X c #D28C7B",
".X c #DA8778",
"XX c #DC9175",
"oX c #DC927A",
"OX c #D3907C",
"+X c #E18E74",
"@X c #E28F7A",
"#X c #E3937B",
"$X c #E69679",
"%X c #C79784",
"&X c #DD9A83",
"*X c #DB9785",
"=X c #EB8B88",
"-X c #E69B85",
";X c #EA9B85",
":X c #EA9E89",
">X c #E99681",
",X c #F59493",
"<X c #F2968D",
"1X c #D1A797",
"2X c #CEA698",
"3X c #EDA28C",
"4X c #E3A58C",
"5X c #F2A68D",
"6X c #F5A889",
"7X c #EAA994",
"8X c #F5AA94",
"9X c #F9AD95",
"0X c #F4AD9B",
"qX c #F9AE99",
"wX c #F1A790",
"eX c #FAB196",
"rX c #F6B29D",
"tX c #FAB29C",
"yX c #F7B59B",
"uX c #EFB094",
"iX c #D6AEA0",
"pX c #D9B6AB",
"aX c #FAB3A3",
"sX c #FDBDA3",
"dX c #F7B2A0",
"fX c #FEC2A7",
/* pixels */
"                                  XXXX$X;X                                      ",
"                            +X$X6X6X6XeXeXeX9X8X-X`.S.                          ",
"                      ).].].+X$X6X6X6XeXeXyXyXyXsXsX0X*X(.!.                    ",
"                `.B.).`.`.|.#X;X5X6X8X9XtXyXtXtXsXsXfXsXrX7X&X^.                ",
"              D.F.F.).5XrXtXtXeX9XeX8X9X3X3X3X-X#X3XyXsXsXsXsXuX}.              ",
"            Q.S.J.~.).8X0X0XuX4X&X}.(./.D.^.(./.H.>XtXrXrXdXaXtXqX}.            ",
"          a.M.M.N.~.`.:X&X X[.h.f.@.T V V B Z o.6. XtXrXrXaXaXaXtXqXXX          ",
"          s.r.r.N.).{.s.0.,.o.o.o.D D 5.A h < 6 k W.8XqXqXdXtXtXtX8X5X          ",
"        M.e.i.D.~.{.@X~ m O.j.%X2X1X1XpXW.S > 1 < 0.3X3X3X3X3X:X:X:X3X-X        ",
"      a.e.i.s.D.'.|.#X~.&X0X0X7X7XiXiX2X5.q - < 6 0.-X:X:X;X;X;X:X3XwX5X3X      ",
"      a.e.a.D.'.oX#X-X5X5X5X-X*X&X*X%XW.C 7 6 7 w 0.:X3X9X9X9X9XqXqX9X9X9X      ",
"      i.i.D._.|.#X#X>X;X>X#X#X#X@X'./.h.8.! Y _ ,./.:X8XqXqXqXtXqXtXtXtXqX3X    ",
"    s.D.D.'.}.}.|.|.|.|.|.#X#X#X@X|.).)./.~.N.a.r.}.wX8XqXqXaXaXaXqX0X8X3X:X    ",
"    h.s.D.~.~.~./.`.{.`.K.K.K.J.J.F.F.F.M.a.7.:.<.|.tXtXtXtX0X7X&X XH.g.y.q.y.  ",
"    !.a.d.d.s.h.D.F./.F.M.e.7.[ ^ / ^ ^ %.;.<.9.M.-X0X:X*X XG.g.@.#.Q Q W Q #.  ",
"  (.!.p.p.p.s.h.h.h.D.D.S.M.a.a.N.F.`.|.>X;X3X:X>X.XG.0.#.E B n b b B B A Z N   ",
"  (.!.D.h.E.^.^.^.h.h.h.s.s.s.D._.`.+X#X>X@X{.G.u.,.R c b l k h h k M M M g g   ",
"  (.!.E.h.p.h.p.h.s.j.j.E.[.oXoXoXoXoX.XF.y.3.O.E n j t w 0 4 & & > 2 2 * # % o.",
"  ~.a.e.0.,.O.O.@.0.j.^.[. XOX X X/.S.u.@.| B g 6 ; & $ $ # o o X X X o o o % A ",
"~.s.e.:.+.) T V T Q O.@.@.@.3.$.#. .E N b h ; % o o X X X X X X . X X o o # = C ",
"~.s.e.8.+._ Q Y V Z N m c u y y y y j w 6 - $ # X X X . . . . . + O % % = = ; C ",
"~.!.a.e.7.7.7.,.+.@.+. .N u 9 8 5 5 5 5 - : $ % O O + . . . X + , = 4 3 q q 0 Q ",
"  (.~.~.h.h.D.s.y.a.S.H.J.q.R n y 9 5 5 5 : : = * O O O + + @ , 4 3 0 0 p t j +.",
"  '.|.XX'.'.'./.F.S.y.g.L..XL.J.3. .m r e 5 6 ; 1 1 > * * * = 4 3 0 0 i i j l 7.",
"  }.oXoXXXXXoX|.`.S.t.w.Z.H.{.=X=X=XL.4.X.j 8 8 6 < 3 3 4 < 3 q 0 p i s s a c   ",
"    XX#XoXoX#X$X|.K.w.4.<.w.Z.K.=X,X,X,XL.3.v 9 8 7 t g h 0 0 0 w i a a a d P   ",
"    $X#X#X#X#X$X#X_.r.<.;.1.4.t.K..X=X,XR.P.1.m n n B N b g g k k l z d d f ..  ",
"    XXoX#X#X#X#X{.).a.9.;.1.>.2.w.Z.P.L.R.R.P.>.^ .. .E N b l c v x x x z G     ",
"      oX#X@X@X+X`.K.M.e.9.;.;.;.>.4.x.m.c.A.A.l.%.L L H x z z x G G G G G H     ",
"      }.#X+X|.`.).F.N.i.e.;.;.^ ` &.&.=.=.x.c.c.l.{ I K K J J J J K J J F       ",
"        |.`.`.).B.N.M.e.7.;.^ ^ / ` ` ` -.l.x.c.c.z.l.l.z.z.z.b.{ { U U         ",
"          `.F.N.r.r.i.e.7._ ~ ~ / / ` ` -.2.l.c.c.c.C.U.I.I.I.C.v.k.}           ",
"            N.r.e.7.9.7.:.~ ~ ~ ~ / ^ / ' 2.2.l.c.c.v.I.T.T.T.Y.Y.C.n.          ",
"              e.8.] :.8._ ) _ ~ ~ ~ ~ ~ ^ ' %.-.4.c.c.V.I.I.Y.Y.Y.Y.            ",
"                ] ;.] +._ _ _ _ O.o.( ) ~ ~ ..%.&.-.z.c.A.A.U.I.U.              ",
"                    _ _ _ _ O.O.O.@.@.@.O.O. .%.>.2.4.x.x.x.m.m.                ",
"                      O._ ) O.O.O.@.@.@.O.O.O...1.3.q.w.w.4.y.                  ",
"                          O.o.o.O.O.O.O.( Q W W W E O.$.0.                      ",
"                              | Q Q W W W Z Z Z T Z                             ",
"                                                                                "
};
