/* XPM */
static char *acd56937ce0e4d52e8478ff7383e4e0f5f6xtmLhB8pE6VJv[] = {
/* columns rows colors chars-per-pixel */
"80 80 247 2 ",
"   c None",
".  c #360E02",
"X  c #381508",
"o  c #2D1204",
"O  c #451809",
"+  c #4A1A13",
"@  c #561B14",
"#  c #4C2617",
"$  c #582819",
"%  c #4E220C",
"&  c #65321C",
"*  c #6D3019",
"=  c #5A2C21",
"-  c #563628",
";  c #653525",
":  c #76392B",
">  c #7B3B2C",
",  c #763626",
"<  c #7A3832",
"1  c #6C302D",
"2  c #651D1C",
"3  c #7B422D",
"4  c #7C4533",
"5  c #7E4A39",
"6  c #7A4736",
"7  c #6A4134",
"8  c #745244",
"9  c #7E6354",
"0  c #893635",
"q  c #98393B",
"w  c #813230",
"e  c #A7383C",
"r  c #83452C",
"t  c #894A2F",
"y  c #844434",
"u  c #894335",
"i  c #8B4C34",
"p  c #844A3B",
"a  c #8B4A3D",
"s  c #884539",
"d  c #9B4A33",
"f  c #924B3E",
"g  c #974835",
"h  c #8A523B",
"j  c #94523D",
"k  c #99543E",
"l  c #9D5A3E",
"z  c #925237",
"x  c #97452F",
"c  c #A5553E",
"v  c #A55A3E",
"b  c #A14D37",
"n  c #AE3E41",
"m  c #8C4D41",
"M  c #854841",
"N  c #934D42",
"B  c #9C4E44",
"V  c #9B4744",
"C  c #855242",
"Z  c #8D5343",
"A  c #8B5846",
"S  c #945343",
"D  c #9B5243",
"F  c #955946",
"G  c #9D5A43",
"H  c #9D534A",
"J  c #945A49",
"K  c #995B4A",
"L  c #945748",
"P  c #985E52",
"I  c #815E52",
"U  c #A24E45",
"Y  c #AC4E4A",
"T  c #A64946",
"R  c #B44C4C",
"E  c #B8454A",
"W  c #A25346",
"Q  c #A45C44",
"!  c #AA5C43",
"~  c #A3534A",
"^  c #AB524C",
"/  c #A55B4C",
"(  c #AB5C4C",
")  c #AC5641",
"_  c #B4514E",
"`  c #B35B4A",
"'  c #A55D53",
"]  c #AC5C53",
"[  c #AF5652",
"{  c #BB5352",
"}  c #B35C55",
"|  c #BB5D59",
" . c #B75954",
".. c #BA4B51",
"X. c #9B614A",
"o. c #996455",
"O. c #8E6556",
"+. c #A46145",
"@. c #AA6146",
"#. c #A4624A",
"$. c #AC644B",
"%. c #AC6A4D",
"&. c #B2654D",
"*. c #B3694E",
"=. c #B46348",
"-. c #A46255",
";. c #AB6254",
":. c #AC6C55",
">. c #AE6559",
",. c #AC6B5B",
"<. c #A46759",
"1. c #B36454",
"2. c #B46B53",
"3. c #BA6C55",
"4. c #B4655A",
"5. c #B46B5B",
"6. c #BC6C5A",
"7. c #BB6357",
"8. c #A97159",
"9. c #B47155",
"0. c #BB7156",
"q. c #B4745B",
"w. c #BC745B",
"e. c #BC7A5D",
"r. c #B87A57",
"t. c #996E62",
"y. c #987B6E",
"u. c #AA6C60",
"i. c #B46C62",
"p. c #BB6F62",
"a. c #AA7565",
"s. c #B57363",
"d. c #BC7463",
"f. c #BD7B63",
"g. c #BC7C6B",
"h. c #B87769",
"j. c #BA7D71",
"k. c #A47970",
"l. c #C45C5A",
"z. c #C6575A",
"x. c #D7565D",
"c. c #CA494F",
"v. c #C3625B",
"b. c #CB645E",
"n. c #C16D5C",
"m. c #C86B59",
"M. c #D2675E",
"N. c #C3745C",
"B. c #C37B5E",
"V. c #C97B5E",
"C. c #C6775B",
"Z. c #D25E61",
"A. c #E55C62",
"S. c #C06E62",
"D. c #C76661",
"F. c #DB6462",
"G. c #C47362",
"H. c #C97662",
"J. c #C37C63",
"K. c #CB7C64",
"L. c #C47569",
"P. c #C47D6C",
"I. c #CB7D6A",
"U. c #C87568",
"Y. c #D17E66",
"T. c #D27E69",
"R. c #C57E72",
"E. c #E26362",
"W. c #E35E5C",
"Q. c #BB8169",
"!. c #BA8675",
"~. c #B08676",
"^. c #9D8678",
"/. c #C5815E",
"(. c #C58265",
"). c #CA8366",
"_. c #C3836A",
"`. c #CC846A",
"'. c #CD896A",
"]. c #D4846C",
"[. c #D9856E",
"{. c #D28A6D",
"}. c #DA8A6D",
"|. c #D58367",
" X c #DC926F",
".X c #C38273",
"XX c #CB8474",
"oX c #CD8B7A",
"OX c #C98A75",
"+X c #D38672",
"@X c #DA8770",
"#X c #D58B73",
"$X c #DB8B74",
"%X c #D38D7C",
"&X c #DC8D79",
"*X c #DB9275",
"=X c #D5927C",
"-X c #DC937B",
";X c #D79579",
":X c #C9957A",
">X c #E2876B",
",X c #E38E79",
"<X c #E28E75",
"1X c #E19276",
"2X c #E3937B",
"3X c #E59A7C",
"4X c #E7987B",
"5X c #EDA17F",
"6X c #BA9688",
"7X c #D49381",
"8X c #DC9483",
"9X c #DD9A86",
"0X c #CD9889",
"qX c #E49682",
"wX c #E49B84",
"eX c #EA9C85",
"rX c #E59C8A",
"tX c #EA9E8A",
"yX c #EA9481",
"uX c #E09E91",
"iX c #D4A897",
"pX c #CFA290",
"aX c #EDA38D",
"sX c #E9A588",
"dX c #F2A48C",
"fX c #F4AA8C",
"gX c #F6A889",
"hX c #EEA591",
"jX c #E8A995",
"kX c #F1A692",
"lX c #F3AA94",
"zX c #FAAE94",
"xX c #F6AD9A",
"cX c #F9AE9B",
"vX c #FAB193",
"bX c #F6B29C",
"nX c #FAB49D",
"mX c #FCB99D",
"MX c #F3B295",
"NX c #D4ADA4",
"BX c #DBB6A8",
"VX c #FAB5A1",
"CX c #FDBBA2",
"ZX c #FCB8A5",
"AX c #E2B9AD",
"SX c #FFC1A6",
"DX c #FFC3AA",
/* pixels */
"                                                                      V./.V.V.V.K.{.                                                                            ",
"                                                              C. X3X4X4XsXgXgXgXfXvXvXMXfXaX-X#X).J.                                                            ",
"                                                          }. X4XgXgXgXgXgXvXvXvXzXvXmXvXzXfXfXdXwX-XK.C.C./.                                                    ",
"                                                    |.>X>X X4X5XsXsXgXgXgXvXvXvXvXvXvXvXvXvXvXbXlXwX-X&XT.f.e.e.r.                                              ",
"                                            K.J.].1X>X>X}. X4X5XsXsXgXgXgXvXvXvXvXvXvXnXnXmXmXmXCXCXmXcXkXwXXXf.r.Q.f.                                          ",
"                                      Y.H.H.].$X$X}.}.>X>X1X4XsXdXdXdXgXgXzXzXzXvXvXvXnXnXmXmXmXCXSXDXCXZXVXlXsXsXOX(.e.B.                                      ",
"                                  $X].C.K.|.].].|.|.|.}.<X4XeXdXdXdXdXdXdXzXzXzXnXmXmXZXmXmXmXmXmXCXSXDXDXSXCXbXlXjXsX9X=XJ.f.                                  ",
"                                {.].C.K.].].}.}.}.}.}.<X2X3XeXdXdXdXdXdXdXzXzXzXcXcXbXmXmXmXmXmXmXmXZXCXSXDXDXCXCXVXnXbXMXsXOX(.                                ",
"                              ).(.K.K.|.].].4XdXaXaXdXlXzXMXnXzXdXdXzXlXdXlXzXzXkXkXkXaXaXaXaXaXaXwXsXMXmXZXCXSXSXCXCXCXCXDXmX;XJ.                              ",
"                            B.J.J.K.I.|.T.Y.dXZXZXZXVXZXmXmXmXmXnXnXnXvXlXlXlXlXaXaXaXwXwXwX2X-X&X#X#XlXbXbXVXVXVXZXZXZXZXZXCXmXsX(.                            ",
"                          (.B.G.U.K.I.].Y.Y.dXbXbXbXbXbXbXMXMXjXfXaXfXaXsXwXwXwX-X-X-X-X-X*X#X#X#X].{.lXbXnXnXnXbXnXnXnXVXmXnXMXMXwXe.                          ",
"                        e./.B.C.H.K.I.T.].].aXnXbXxXjXjXjXjXuX7XOXOXf.e.q.:.:.:.:.:.:.q.f.f.f.f.f.d.P.lXnXbXbXbXbXbXbXbXVXnXnXMXlXlX9XP.                        ",
"                      e.N.N.C.C.C.K.I.T.].].eXMXjXsX9X;X7X7XoX.Xj.a.,.<.X.h h h h h h h A X.8.8.8.,.d.lXVXbXbXbXbXbXbXbXVXVXVXVXMXlXkXwX(.                      ",
"                    q.e.w.w.N.C.C.K.I.T.].].wX;X=XOXOX_..X!.j.a.8.o.A 5 : & & & & & & $ & ; 7 6 Z X.s.hXVXVXbXbXbXbXbXbXVXVXVXVXMXlXhXwX-X(.                    ",
"                  e.J.0.3.3.3.0.N.J.K.].{.@X#Xf.e.f.f.9.<.o.A 5 7 ; ; = $ = ; ; = # # O O O O # ; 5 o.xXcXVXcXbXbXbXbXbXVXVXVXVXbXxXkXaXsX-X                    ",
"                2.w.w.0.3.3.3.N.C.K.`.{.].-XN.G G G i r 3 5 C O.o.t.t.t.t.k.~.6Xy.9 8 - O o . X O $ 5 jXcXcXcXcXbXbXbXbXVXVXVXVXbXMXkXaXtXaX2X                  ",
"                G.N.*.0.3.3.w.B.K.I.{.#X].2X1.r , * > t J a.~.!.0X0XpXpXpXpXNXAXNX^.8 - X o o . . . 1 uXlXxXxXcXbXbXbXbXVXVXVXVXnXbXlXsXwXeXeX$X                ",
"              J.J.3.2.w.w.w.J.K.].`.].@X$XqXQ , r i #.q.Q.:X0XpXiXiXiXNXNXNXBXNX6Xy.8 # o o X X X + 1 uXlXlXxXxXxXbXbXbXVXVXVXmXbXbXlXaXsXeXeXwX`.              ",
"            $.J.2.2.2.w.w.e.J.).{.{.@X$X2XqX2.#.f.OX9XjXjXjXjXjXjXjXBXBXBXBXBXNX~.I - X . X X X X + 1 9XhXkXlXxXxXxXxXbXVXVXVXmXbXbXlXaXaXeXeXeX2X              ",
"            w.2.2.2.2.w.e.e.J.).{.@X$X2X2XqX&XwXkXnXVXZXVXxXjXjXjXjXiXiXiXiXiX6XO.7 O . . X X X O O 1 9XhXkXlXlXxXxXxXbXVXVXVXnXbXbXlXaXaXaXaXaXlXeX            ",
"            J.2.1.2.e.N.N.J.`.#X$X&X2X2XqXeXaXlXlXlXlXkXaXrXrXrXrX9XpXpXpXpX0X~.8 ; % . . . O O % @ 1 8XtXaXhXkXlXxXxXcXbXbXVXbXbXbXlXkXaXaXaXaXlXdX            ",
"          /.N.2.2.2.e.N.J.).#X$X-X2X4X4XqXeXtXdXdXdXtXeXqX-X-X-X8X8X7X0X:X:X!.a.h ; % O O O % $ & * : 8XaXaXhXkXlXxXxXxXcXbXbXbXbXcXlXkXaXaXaXdXdXlX2X          ",
"          B.w.2.2.2.e.J.).`.#X*X2X4X4X4XqXeXtXtXtXeX2X2X,X&X&X&X&X-XOXOXOX_._.q.X.4 * & * * 4 i h y u qXtXaXaXkXlXxXxXxXxXxXcXxXxXcXlXkXaXaXaXdXdXlXzX].        ",
"        B.B.0.w.w.e.J.`.{.#X#X*X2X2X2X$X2X2X4X2X2X,XyXyX2X2X2X2X,X2X$X].].K.K.J.e.q.%.Q G D Q $.:.G a 8XtXaXaXkXlXlXlXlXlXxXxXxXcXcXlXkXkXhXhXkXkXkXzX3X        ",
"        e.r.e.e.e.J.).{.#X#X#X#X&X$X$X@X$X<X2X,X$X<X2XyX2X2X2X2X,X,X,X@X].T.T.I.K.`.`.J.e.w.N.w.5.G k 8XrXtXaXkXlXlXlXlXlXxXxXxXxXxXlXkXkXkXhXkXkXkXdXfX).      ",
"        f.J.J.J.J.).`.{.#X#X#X#X#X$X$X@X$X$X$X$X$X$X,X2X2X2X,X,X,X,X,X$X].].].].].{.{.`.K.J.J.N.w.$.#.8XrXtXtXaXkXkXlXlXlXlXxXlXlXlXlXkXkXkXhXaXsXtXwX*X{.      ",
"        _.f.e.e.J.`.`.`.`.`.`.`.`.{.@X@X@X@X@X@X@X@X@X@X[.].].[.[.[.[.].[.].].].].`.`.I.K.G.N.6.w.2.5.P.`.#X#X&XqXwXtXaXhXkXlXlXlXlXlXlXkXhXhXaXrXqX&X#XK.).    ",
"      e.Q.e.e.e.J.J.J.J.J.J.J.J.K.I.].].].].].T.H.N.C.C.N.n.n.n.n.n.N.N.N.N.N.N.N.N.N.N.3.6.6.3.2.&.1.2.2.5.3.d.I.`.&XwXeXaXhXkXlXlXlXkXkXkXhXhXaXwX*X`.N.K.    ",
"      (.(.e.e.w.w.w.w.e.e.f.J.J.J.J.K.I.`.`.`.C.6.&.&.&.` c c b b d d d d d d d x x x x x x x x x d d d k k ) $.3.G.I.#X-XwXtXaXkXlXlXkXkXkXkXkXaXrX-X+XJ.J.J.  ",
"      '.`.e.w.9.9.9.9.9.q.e.f.f.f.J.J.J.(._.`.I.Y.H.N.n.3.&.! ) ) c c c c c c c ) ) ) ) ) ) ! ( ( =.` =.&.3.n.N.K.I.+X$X2XwXtXaXkXkXkXkXkXkXkXkXhXsXwX#XP.6.G.  ",
"    B.'.`.e.r.9.9.9.9.9.9.q.e.f.f.f.f.J.J.J.P.K.I.I.I.H.N.N.3.N.N.N.C.J.K.K.K.K.T.T.T.].].@X$X$X&X&X&X,X2XqXqXqXeXqXqXtXwXtXaXaXkXkXkXkXkXkXkXkXkXaXrX-XP.d.d.  ",
"    ).'.).e.r.r.w.w.w.e.e.f.f.f.f.J.f.f.J.J.J.J.G.N.6.6.3.3.3.w.w.N.N.N.C.J.J.J.I.Y.].].].].+X@X$X$X&X&X&X&X&X&X&X#X&X8X8XqXrXtXaXkXkXkXkXkXhXhXhXaXsX8XP.,.q.  ",
"    '.`.(.J.J.J.J.J.J.f.(._._._._._.J.f.f.f.J.J.e.w.w.w.w.e.e.N.B.J.J.J.K.`.`.`.{.@X@X@X@X@X$X$X$X$X&X#X#X+XXXR.I.P.I.XX%X-X8XrXtXaXaXaXhXhXaXaXaXaXrX7Xj.-.,.  ",
"    ).`.(.(.(.(.(.(.(._._._._._._.f.f.f.f.f.f.f.e.e.f.d.f.J.J.J._.`.`.`.`.{.#X#X#X#X$X$X$X$X#X#X#X+X+XI.P.L.d.p.i.p.d.h..XXX%X8XrXtXaXaXaXaXtXrXrXrX8X7Xj.P o.h.",
"  B.'.`.(.(.(.(.(.(.f.f.Q.Q.f.f._.P.f.d.s.h.d.d.h.f.P.XXOXOXOX%X%X%X=X*X=X=X=X=X-X-X-X&X&X#X#X#X+X+XI.L.d.i.4.4.4.>.5.i.g.R.XX-X8XrXrXrXrXrXrXrX8X8X%X7Xg.C C Q.",
"  J.'.`.(.J.f.f.f.e.q.9.9.9.:.:.q.q.q.q.s.h.h.g._..XoX=X=X=X;X8X8X8X8X8X8X7X7X=X%X%X%X%X%XXXXXXXR.P.h.p.i.>.;.;.] ] >.,.s.h..XoX%X8X8X8X8X8X8X7X%XoXoX.Xu.C 7 ~.",
"  (.`.`.J.e.q.q.9.:.:.#.G X.G X.#.-.:.,.s.h.g..XOXoX7X7X=X=X%XoXoXoXXXXXXXR.R.R.P.P.P.h.h.d.d.p.i.i.4.>.>.] ] ] ] ] ;.>.5.s.h.P.XXoX%X%X%X%XoX.X.X!.g.a.o.6 $ ~.",
"  (.(.J.q.%.$.%.%.#.G j z i i i j D K #.:.s._..Xg.g._.g.h.h.h.s.u.u.,.u.,.<.-.-.-.-.' ' ' ' ' ' ' ' ' ] ] ] ] ] ] ] ;.;.>.5.i.s.h.R.R.R..XR.j.j.a.u.o.P C # O a.",
"`.J.(.e.9.%.+.X.G G k i t r r r i i f S G #.<.,.-.-.K K S S S Z m m m m M a M a a a a a N N N D H / / ] ] } } } } ] ] ] ] ;.>.,.i.i.i.h.h.s.a.u.o.J A 8 - X O a.",
"'.J.(.w.2.%.l l l k z i i r > 3 r y u a a a a a u y y y y > > : : : : : : : : : > > w u a f f N D W / ] } 4.4.4.} 1.] ] ] ] ] ' -.-.' -.-.P P J C 8 : = O . + a.",
"'.B.(.w.2.@.+.l l k z i i t r r 3 3 4 y 4 > > > : : : : : , , , , , , , , , : > 0 u u a f B B H ~ ( ] 1.1.1.1.1.4.1.} ] ' ' / / H H D D N N m M < = = + O O O o.",
"'.B.(.e.9.%.+.+.G G k j z i r r r r y s , > 4 3 y y u u u u u u u u s s a f N B D H ~ / / ( ( ] ] 1.1.1.1.1.1.1.1.1.] ] ( / / ~ H D B N f a s s < = 2 @ @ @ % 8.",
"'.B.(.B.w.2.%.$.#.Q G Q +.G k k j j S H j S S D H K H / / / / ' ' ;.;.>.4.4.4.4.4.4.4.4.4.4.4.4.1.1.4.1.1.1.1.1.1.} ( ( / ~ ~ H B B B B f g u 0 < < 1 1 2 @ $ a.",
"'./.).(.J.B.w.9.2.2.2.2.2.2.2.:.$./ ;.<.4.>.>.5.5.5.6.p.p.p.p.p.S.S.S.S.S.S.S.S.n.n.6.6.6.6.6.7.6.2.1.1.1.1.1.( ( ( ( / W H D D B B B B B U V f q 0 0 w 1 2 , Q.",
"'./.).`.(.(.(.B.e.e.e.f.e.e.e.w.5.5.5.p.d.d.L.L.U.U.U.U.G.G.G.G.G.S.G.S.S.n.n.n.6.6.6.6.6.3.3.3.2.2.1.1.&.$.( ( ( Q W D D k k D D U U U U U T T T V q 0 w , > f.",
"  /.).'.'.'.'.).(.J.J.J.J.J.J.G.w.6.p.G.G.G.U.U.U.U.G.S.S.n.n.n.6.6.6.6.6.6.6.6.6.6.3.3.3.3.2.2.2.2.1.&.$.( ( ( Q D D k k k k D W U U Y Y Y Y Y Y T T q 0 0 u f.",
"  /.'.{.#X#X;XOX`.{.{.`.`.I.K.J.G.G.G.G.G.G.G.n.G.n.n.n.n.n.n.n.n.6.6.6.6.6.6.6.3.3.3.3.2.2.1.1.1.&.$.$.( ! ! Q D D D D D D D W W ~ Y ^ _ R R R R R Y n q 0 N J.",
"    (.*X*X*X;X;X#X#X#X#X#X#X#X{.`.K.G.N.G.N.G.n.n.N.N.N.n.N.N.n.n.n.6.6.6.3.3.3.3.3.3.2.&.&.&.$.$.$.$.( ! Q Q D k D D D D D B U U Y Y ^ R _ { { { ..R T q 0 B 5.",
"    ).*X*X-X-X;X*X*X*X*X-X-X$X#X].].H.N.G.n.G.N.N.H.C.N.N.N.N.N.N.6.6.6.3.3.3.3.3.2.2.1.1.&.$.$.$.$.$.! Q Q D k k D D D D D U U ~ Y Y _ _ { { { { { { R T q ~ 1.",
"    e.{.*X;X-X-X-X-X-X-X-X-X-X$X#X].K.K.K.H.K.K.K.I.K.C.C.N.N.w.w.3.3.3.3.3.2.2.2.1.&.1.$.$.$./ / / Q Q Q D k k S D D D D B U U ^ Y Y _ _ { { { { z.{ R T q ]   ",
"      {.*X-X-X-X-X-X-X-X1X1X4X2X$X@XI.I.].I.I.Y.K.K.V.C.C.N.N.w.0.3.3.2.*.2.*.&.$.$.$.$.( / / Q Q G G G D k k S S D D D B U U U ^ Y Y _ _ { { l.l.l.z...n q [   ",
"      {.}.2X-X-X2X2X2X2X2X1X3X3X2X<X[.].[.].I.I.K.K.C.C.C.N.N.w.3.3.2.2.*.$.$.$.( ! ! Q Q Q G D D D D D D D S D D D H B U U U U ^ ^ ^ _ _ { { l.l.l.z.R e q [   ",
"      ).1X1X2X-X2X2X2X4X2X2X3X3X2X2X[.].].].K.K.K.C.C.C.C.N.w.3.3.3.*.*.$.! ! Q W D D k k k S j S S S S S D D D B D D B U U W U ^ ^ ^ _ _  .{ l.l.l.z.E q T Y   ",
"        *X3X-X-X2X4X2X4X2X2X3X3X1X1X[.].Y.I.K.K.C.C.C.N.N.w.0.3.3.2.$.$.@.Q v l D k j j j j S j S S S S S D D D B D D B U U W U ^ ^ ^ _ [  .| l.l.z...e q R     ",
"        `.-X-X-X2X4X4X2X1X1X2X1X$X}.].Y.K.K.J.B.C.N.N.w.0.0.3.2.2.*.$.$.! Q l k k j j j j j S S S S S S S S D D D D D B B U W ~ ^ ^ ^ [ [  .| l.l.z.E e e n     ",
"          3X*X2X2X2X2X1X1X1X2X*X}.].Y.K.B.B.B.N.N.w.0.0.3.2.2.2.*.$.@.! Q l k k j j j j j j S S S S S S S S D D H D D B B B U ~ ~ ^ ^ [ } | l.l.z.c.E e n       ",
"          '.-X2X2X1X1X1X1X1X2X*X}.].K.V.N.N.w.w.0.0.3.2.2.2.*.$.$.$.! Q G k k j j j j j j j S S S S S S S S D D H D D B B B B ~ ~ ^ ^ } } | l.l.z.c.E n c.      ",
"          f.*X-X2X<X1X1X1X1X1X$X}.K.V.N.N.0.0.3.2.2.2.2.*.$.$.$.@.! Q Q k D j j j S S S S S S S S S D D D D D D D D B B B B B ~ ~ ^ [ } | l.b.x.z.c.c.c.        ",
"            '.-X2X*X*X$X$X$X$X}.].V.C.N.0.9.2.2.2.*.&.$.$.$.@.@.Q Q Q k k j j j S S S S S S S S D S S D D D D D D D D B B B H ~ ^ ^ } } | l.Z.x.x.c.x.W.        ",
"            ).*X2X*X$X$X$X$X}.].K.C.N.0.3.2.*.&.$.$.$.$.@.+.Q Q Q k k k j j j j S S S S S S S S S S S D D D D D D D N B B B H ~ ^ } } | l.l.x.x.x.x.A.          ",
"              ).#X].}.}.}.}.].|.V.0.3.2.*.%.$.$.$.$.@.+.! Q G G k k k j j j j j S S S S S S S S S S D D D D D D S N N B B H B ~ ^ }  .| v.x.F.A.A.A.            ",
"                -X$X].|.|.|.].K.N.3.2.*.$.$.$.$.$.+.! Q Q l k k j j j j j j j j S S S S S S S S S D D D D D S S S N N B B H H / ] }  .| b.F.E.A.A.E.            ",
"                  ].@X].).).).V.0.*.&.$.@.@.@.#.#.! Q Q G k j j j j j j j j j j S S F S S S S S S D D D D D S N N N N N B H ~ / ] } l.v.F.F.E.E.E.              ",
"                      |.K.V.B.N.3.&.$.@.@.@.+.#.#.Q G D k k k j j j j S S S S S F F S S S S D D D D D D D N N N N N N D H H ~ ] } | l.M.F.E.E.E.                ",
"                      K.K.N.N.3.*.=.@.! Q Q ! Q Q G D k j j j j j j S S S S S S F F S S D D D D D D D D N N N N N N N D H / ] } | v.b.M.F.E.F.                  ",
"                        B.N.0.*.=.@.! ! Q Q Q Q G G D k j j j j j j S S S S F F F S S S D D D D D D D S N N N N N N B B ~ ~ } | v.b.M.M.F.F.                    ",
"                          0.3.*.@.! ! Q Q Q Q G G D D k j k k j j k S S S F F F F S S S S S D D D D S N m m m m N N B ~ ^ ] | v.v.b.M.M.F.                      ",
"                            3.=.! ! ! ! v v l G G k j j j j j j j j S S S F F F F S S S S S S S S S m m m m m N N B H ^ } | 7.b.b.b.M.M.                        ",
"                              =.v v ) Q v v G G D k j j j j j j S S S S F F F F F F S S S S S S Z m m a a a a N N H ~ ] } 7.v.D.b.M.M.                          ",
"                                v =.c c v G G G D j j j j j j S S Z S F F K K K K F L F S S S Z m a a a a a a N B H ~ } } 7.v.D.b.m.                            ",
"                                  =.@.v l l D G k j j j j j j S S Z S F F K K K F J F S A Z Z m a a a a a a N N H ~ ] } 7.7.v.b.m.                              ",
"                                      +.Q k S D j j j j j j j S S Z S F K K K K J F A Z Z Z a a p p a a a a f N H / ( 1.1.6.n.m.                                ",
"                                            K D j j D D S j j S S Z F F K K K K S A Z Z a p p p p s p a m N N H H / ;.1.2.3.C.                                  ",
"                                              k k k D S S j j S S Z F K K K K K A Z Z a p p p p p p a m S S H H ' ;.;.1.J.N.                                    ",
"                                                j D H j j Z Z S S F J J J J J J Z Z C p p 5 p 5 p m a s N H H ' -.%.w.N.                                        ",
"                                                  D S f a m m Z A A A A A A A A Z C p 5 5 4 5 4 4 s p s s N B H :.e.                                            ",
"                                                        m Z Z Z Z Z Z C C C C C p p p 4 4 4 6 h Z y y y p N ' w.                                                ",
"                                                            m p p p p 5 5 4 4 4 5 p 5 4 4 4 3 3 s a u u                                                         ",
"                                                                  p 4 6 4 p h p C C C 4 4 4 J ,.<.                                                              ",
"                                                                                h.j.                                                                            "
};
