/* XPM */
static char *_2476e7ff89040aca3138f07e48c5b86nWUSULTouzK9CqVw[] = {
/* columns rows colors chars-per-pixel */
"80 80 256 2 ",
"   c #5C2E2E",
".  c #682C2B",
"X  c #732E2E",
"o  c #78312E",
"O  c #6E2B30",
"+  c #782E32",
"@  c #6B3433",
"#  c #683735",
"$  c #753334",
"%  c #7B3334",
"&  c #783A36",
"*  c #7C3638",
"=  c #743C3A",
"-  c #7C3C3B",
";  c #6A453C",
":  c #79453C",
">  c #6B4A43",
",  c #774943",
"<  c #7D4B44",
"1  c #6D574D",
"2  c #78564B",
"3  c #785D52",
"4  c #74604F",
"5  c #7A6355",
"6  c #7D6A62",
"7  c #812E33",
"8  c #833435",
"9  c #8A3635",
"0  c #843A36",
"q  c #8B3A36",
"w  c #843539",
"e  c #89363A",
"r  c #843C3B",
"t  c #8B3C3B",
"y  c #933B35",
"u  c #983C37",
"i  c #933D3A",
"p  c #A23E3E",
"a  c #87453A",
"s  c #83413C",
"d  c #8B423D",
"f  c #93433D",
"g  c #9B4438",
"h  c #9D443C",
"j  c #A3443B",
"k  c #A64539",
"l  c #AB453B",
"z  c #AD493D",
"x  c #B3453B",
"c  c #B54639",
"v  c #B44A3D",
"b  c #BB4B3D",
"n  c #BD513F",
"m  c #C34E3F",
"M  c #C84F3F",
"N  c #C6513F",
"B  c #8E3F41",
"V  c #8C4442",
"C  c #834B44",
"Z  c #844845",
"A  c #8C4C45",
"S  c #8B4D49",
"D  c #934542",
"F  c #944C44",
"G  c #9C4C44",
"H  c #984B49",
"J  c #84534B",
"K  c #895549",
"L  c #8C544B",
"P  c #93534B",
"I  c #985649",
"U  c #9C544C",
"Y  c #8B5B54",
"T  c #935C54",
"R  c #9A5A54",
"E  c #A34B43",
"W  c #AC4C42",
"Q  c #A74C48",
"!  c #B44D42",
"~  c #BC4D41",
"^  c #B44E4A",
"/  c #A35245",
"(  c #AC5245",
")  c #A4544C",
"_  c #AB544B",
"`  c #A35B4D",
"'  c #AC594E",
"]  c #B45244",
"[  c #BC5144",
"{  c #B3544B",
"}  c #BC5549",
"|  c #B95A4B",
" . c #A65A55",
".. c #AB5B52",
"X. c #B35C54",
"o. c #B75D54",
"O. c #866757",
"+. c #996559",
"@. c #946C5C",
"#. c #91705D",
"$. c #AF6A56",
"%. c #A86558",
"&. c #A36B5B",
"*. c #B86558",
"=. c #A05F61",
"-. c #9B6B63",
";. c #8B7364",
":. c #897767",
">. c #897468",
",. c #9B7464",
"<. c #977868",
"1. c #987D72",
"2. c #A76A64",
"3. c #BA6D66",
"4. c #A67667",
"5. c #A47B6C",
"6. c #B87869",
"7. c #A87B73",
"8. c #B87974",
"9. c #C34E41",
"0. c #CC4F42",
"q. c #C45244",
"w. c #CB5444",
"e. c #C55847",
"r. c #CB5946",
"t. c #C45649",
"y. c #CB5649",
"u. c #C35B4C",
"i. c #CC594B",
"p. c #D15546",
"a. c #D45A46",
"s. c #D45749",
"d. c #D35B4B",
"f. c #D95E4B",
"g. c #C55D52",
"h. c #CC5D51",
"j. c #D35E52",
"k. c #D5614D",
"l. c #DB614E",
"z. c #CC6254",
"x. c #C76658",
"c. c #D46253",
"v. c #DA6353",
"b. c #D7685A",
"n. c #C7765C",
"m. c #D6715B",
"M. c #E26757",
"N. c #C66D65",
"B. c #D66D62",
"V. c #C87669",
"C. c #D77669",
"Z. c #C87B73",
"A. c #D67C72",
"S. c #E47467",
"D. c #E1796E",
"F. c #9A826D",
"G. c #8F8475",
"H. c #9C8472",
"J. c #998777",
"K. c #A8816C",
"L. c #B8856B",
"P. c #A78675",
"I. c #A38D7B",
"U. c #AB8C7C",
"Y. c #B68778",
"T. c #A6927B",
"R. c #AB937D",
"E. c #B7957E",
"W. c #CB826B",
"Q. c #C88877",
"!. c #D88777",
"~. c #CB9175",
"^. c #D9957A",
"/. c #E68678",
"(. c #9D9084",
"). c #A98D82",
"_. c #B98B83",
"`. c #A49384",
"'. c #AB9583",
"]. c #AD9B85",
"[. c #A59989",
"{. c #AC9C8B",
"}. c #B39582",
"|. c #BA9387",
" X c #B39B84",
".X c #BB9B83",
"XX c #B49C8A",
"oX c #BB9D8B",
"OX c #AE9F91",
"+X c #B99E93",
"@X c #BCA285",
"#X c #B4A28D",
"$X c #BBA38B",
"%X c #ACA695",
"&X c #B5A494",
"*X c #BBA593",
"=X c #BCAA94",
"-X c #B6A898",
";X c #BCAB9A",
":X c #BDB19C",
">X c #BEADA2",
",X c #BBB2A2",
"<X c #CB8B83",
"1X c #D98D83",
"2X c #C39B84",
"3X c #C79888",
"4X c #D8998A",
"5X c #CD9C92",
"6X c #E6958B",
"7X c #E89488",
"8X c #C3A48C",
"9X c #C8A88C",
"0X c #D5A68D",
"qX c #C3AB94",
"wX c #CAAC94",
"eX c #C7A798",
"rX c #C2AD9B",
"tX c #D7A897",
"yX c #CBB195",
"uX c #C7B59A",
"iX c #C4B29C",
"pX c #CBB39C",
"aX c #D3B39B",
"sX c #D3B799",
"dX c #E2A798",
"fX c #C8ADA2",
"gX c #D6ADA2",
"hX c #C4B4A3",
"jX c #CBB4A3",
"kX c #CCBBA5",
"lX c #C6B8A8",
"zX c #CBBCAA",
"xX c #D6B6A6",
"cX c #D2BBA3",
"vX c #D4BDAB",
"bX c #D4BCB2",
"nX c #E5B7AB",
"mX c #E6B8AD",
"MX c #DDC39F",
"NX c #CDC1AC",
"BX c #D4C3AB",
"VX c #DAC4AA",
"CX c #CDC3B3",
"ZX c #DBC4B3",
"AX c #D7C9B6",
"SX c #DBCDBB",
"DX c #DCD2BD",
"FX c #E6C7B7",
"GX c #EBC5B3",
"HX c #E6D3BC",
"JX c #DCCCC2",
"KX c #DED6C3",
"LX c #E6D8C5",
"PX c #ECD9CC",
"IX c #DEE1CE",
"UX c #EBE5CE",
/* pixels */
"q i i t i f f y q y u u u y 9 9 y j E A > 1 5 2 T / z W ( W ! ! W z ! ! ! ! ] ] ! ! ! ! ~ t.d.j.h.i.t.i.j.c.h.u.u.} ] ! ~ ~ ~ q.w.w.y.y.q.q.q.q.w.z.Q.aXcX8X&./ ",
"9 9 q 9 q q y y 9 9 y u u u y y u j Q K 3 6 5 2 I / z Q _ / j j j j z W W ! z l l z l j z ] [ t.t.] ! v v ! W ] ] ] ! ! v ! ] [ ~ 9.w.q.q.~ b b m z.1XFXLXcX4.U ",
"r q q q 0 q q y 9 y y y y 9 9 u p E ) O.>.J.6 1 J F h ) $.*.G D F G _ ( W W z l l l j f q q h W ] ] ] W l l W ( { ! ! ! ! W ( { ! b m m ~ ~ 9.q.q.z.4XHXLXBXY.4.",
"O.J J Y 2 J J J L P P F F F F G H U 2.P.`.OX`.G.>.2 J L &.&.L C < L R ` ) Q _ { _ / U A : : a F U ' ' _ / / / ) _ Q ( _ ..*.3.3.X.{ ] ] ! ! ! ] | n.3XVXHXpXE.K.",
"*X'.XX*X{.`. X'. XoXE.Y.Y.Y.Y.Y.Y.Y.8XqXiXjXhX;X&X`.J.H.5.<.<.1.I.I.P.K.K.5.4.,.-.@.@.@.;.;.O.O.O.O.T +.,.4.,.<.,.,.K.P.5.4.5.P.Y.K.4.&.+.I A A T 4.9XVXFXVXwX9X",
"].XXpXiX=X$X@X8XyXyXyXwXwX2XwXxXvXvXvXkXBXpXiXjXkX*XR.}.8XyXiXiXkXzXkXpXpXpX*XXX$X*X|. X*X*X XI.H.H.H.I. X=X#X=XqXqXrXqX8X$XqXyXcXxXaXpX8XP.#.O.<.}.pXSXHXHXVXGX",
"#XT.T.R.}..X.XE.@X8XwXwX9X9XwXpXxXxXcXkXyX9XoXoX8X8X.XoX2X8XqXyXwXqXyXyXwXyXpXcXBXZXvXkXvXvXpX$X$X$X&XiXkXBXBXBXBXBXjXiXpXyXsXsXsXsXaXaXsX@X<.;.I.rXzXHXHXHXHXHX",
"P.;.;.<.5.E.}.E.E..X2X2X2XE.P.R. X X'.}.oXwXwX8XeXwX8XoX X.XoX8X$X$XqX8XoX8XqXqXqXkXZXLXLXLXHXZXBXjXkXAXSXHXSXkXiXyXyXwXyXwXsXsXyXwX9X9XyXqXJ.G.{.rXjXVXHXHXPXUX",
"$.X.%.%.2.2.&.2.6.6.6.6.4.+.T Y Y O.O.2.8.7.7.7._.|.P.<.<.,.,.5.5.5.7.,.,.5.1.<.5.U.8XfXeXxXFXHXHXAXZXFXFXFXxX8X2X2X9X3X2X3X0XtXtX9X8X8X9XtXeXeXpXgXyXwXxXcXZXHX",
"^ ^ Q G D t d G Q _ Q G D r r - & = = = Z Z Z S Y Y < , C < : < A S Z , < J J < Z S T +.T -.Y.5XxXFXFXmXdX1XQ.V.V.V.Q.W.V.Z.!.!.!.W.W.W.!.1X4X4X4X4X1X~.4X4X4X4X",
"i h u q 0 t t q y u u i q q 8 8 8 % % % % 8 w % * * $ $ % 8 8 r d d 0 % * r s * * * - * * r Z T |.bXFXdXC.z.i.h.u.} g.g.h.h.h.c.c.h.u.h.c.b.z.x.x.z.b.B.C.D.D.D.",
"$ 8 8 % X % * r 0 0 9 q q t D i t 8 8 9 9 9 8 8 8 8 % 8 8 9 q t i f t 8 8 0 r t r r e 0 0 r 8 Z 7.pXxX4Xz.y.q.q.t.t.[ b ~ 9.9.w.s.w.w.q.w.w.N q.q.w.s.i.i.j.d.a.",
". O $ & - & - S A * o % % 8 e t t 8 8 t t D d r 8 8 8 8 9 9 q q q q t w 8 % 0 0 r 0 0 0 r * % s 4.eXgX1Xo.q.[ [ t.y.[ b b ~ 9.w.w.w.w.w.w.q.q.M M 0.w.q.q.y.w.p.",
"= C S P R P L 4.2.V o o $ % % 8 o X X $ S 2.2.2.S 8 w e 9 8 8 8 8 9 e e w % % % % % % % % $ X - -.8XtX<X*.[ [ e.y.y.~ b ~ 9.w.w.y.y.y.w.w.q.q.9.9.9.9.9.q.t.r.a.",
"Z +.T L V V r S Z % 8 8 $ * % 8 8 8 % % Z T T S - % 8 w 8 8 % $ % 8 w w 8 % % % % $ $ $ $ $ @ = @.|.wX<Xo.~ [ t.y.t.~ b b ~ w.w.m m 9.q.9.9.~ ~ b 9.9.~ ~ t.i.a.",
"F R 2.2.H t w 8 % 8 q q t t % 8 9 8 7 + X $ = @ $ $ $ $ + X X X + $ 8 8 % % % % % % % % - - & , @. XyX3Xo.~ b ~ [ [ ~ v c b 9.9.b b b b b b b b b 9.9.9.q.t.i.d.",
"U U U H t w 8 % X o 8 q i f % $ + + + % % X X $ % % $ + X $ r V $ $ % % % % % % % % % * * % $ = Y }.yX3Xo.[ ~ ~ ~ ~ v x x x c b b b v b b b b b b m 9.q.q.q.q.w.",
"f t B D t 8 8 8 % * d f f q o . . O $ w e 8 + $ $ $ $ % % 8 t s $ % % 8 8 8 * % % $ + % % % $ $ J P.wX3XX.! v v v z z l l x x c x v v v v b M m b b 9.q.q.b b M ",
"f i i i t 8 e H H t t D i q o X . . . $ % $ O X X + 8 w w e 8 % % % 8 8 w r r 8 % % + % % % % * L U.wX.X%.z k k k j l l l x x x c c c v v m w.q.m b b m n b n n ",
"i i y q q t t i t w 8 t i 9 8 8 % X . . @ = @ . . O $ 8 e 9 8 8 % r B w w e w w w 8 * * 8 8 % % J 7.$XoX4.G z l l l l l l x x c x x x v b q.w.9.b b v b n ] | u.",
"i i i q 0 8 8 8 8 8 % r r q q D D r $ $ - r $ .     O % 9 q q 0 0 t D q q e w w w w 8 8 8 0 * & J 5.oX#X<.T / z W l l l l l x x v v v b q.r.y.t.m n } x.n.n.W.n.",
"- s s : : - s s - : - Z S F D D F V - - r r : , ; > , - r 0 0 0 r r t t t r r * * % % * * * & & J <.R.].R.P.+.I G E h h h j z ! } z.| ] | x.n.x.*.n.V.!.^.~.^.^.",
"2 2 2 3 3 2 2 , ; , J +.T J < C J J 2 2 < < J O.5 1 3 , : : : : : : : : : , , , , , : ; ; ; ; , O.H.R.#X;X=X X<.O.L L K L P F G ` ..` I I ` $.$.%.$.6.L.L.L.L.~.",
"G.:.:.:.:.O.5 3 4 5 O.O.O.3 4 O.:.1.H.H.H.;.<.F.J.J.J.<.;.O.;.O.O.O.O.O.O.O.O.5 O.#.#.O.O.O.O.#.<.I.].;XkXzXNXiXXX X XoX8XoX.X}.E.E.Y.K.4.@.@.,.<.<.,.5.K.K.K.K.",
"[.J.J.J.G.:.:.;.;.:.G.J.J.J.J.[.[.`.XX=X;X#X#X=X;XhX;X#X].R.].].'.T.J.H.H.J.J.J.I.R.R.R.U.T.R.}.XX#X;XzXAXBXNXqX}.R.U.R. X@X@X@X8X9XyXsX9XE.}.$XqXqX#X8X$X$X$X$X",
"JXbXCXCXhX-X#X{.XX{.&X;X>XhXlXCXCXCXCXAXSXSXDXDXDXKXAXNXzXkXzXkXhX:X#X#X#X=XiXhXjXcXcXpXqX$X$X=XhX;X;X:XkXkXcXqX$X.X.XE.@X8X9X9X9XyXsXMXVXcXcXBXVXBXBXVXcXcXsXVX",
"PXPXPXPXPXAXkXhXrXjXzXAXSXJXKXLXIXKXLXLXSXJXLXLXUXUXUXLXDXLXSXkXiXpXpXkXjXvXAXZXvXvXZXFXZXcXeX*X;XfX-X].XXoXoXE..X2X2X~.2X8X9X9X9X8X2X9XsXVXVXaXpXpXcXcXsXsXwXaX",
"bXnXgXgXnXmXmXnXnXmXmXmXnXxXgXxXxXxXgXgXeXpXgXxXvXZXAXCXCXAXvX3XU._.5XtXtXaXgXtXwXtX0X5X0X4X3X_._.Y.7.6.6.6.6.6.6.W.W.V.V.W.Q.~.~.W.V.6.Q.4X0X3X~.2XoX X$X2X~.Q.",
"3.3.N.N.V.A./.1X1X1X7X1X!.!.A.!./.A.A.C.C.A.!.!.!.!.<X3X*XeX5XZ.N.3.3.3.N.N.V.N.N.N.N.x.x.N.V.N.3.*.*.x.x.x.x.x.z.b.b.b.b.b.b.b.b.b.b.c.x.V.!.A.W.^.|.I.'.Y.*.*.",
"! ] ] ( ( | x.B.B.b.x.b.z.z.j.c.c.v.c.j.c.c.c.b.b.b.C.Q.+X+X<XB.B.B.b.z.z.z.c.c.c.v.c.i.i.c.b.z.x.x.z.z.d.d.c.c.c.v.v.v.M.v.M.M.l.f.l.f.f.h.c.c.m.!.tX XU.&.{ ] ",
"! ] ] ] ] ] ] } u.u.u.u.u.e.t.t.t.y.e.y.i.i.i.i.i.i.x.Z.XX;X<Xb.M.M.S.m.b.c.k.v.v.v.v.k.c.c.c.b.b.b.c.j.i.i.c.v.v.j.v.v.M.l.M.M.M.l.f.f.f.a.a.a.j.!.dXpX}.%.] q.",
"! ~ ] ] [ ] } t.t.e.e.e.u.e.e.e.t.t.t.t.y.y.y.t.e.e.z.6.+X>X_.x.b.v.b.v.c.k.k.l.l.l.d.k.d.c.c.c.b.b.c.j.y.y.j.c.j.d.d.l.l.l.f.f.f.f.a.a.a.f.a.p.a.C.dXsX3X$.] 9.",
"[ [ [ q.t.i.y.t.y.y.i.i.i.i.y.y.y.y.y.y.y.y.q.t.t.r.x.6.$X;X_.x.c.k.k.k.k.f.f.f.d.f.f.a.i.y.y.i.h.c.c.i.t.q.e.h.i.i.d.d.d.d.a.a.a.a.a.a.a.a.a.a.a.m.4X9XQ.*.~ ~ ",
"t.t.t.t.y.y.y.y.i.i.i.i.i.i.y.y.y.y.y.w.q.9.9.~ [ e.x.Q.$X&X|.V.h.f.k.l.f.a.a.a.a.a.d.a.i.y.t.y.i.i.i.y.t.q.t.i.i.i.i.i.a.d.y.y.w.w.w.w.s.w.w.p.s.b.~.P.4.' ! b ",
"t.e.q.q.t.y.y.y.y.y.y.y.y.y.t.y.t.q.q.9.9.9.m b b ~ x.~.9X*XoX6.u.d.f.l.f.f.f.a.a.f.f.f.a.i.y.y.y.i.i.i.y.y.y.y.i.i.i.i.d.d.y.y.w.w.y.w.y.s.w.0.w.x.Q.,.@.P h z ",
"~ ~ q.q.q.q.q.q.q.y.y.q.q.q.q.q.q.q.q.9.9.9.b b v ! z.!.2X}.}.3.u.i.a.a.f.f.f.a.a.d.d.a.p.y.y.y.y.y.y.y.y.i.i.y.y.i.a.d.d.y.y.y.w.i.i.i.a.s.p.w.r.n.~.H.;.Y F k ",
"v ~ ~ ~ v b b ~ [ e.t.[ b b ~ [ q.q.~ b b b ~ v v v u.V.Y.).U.2.o.i.a.i.r.a.f.a.p.s.a.a.a.a.w.w.w.w.y.y.y.y.y.y.y.y.d.d.d.y.y.w.y.y.i.y.a.p.p.p.k.!.0X*X#X,.) z ",
"z v v v v v v v [ [ ~ v z z v ! ~ b v b b b v z l l ! *.7.'.}.8.' t.t.q.q.t.r.i.w.w.r.a.a.f.a.w.w.y.y.y.y.y.y.y.y.y.d.d.d.i.y.y.w.y.w.q.w.p.s.a.f.C.0XpXcX}.%.W ",
"j j k l l l z v ] [ v z k j k z v v z v v v z k f d d I 5.).}.Y._ } } [ [ t.y.y.y.y.w.a.a.a.a.y.y.y.t.t.y.y.y.i.y.y.d.d.i.i.d.d.s.a.w.q.q.y.w.w.t.*.~.8XyX X2./ ",
"y y u g h k l z z z z l g y g k l z z z x v z h q & : Y P.).XX2X..] ^ [ ] q.e.[ e.t.t.y.y.q.q.q.t.t.t.[ q.e.t.y.y.y.y.a.i.i.d.a.a.d.a.y.t.t.t.u.| %.L..X$X$XU.2.",
"t t t r y k z z l j h h G f f h h j E W z z W / F A K ,.R.'.XX3X%.Q ^ ] } } } { _ / / _ ( ( W ( ] ] { W W ] | } ] [ } u.u.u.} [ ] [ } { ] ( ( ..6.K.E.9XyXqXqXoX",
"S Z C C a G / ) G F A P K A A A a K T +.R I I $.6.L.,.K.}.XXXXXX@.L I R R ` %.R +.@.#.@.+.+.+.&.&.%.&.&.+.+.+.+.I R %.%.%.%.&.&.+.+.&.&.&.&.@.5.E.9XsXcXBXzXVXBX",
";.5 3 5 5 J Y O.O.O.;.<.<.;.<.H.<.<.H.I.'.'.I.U.E.9X.XXX#X#X{.'.P.H.F.<.<.1.P.R. X XR.R.I.P.).XXoXXXoX$X}.'.oX XT.R.R.R.E. X@X$X$X.XoX$X8X$X$XqXsXsXVXSXHXSXLXLX",
"{.`.I.'.`.I.[.[.[.{.&X&X&X{.-X#X{.{.].$XpXcXpXpXpXyXpXcXkXrX;XjXzX&X{.#X#X&XhXkXBXcXzXhXlXlXNXAXSXJXSXkXkXBXSXVXzXzXvXkXiXrX*X$XqXqXqXqXqXqXqXpXcXsXVXHXPXPXUXPX",
"bXhX;X;X&X&X>XlXlX,X:XzXzXhX;X&X>XhX#XR.}.$X$XqXxXjXZXHXHXSXLXLXLXDXSXSXSXSXJXDXAXNXSXHXLXKXLXLXLXLXSXkXkXjXjXzXzXkXhX;X&X].I.I.U. XoXoX.X.X5X8X8XwXaXvXZXPXPXHX",
"JXFXvXzX>XzXzXjXxXvXvXjX*X8XeXeXgXxX8XY.K.L.L.Y.3XgXFXLXHXFXZXFXFXFXGXGXGXGXGXFXxXjXbXGXGXGXGXGXnXnXdX4X3X2X5XcXkXjX=X$XXX|.Y.Y.Q.3X5X0X4X1X4X4X4X4X0X4X4XnXmXtX",
"5XnXFXZXlXbXtX1X1X6X6X1X!.!.4X1X!.1X!.V.x.B.C.S.A.!.7X6X6X6X1X7X7X7X7X7X7X7X6X6XdXtXdXdX7X7X7X/././././././.4XtXrXZXZXaX4X1X!.!.!.1X7X7X/.!./././././.D.A././.!.",
"N.Q.tXbXbXgXZ.c.z.x.b.b.b.S.S.m.c.c.b.v.k.k.c.v.v.c.b.S.D.D.S.m.b.b.b.M.M.M.S.S.A./.D.S.M.M.M.M.M.M.M.M.M.S.D.Y.1.>XZXtX/.D.B.B.B.B.B.b.b.c.d.d.k.c.k.l.d.c.c.i.",
"f  .3XZXZX<Xz.a.a.i.y.t.y.a.a.y.w.w.w.a.a.k.f.a.a.a.a.f.v.b.c.d.r.r.a.a.a.a.f.f.d.z.j.d.a.a.f.f.f.a.y.a.a.d.z.%.3 (.fX4XB.c.j.y.y.t.q.t.i.y.q.w.w.w.w.p.p.s.i.y.",
"` %._.fX X%.[ q.y.q.q.q.q.y.q.q.q.q.N w.a.k.d.a.a.a.w.w.y.i.i.r.r.r.r.r.r.w.w.w.q.q.y.y.w.p.a.a.a.y.y.y.t.e.} %.O.1.eX<Xg.y.t.t.q.q.[ q.t.q.q.q.q.q.q.q.w.w.y.y.",
"W.6.K.oXF.V k v ~ ~ ~ ~ ~ q.q.[ q.9.M M w.i.r.w.w.w.a.i.w.r.i.i.r.r.r.w.w.w.w.w.q.r.y.i.p.a.a.a.a.a.y.y.y.t.u.*.@.G.eX_.o.~ [ } q.q.q.q.q.q.q.q.[ [ q.q.9.9.q.q.",
"^.6.Y.8XI.A g l z z z z v b [ [ q.9.M M m q.q.q.w.w.w.w.w.y.r.r.y.w.w.w.w.w.w.w.y.r.r.w.p.p.a.a.f.a.a.a.i.y.i.x.4.J.rX_.X.! v ~ ~ q.q.q.q.q.q.q.q.q.q.q.q.q.9.q.",
"n.$.4.}.I.K j j j k l l z x v b b 9.M m 9.9.q.q.q.w.q.9.q.q.q.t.w.w.w.w.y.w.w.w.w.w.w.w.w.p.p.a.a.a.a.a.d.s.i.x.4.`.eX_.*.~ ! v ! ~ ~ 9.9.m 9.q.y.w.q.q.q.9.9.q.",
"( _ 3.2XR.&.Q g g j k l k j z v b 9.m b b b q.q.q.q.q.q.q.q.q.t.y.w.w.w.w.w.M M w.w.w.w.w.w.w.w.w.w.w.w.w.w.w.g.&.J.+X_.*.q.~ b x x x b b m 9.9.w.w.w.M 9.9.9.w.",
"! { X.4.1.R h u g j j j j j l x x x v v v v v b ~ q.~ b ~ 9.q.q.q.w.w.y.w.w.M w.w.w.w.p.p.w.w.w.w.w.q.q.q.w.w.u.&.H.XX_.*.q.m b ~ ~ ~ 9.q.q.q.w.w.w.p.p.w.w.w.w.",
"] x.X.+.O.L f j j k k j l l v x z l l l k k k l z z z z x v v b b b b b m m m m N w.w.w.w.q.m 9.9.q.q.q.9.9.q.u.$.U.+X|.3.q.q.9.q.q.q.w.w.w.y.y.w.w.a.a.d.s.p.p.",
"z W ) +.;.@.d h j E Q W ! ! v z z / _ ( j g g g g g j k l l l k l z v v c c c x v b v v b b b b ~ ~ b b b v v | 6.}.;XoX3.t.w.w.w.y.y.w.w.q.q.y.w.w.s.a.d.s.s.w.",
"j j ) -.G.F.Y I %...{ ] ! v x ] *.L.~.Q.6.` / h h h j k j l k j j k z z z z l k k l z l z ( W z E Q ( ( W W k _ 6.*XlXeX3.t.w.w.q.q.q.y.y.y.y.y.i.d.d.a.s.s.d.y.",
"u f F 4.'.T.F.<.4.6.$./ E z ! *.~.4XtXtX0XQ.6.%.G F d f E / h f f G ) ) _ _ ` I ` / E G G ` ` R R R R %.` ` / ` K.=XzX-X4._ ] } ] W ! u.i.h.h.h.h.h.h.g.g.g.g.g.",
"t a J <.$X#X[.[.I.P.,.O.L F G ..6.L.Y.K.5.,.@.O.J J O.,.4.+.J 2 Y ,.<.,.4.5.Y..XE.L.Y.L.P.5.5.<.,.@.O.@.,.5.4.,.P.&XhX&XP.<.4.4.4.4.2.%.%.%.%.%.%.%.%.%.$.6.8.Y.",
"J 2 O.I.$X{.-X;X&X{.`.`.I.<.;.#.<.5.K.R.'.P.U.XX].I.].$X$X}.).`.`.#X*X=X*X9X9XyXyX9XwXsXsX8XR.I.H.H.H.I.'.*X*XXXXX;XlXkXiX;X;X=X;XhXrXXXXXR.H.<.<.F.F.H.'.+X;XhX",
"<.<.F.I.{.{.;XhXhXhX>X-X&X=X=X-X*X*XiXjXkXhXhXiX;XiXkXiX=X=XhXzXhX;X&X=X8X9X9X8X$XqXwXsXcXcX=X XXX#X#XiXzXkXkXzXBXAXSXBXBXSXCX,X,XCXSXSXSXBXkX;X=XqX:XhXzXzX,X%X",
"I.T.`.].OX%X:X-X;XzXlXOX[.&XzXCXhX;XZXLXLXKXDXAXNXAXkX#XT.`.&XhX&XT.I.I.R.}.E.E.XXXXXX#X$XuXuXiXiXhXzXAXSX>X;XZXLXLXAXhXcXZXlX(.G.&XCXSXDXDXLXHXSXSXDXKXDX,X(.1.",
"].&X-X&X;XhX,X[.`.&X+X).U.+XjXhX&X-XcXZXFXFXHXLXDXSXhXI.K.5.Y.3XY.6.Y.Y.P.P.Y.Q.Q.Q.Q.2X|.8XaXiXzXCXSXAX>X)._.gXnXnXtX3X3X5X3XP.1.U.+XeXeXgXFXPXLXSXHXHXjX|.Y.Y.",
"`.[.&X*X|.+X).7.7.8.8.8.Z.4XtX5X|.3X5X3X3X4XdXnXvXCXXX4.Z.N.V.Z.N.N.Z.Z.Z.3.N.N.N.N.V.W.!.!.4XoXfXCXJXhX7.-.3.Z.Q.<XQ.Z.V.V.V.3.2.4.4.2.2.2._.eXvXjXZXxX4XA.A.C.",
"J.{.{.P.-.Y Y T  . .2. .*.3.Z.8.2.2.2.R R  .2.8.oXfX).%.x.{ _ _ E Q _ o.x.g.} t.[ } } u.z.B.V.Y.*XzX>X).2. ._ X.X.X.X.X.X.X.X.X. .U P A V a V Y 7.}.|.8.N.X.{ { ",
"eX&X7.+.S J J & - - = = : Z Z Z , : , , = = s P 7.XX}.%.( f r a A P ` _ W W z z z v v v ] | x.Z.5XlX&X5.3. .H D F F F G G G E ) ) G F F F F V A +.Y.4.I G h f h ",
"eX&X5.P V S S & & = # # # = = = , , , < < = : V %.P.Y...j y d G $.6.V.3.X.z l z v v [ | x.n.*.3.<XgXfX7.3.) V r s a F F H G G / ) G G U U U H H +.K.@.T P F f G ",
"tX=X5.A V V d r - & = # # # # , @.5.U.,.-.< s D ) 2.7...W z W ] *.V.V.x.*.! v v v v [ x.!.^.W...6.8XeX,.2.H r - s V H U ) ) / ) ' ` ) ) ' ' ) U T 5.,.@.T F G Q ",
"tX*X<.C r r 0 % $ @ # # # # @ < Y.2XtX}.,.: r f G R +. .! ! v ! ] } } } [ ~ b v v v [ n.^.4XV.` %.Y.+X<.C V d s d H U )  ...' ' X.X.*.*.X.X.' U L @.,.-.T F E Q ",
"4X8X<.< - * $ @ @ . . @ @ @ @ Y K.Y.tX5X@.< S V D P Y R E k l z x b ~ ~ ~ b c v v ] x.!.^.^.$.`  .-.}.<., r d d D G U ) ) ) ' ..X.*.*.*.*.X.) H R ,.@.-.T F E W ",
"<X}.1.< : = @ # @ @ @ @ @ = J 5.2XU.}.}.7.-.+.L V S 3 @.A f j l z x x v x x z z z ] V.^.4X~..._ ..+.P.1.C r d d f F G )  .....%.*.X.X.' X.*.X.` &.5.,.5.+.A D j ",
"Q..XH.2 > , ; #     # # @ < 4.P.Y.Y.Y.P.Y.5.O.Y C J 1 O.2 P E j j l l z W W W ( | *.V.!.^.V./ Q { 2._.7.L V D d d d f H )  . ..._ ..' _ ' X.X...$.K.K._.4.S d i ",
"Y. X<.2 > , , > > > = = - - L T T +.-.-.2.-.K C : < > 4 2 R G j j j l W ' $.$.*.3.V.V.W.W.*.Q ^ { $.Y.7.L D f d t t t t D H H f D G E E E / _ ) %.L.P.Y.2.P D h ",
"@.<.;.-.R R =.2.=.R R U U U U U U H S S S A A C L +.1 3 2 R D i u u W | *.*.*.*.*.3.*.*.*.E E ^ _ R 7.5.L D f f t t d t B V V d D D D f f f F F &.K.<.@.T U Q Q ",
"2 4 ;.<.R  . .2.2. . .) ) / G D V r r * - & : A &.7.O.;.Y P f y u h W o.x.| o.| ( ] ] ! W G G F P O.P.P.Y A d V V V s r r r s s d V V d d s s A &.7.;.O.Y P U Q ",
"> 1 :.J.,.S Z A S D V V D V r * $ $ $ @ $ $ = L +.-.1.I.,.U E j h h j W ( E h G G Q ] ] / P T O.<.P.].'.;.Y J C J J < , , , : : : C C C C : : K -.5.P.H.;.O.J C ",
"3 5 G.J.>.; # # # = = - - - - - = # # # @ @ @ : J O.J.{.'.5.I U R I P I R T T O.,.,.&.&.4.<.I.XXrXrX:X=X{.J.<.:.;.;.O.O.5 5 3 2 2 2 2 3 O.O.O.#.K.P.'.].XX[.F.:.",
";.:.(.(.:.5 3 > ; > > > ; ; > , 2 3 5 O.2 2 3 O.;.).&X>X,X{.J.P.U.I.I.U.}.}.].#X-X#XR.E.XX;X:XzXvXzXlXzXhX:X#X#X#X].'.T.J.F.:.:.:.:.:.1.H.H.P.R.XX$X*X=XrX;X&X{.",
"1.J.(.[.`.`.J.:.:.:.:.;.;.;.:.:.F.J.I.[.(.`.{.&X*XiXkXNX,X%X:X>X-X{.#X*X$X*XrXkXrXXXR.R.].-X-X;X-X&X-X:X-X=X=XiXzXkXiX;X=X#X].`.[.[.`.XXXXoXoX8XqXiXjXgXgXxXgXeX"
};
