/* XPM */
static char *wall_d[] = {
/* columns rows colors chars-per-pixel */
"40 40 183 2 ",
"   c #030000",
".  c #060000",
"X  c #070000",
"o  c #0C0000",
"O  c #0E0000",
"+  c #100000",
"@  c #120000",
"#  c #130000",
"$  c #150000",
"%  c #160000",
"&  c #1C0000",
"*  c #1D0000",
"=  c #1E0000",
"-  c #1C0200",
";  c #200000",
":  c #220000",
">  c #230000",
",  c #250000",
"<  c #260000",
"1  c #270000",
"2  c #240500",
"3  c #280000",
"4  c #2B0000",
"5  c #2D0000",
"6  c #2E0000",
"7  c #230900",
"8  c #250D00",
"9  c #2F0F00",
"0  c #310000",
"q  c #330000",
"w  c #340000",
"e  c #350000",
"r  c #360000",
"t  c #370000",
"y  c #370400",
"u  c #370600",
"i  c #3B0000",
"p  c #3C0000",
"a  c #3D0000",
"s  c #3E0000",
"d  c #350C00",
"f  c #3E0D00",
"g  c #2E1606",
"h  c #2E1B0C",
"j  c #361606",
"k  c #3E1405",
"l  c #341B09",
"z  c #331F0E",
"x  c #382414",
"c  c #3D2615",
"v  c #392C1F",
"b  c #410000",
"n  c #440000",
"m  c #450000",
"M  c #460000",
"N  c #470000",
"B  c #420400",
"V  c #4C0000",
"C  c #4D0000",
"Z  c #4E0000",
"A  c #4F0000",
"S  c #4E0B00",
"D  c #500100",
"F  c #520000",
"G  c #540000",
"H  c #550000",
"J  c #560000",
"K  c #590000",
"L  c #5C0000",
"P  c #5D0000",
"I  c #5E0000",
"U  c #5D0300",
"Y  c #550800",
"T  c #431002",
"R  c #4C1F07",
"E  c #401F0F",
"W  c #461C0D",
"Q  c #48180E",
"!  c #4E1E0E",
"~  c #531306",
"^  c #5B190D",
"/  c #4F1F11",
"(  c #650000",
")  c #670000",
"_  c #660300",
"`  c #600700",
"'  c #6B0000",
"]  c #6D0000",
"[  c #6E0000",
"{  c #6F0000",
"}  c #6F0700",
"|  c #6F0D00",
" . c #730000",
".. c #740000",
"X. c #700500",
"o. c #750400",
"O. c #750C00",
"+. c #611102",
"@. c #641506",
"#. c #6F1507",
"$. c #631D06",
"%. c #711305",
"&. c #7E1204",
"*. c #74170B",
"=. c #7D180A",
"-. c #751F11",
";. c #7E1E13",
":. c #462615",
">. c #4D2716",
",. c #4D2C17",
"<. c #452C18",
"1. c #402E1D",
"2. c #532614",
"3. c #5F2614",
"4. c #542C18",
"5. c #562E1B",
"6. c #46301E",
"7. c #48331F",
"8. c #4D301D",
"9. c #4E341F",
"0. c #55341F",
"q. c #5E301E",
"w. c #6D2008",
"e. c #612311",
"r. c #602F17",
"t. c #6C2E1D",
"y. c #712E17",
"u. c #7C291B",
"i. c #65331F",
"p. c #483625",
"a. c #4C3624",
"s. c #49392B",
"d. c #4F3C28",
"f. c #4F3E2D",
"g. c #543025",
"h. c #563725",
"j. c #5C3725",
"k. c #563B21",
"l. c #563D27",
"z. c #5C3F27",
"x. c #553F2C",
"c. c #692F24",
"v. c #653C27",
"b. c #60392C",
"n. c #6D3E2C",
"m. c #703323",
"M. c #623E31",
"N. c #56432F",
"B. c #5D402B",
"V. c #5E452E",
"C. c #514333",
"Z. c #564635",
"A. c #5D4734",
"S. c #594A38",
"D. c #5B483B",
"F. c #5E4B38",
"G. c #5E4E3C",
"H. c #604126",
"J. c #64452D",
"K. c #664737",
"L. c #6E4734",
"P. c #664B31",
"I. c #644D36",
"U. c #654F3D",
"Y. c #6D4E3D",
"T. c #78493A",
"R. c #6F5036",
"E. c #655440",
"W. c #645443",
"Q. c #6E5645",
"!. c #6D5C46",
"~. c #695C49",
"^. c #705340",
"/. c #7B5042",
"(. c #765E4E",
"). c #7E5F50",
"_. c #75634D",
"`. c #726251",
"'. c #7C6451",
"]. c #7E6655",
"[. c #7C6D57",
"{. c #786B58",
"}. c #82715F",
/* pixels */
"< < < 6 < 6 6 < 0 0 + + r m m m m Z Z Z Z m G ( U G U G G Z G G U ( U G ( n.^.s ",
"; < = < < 6 6 6 r y x 8 ; 0 b < < s b m m 6 = 0 m m s m m Z Z Z Z G G G U R._.W ",
"a.V.a.9.z.j.5.j.B.I.U.F.x.c ,.6.f.h.0.:.E E c j 9 d :.:.:.9.>.8.j.5.k ; k ^.'.R.",
"c z ,.8.0.H.z.h.V.N.B.z.B.h.0.B.B.J.B.I.W._.`.Q.A.G._.!.W.I.P.R.P.J.J.g d.!.[.}.",
"Z s 0 r D b 6 < % = r r k < < ; r 6 6 < r W >.Y.(.)./.i.e.r.e.m.t.r.m.n.n.i.L.T.",
"< ; % = < 6 < < = = = = = % = = < = = = = = = ; b.R.( ( U U U ( [ ( [ U ( [ X.o.",
"+ = < 3 < % % = % % 0 0 = = ; = ; ; % % = = % % >.m.D G ( G G ( ( ( ( U U U U ' ",
"6 r < = % = = % = % = = + % % O % = % % % % + + E v.G G U G G U G G G G G U U [ ",
"6 6 < = % < 3 O O % % O % O % = O % % % % % % + d v.Z G Z Z Z Z Z Z G U G U U U ",
"3 3 < 3 < < < % O . + O O = ; = % ; ; ; % % % + y l.s m m m m Z Z Z G U G G G G ",
"< < % = % % < 6 < + = +   + ; ; < < < = = = = % 6 9.j s s s s Z G Z U U U ` $.w.",
"= = = + + < ; % < 2 < 2 8 2 = = % = % % = % + % g a.F.d.j k k f T b r b f T R R ",
"Z.f.1.x x 1.p.C.Z.G.W.W.~.G.N.N.f.1.6.p.x.l.9.a.x.F.!.I.9.,.k.z.H.R.J.A.I.I.A.P.",
"].).).^.^.Q.(.(.`.(.Q.(.[.{.{.Y.h.K.Y.^.Y.Y.L.j.h.>.2./ 3.e.3.i.r.3.n.L.H.A.J.i.",
"Z K U #.*.*.| | O.} } %.%.e.x.e.` U ( ( ( ( ( ( U U ( ( [ o.o.o.....( | w.0.W Z ",
"Z Z Z G U U U U U U ( ( ( ` x.@.o.o.[ ....[ [ [ o.[ ( [ [ ........ . .[ X.L.~ G ",
"U U ( ( ( ( ( ( ( ( U U U +.x.^ [ [  . .[ [ ( ( ( ( U ( ( ( [ ( ( ( [ ' [ q.Y G ",
"U U U ( ( ( ( U U U U G G +.l./ (  . . .[  .( ( ( ( ( ( ( [ [ ( ( ( [ ( ( ! < i ",
"Z G Z G G G Z G U G G Z Z G :.W D ( ( [ ( [ [ ( ( ( ( ( ( [ ( ( ( ( ' ' X.J.9.m ",
"0 s s m Z m r s Z m Z s < < E 5.Z G G U ( ( ( ( ( U ( ( ( [ ( [ [ ( U U Z r.l.B ",
"< = 6 m r 6 6 6 0 r s s s y 6.h.r s m m r r s s m m s m m Z Z Z m Z m b 2.J.U.I.",
"h g 9 g h c c 1.c <.N.d.H.V.N.f.a.c c d.V.x.f.A.U.I.V.I.x.N.l.d.l.l.z.V.R._.}.}.",
"(.G.Z.G.U.W.A.V.U.9.>.5.L.].].].].'.'.].Q.'.].].).Y.J.U.W.N.a.:.5.j.i.m.v.L./.).",
"t.Q.Q.-.#.*.%.-.%.| [ o.| ;.;.-.*.=.=.;.m.u.=.&.&.&.&.t.N.^.-.#.*.;.O.O.O.O.O.| ",
"s M.5.U ( U ( ( ( (  .[ [ [ [ [ ( [ [ [ ( ( [  .[ ( ( Z 8 b.( ( U U U U U ( ( ( ",
"$.5.r m Z Z G G U U ( ( ( ( ( ( ( ( ( ( ( ( ' [ [ ( ( U j j.Z G U U U U U U U U ",
"Z / j i s m m Z G U G U U U U U ( ( ( ( ( ( ( ( ( ( ( ( k g.D G Z G U U ( U U U ",
"G b 6 r s s s Z m m m Z G Z G G U U U U ( ( ( U U U U U k g.K U U U U ( ( ' ( ( ",
"s r g 6 s m Z Z Z Y s 0 r s m s m Z Z m Z Z Z Z Z Z Z m 2.A.G ( ( ( ( ( ( [ [ ' ",
"< 6 9.x W r r m e.q./ y 3 6 s < 6 r b T S b b y r 6 b s 8.Z.f Z b Z G G G G G Y ",
"< l a.Z.Z.s.6.c :.h.x.x.d.N.d.C.f.x.z.H.B.P.I.7.<.7.Z.A.G.!.W.G.G.W.F.7.6.p.Z.Z.",
"6.p.C.C.N.f.a.W.Z._.].[.`.N.E h.>.:.:.2.5.0.z.I.W.`.D.K.).K.L.a.c U.Q.}.{.[.G.E ",
"1.a.Q d B B @.q.Q Q ~ c.U.W U G Z Y ` U U U %.3.G.D.B G ~ Y G G b r 0 T x.M.@.U ",
"N.y < = +   + + + + % = W T r < s D m m Z Z G ` M.8.D < < 6 0 s s 0 r 6 f r r 0 ",
"J.6 < = +     + W >.; < s b Z Z G U G Z Z U y.D ! :.6 = < r s s m m Z s 6 d 6 s ",
"q.< % . . . . ; >.j.r 6 < < r m Z G G Z Z #.y.m s E = < 6 s s m Z Z Z s y d 6 s ",
"5.2 + .     % y f k T = % + = s s m m Z G @.@.b m W < < < 6 r r s m m m T W r 6 ",
"= 9 r B s r r 0 6 = = ; y % ; 6 0 Z G G Z D m s 0 E 3 < < = < = < < < < f 7 6 b ",
"+ h ; + + = = % O . O + 6 c f r 0 r r 6 r m r j 8.d.g < < = + % % % = = k c z < ",
"g v h = + % + % 7 g 8 h 6.G.C.p.6.7.a.N.x.<.f.D.G.G.Z.N.Z.d.6.z z x <.8.N.A.K.V."
};
